<?xml version="1.0" standalone="no"?><!DOCTYPE svg PUBLIC "-//W3C//DTD SVG 1.1//EN" "http://www.w3.org/Graphics/SVG/1.1/DTD/svg11.dtd"><svg t="1529048359764" class="icon" style="" viewBox="0 0 1024 1024" version="1.1" xmlns="http://www.w3.org/2000/svg" p-id="11650" xmlns:xlink="http://www.w3.org/1999/xlink" width="200" height="200"><defs><style type="text/css"></style></defs><path d="M757.454 942.424c-90.368 0-163.637-73.268-163.637-163.637s73.268-163.637 163.637-163.637 163.637 73.268 163.637 163.637-73.268 163.637-163.637 163.637zM716.546 737.879h-40.909v122.727h40.909v-122.727zM798.363 656.060h-40.909v204.546h40.909v-204.546zM880.182 737.879h-40.909v122.727h40.909v-122.727zM552.909 778.787c0 67.213 32.891 126.327 82.923 163.637h-492.013c-22.582 0-40.909-18.327-40.909-40.909s18.327-40.909 40.909-40.909h81.818v-695.454c0-45.163 36.654-81.818 81.818-81.818h409.091c45.163 0 81.818 36.654 81.818 81.818v413.223c-13.213-2.7-26.918-4.132-40.909-4.132-112.95 0-204.546 91.596-204.546 204.546zM716.546 533.333v-163.637h-81.818v40.909h40.909v122.727h-40.909v40.909h81.818v-40.909zM920.927 900.615c0 0.327 0.163 0.573 0.163 0.9 0 22.582-18.327 40.909-40.909 40.909h-1.104c15.913-11.863 29.946-25.896 41.85-41.809z" p-id="11651" fill="#ffffff"></path></svg>