<?xml version="1.0" standalone="no"?><!DOCTYPE svg PUBLIC "-//W3C//DTD SVG 1.1//EN" "http://www.w3.org/Graphics/SVG/1.1/DTD/svg11.dtd"><svg t="1529048441062" class="icon" style="" viewBox="0 0 1024 1024" version="1.1" xmlns="http://www.w3.org/2000/svg" p-id="12593" xmlns:xlink="http://www.w3.org/1999/xlink" width="200" height="200"><defs><style type="text/css"></style></defs><path d="M450.56 950.272v-380.928H69.632v380.928H450.56z m24.576-430.08c14.336 0 24.576 10.24 24.576 24.576v430.08c0 14.336-10.24 24.576-24.576 24.576h-430.08c-14.336 0-24.576-10.24-24.576-24.576v-430.08c0-14.336 10.24-24.576 24.576-24.576h430.08z m260.096 432.128c79.872 0 143.36-63.488 143.36-143.36v-124.928l-30.72 32.768c-10.24 10.24-24.576 10.24-34.816 0s-10.24-24.576 0-34.816l73.728-73.728c10.24-10.24 24.576-10.24 34.816 0l73.728 73.728c10.24 10.24 10.24 24.576 0 34.816-4.096 4.096-10.24 8.192-18.432 8.192-6.144 0-12.288-2.048-18.432-8.192l-32.768-32.768V808.96c0 106.496-86.016 192.512-192.512 192.512H645.12c-14.336 0-24.576-10.24-24.576-24.576s10.24-24.576 24.576-24.576h90.112zM573.44 71.68v380.928h380.928V71.68H573.44z m-49.152-24.576c0-14.336 10.24-24.576 24.576-24.576h430.08c14.336 0 24.576 10.24 24.576 24.576v430.08c0 14.336-10.24 24.576-24.576 24.576h-430.08c-14.336 0-24.576-10.24-24.576-24.576v-430.08zM374.784 20.48C389.12 20.48 399.36 30.72 399.36 45.056s-10.24 24.576-24.576 24.576H286.72c-79.872 0-143.36 63.488-143.36 143.36V337.92l32.768-32.768c10.24-10.24 24.576-10.24 34.816 0s10.24 24.576 0 34.816L137.216 413.696c-4.096 4.096-10.24 8.192-18.432 8.192-6.144 0-12.288-2.048-18.432-8.192L26.624 339.968c-10.24-10.24-10.24-24.576 0-34.816s24.576-10.24 34.816 0l32.768 32.768V212.992C94.208 106.496 182.272 20.48 286.72 20.48h88.064z" p-id="12594" fill="#ffffff"></path><path d="M554.496 52.736H972.8V471.04h-418.304zM51.2 554.496h418.304V972.8H51.2z" p-id="12595" fill="#ffffff"></path></svg>