<?xml version="1.0" standalone="no"?><!DOCTYPE svg PUBLIC "-//W3C//DTD SVG 1.1//EN" "http://www.w3.org/Graphics/SVG/1.1/DTD/svg11.dtd"><svg t="1529048217490" class="icon" style="" viewBox="0 0 1024 1024" version="1.1" xmlns="http://www.w3.org/2000/svg" p-id="9309" xmlns:xlink="http://www.w3.org/1999/xlink" width="200" height="200"><defs><style type="text/css"></style></defs><path d="M512 354.133333C422.4 354.133333 349.866667 426.666667 349.866667 512c0 89.6 72.533333 157.866667 162.133333 157.866667s162.133333-72.533333 162.133333-157.866667c0-89.6-72.533333-157.866667-162.133333-157.866667z m0 294.4c-76.8 0-140.8-64-140.8-136.533333s64-136.533333 140.8-136.533333 140.8 64 140.8 136.533333-64 136.533333-140.8 136.533333z" p-id="9310" fill="#ffffff"></path><path d="M942.933333 430.933333c0-17.066667-12.8-29.866667-29.866666-34.133333-38.4-8.533333-68.266667-29.866667-89.6-64s-25.6-72.533333-12.8-106.666667c4.266667-12.8 0-34.133333-12.8-46.933333-38.4-38.4-89.6-64-140.8-85.333333-12.8-8.533333-29.866667-4.266667-46.933334 12.8-25.6 29.866667-59.733333 42.666667-98.133333 42.666666-34.133333 0-72.533333-17.066667-102.4-46.933333-12.8-8.533333-25.6-12.8-42.666667-8.533333-55.466667 25.6-102.4 51.2-140.8 85.333333-12.8 8.533333-17.066667 25.6-12.8 42.666667 8.533333 38.4 4.266667 76.8-12.8 106.666666-17.066667 34.133333-46.933333 55.466667-89.6 64h-4.266666c-8.533333 8.533333-21.333333 21.333333-25.6 34.133334-4.266667 29.866667-8.533333 55.466667-8.533334 85.333333 0 25.6 4.266667 55.466667 8.533334 81.066667 0 17.066667 12.8 29.866667 29.866666 34.133333 38.4 8.533333 68.266667 29.866667 89.6 64s25.6 72.533333 12.8 106.666667c-8.533333 12.8-4.266667 34.133333 8.533334 46.933333 38.4 38.4 89.6 64 145.066666 85.333333h12.8c12.8 0 21.333333-4.266667 29.866667-12.8 25.6-29.866667 59.733333-42.666667 98.133333-42.666666 34.133333 0 72.533333 17.066667 102.4 46.933333 8.533333 8.533333 17.066667 12.8 29.866667 12.8 4.266667 0 8.533333 0 12.8-4.266667 55.466667-21.333333 102.4-51.2 140.8-81.066666 12.8-8.533333 21.333333-25.6 12.8-42.666667-12.8-38.4-8.533333-76.8 12.8-110.933333 17.066667-29.866667 46.933333-55.466667 89.6-64h4.266667c12.8-4.266667 21.333333-17.066667 25.6-34.133334 4.266667-29.866667 8.533333-55.466667 8.533333-85.333333 4.266667-25.6 0-55.466667-4.266667-81.066667z m-42.666666 153.6c0 4.266667 0 4.266667 0 0-51.2 17.066667-93.866667 46.933333-115.2 85.333334-25.6 42.666667-29.866667 89.6-17.066667 140.8-34.133333 29.866667-76.8 55.466667-128 72.533333-38.4-38.4-85.333333-55.466667-132.266667-55.466667-51.2 0-102.4 21.333333-132.266666 55.466667h4.266666c-46.933333-17.066667-89.6-42.666667-123.733333-72.533333 17.066667-46.933333 8.533333-98.133333-17.066667-140.8-25.6-42.666667-64-72.533333-115.2-85.333334-4.266667-21.333333-8.533333-51.2-8.533333-76.8 0-25.6 4.266667-46.933333 8.533333-72.533333 0-4.266667 0-4.266667 4.266667-4.266667 51.2-12.8 89.6-42.666667 110.933333-85.333333 25.6-42.666667 29.866667-89.6 17.066667-140.8 34.133333-29.866667 76.8-55.466667 128-72.533333 38.4 38.4 85.333333 55.466667 132.266667 55.466666 51.2 0 98.133333-21.333333 132.266666-55.466666 46.933333 17.066667 89.6 42.666667 128 72.533333-17.066667 46.933333-8.533333 98.133333 17.066667 140.8 25.6 46.933333 64 72.533333 115.2 85.333333 4.266667 21.333333 8.533333 51.2 8.533333 76.8-8.533333 29.866667-12.8 51.2-17.066666 76.8z" p-id="9311" fill="#ffffff"></path></svg>