<?xml version="1.0" standalone="no"?><!DOCTYPE svg PUBLIC "-//W3C//DTD SVG 1.1//EN" "http://www.w3.org/Graphics/SVG/1.1/DTD/svg11.dtd"><svg t="1570583394836" class="icon" viewBox="0 0 1024 1024" version="1.1" xmlns="http://www.w3.org/2000/svg" p-id="4003" xmlns:xlink="http://www.w3.org/1999/xlink" width="200" height="200"><defs><style type="text/css"></style></defs><path d="M766.1 662.8c26.3-45.3 74.5-69 120-63.7 6.7-28.3 10.2-57.8 10.2-88.1 0-26.8-2.7-52.9-8-78.1-46.1 6.1-95.1-17.9-121.7-63.9-26.9-46.7-22.5-102.3 7.1-139.1C733 192.1 684.1 163 630 145.7c-16.8 44.6-63 76.6-117.3 76.6-54.4 0-100.5-32-117.3-76.6-53.6 17.2-102.1 45.9-142.5 83.2 29.5 36.9 33.6 92.5 6.5 139.1-26.7 45.9-75.9 69.7-121.9 63.4-5.4 25.7-8.3 52.3-8.3 79.6 0 29.8 3.4 58.8 9.8 86.6 45.5-5.2 93.6 18.8 119.8 64.1 25.7 44.6 22.9 97.2-3.1 133.9 40.7 36.8 89.3 65 143 81.7 19-40.5 62.9-68.8 114.1-68.8 51.2 0 95.1 28.3 114.1 68.8 53.2-16.5 101.4-44.4 141.9-80.7-26-36.7-28.6-89.3-2.7-133.8z m-253.4 15c-92.1 0-166.8-74.7-166.8-166.8 0-92.1 74.7-166.8 166.8-166.8 92.1 0 166.8 74.7 166.8 166.8 0 92.2-74.7 166.8-166.8 166.8z m0 0" p-id="4004" fill="#ffffff"></path></svg>