<?xml version="1.0" encoding="UTF-8"?>
<svg width="48px" height="48px" viewBox="0 0 48 48" version="1.1" xmlns="http://www.w3.org/2000/svg" xmlns:xlink="http://www.w3.org/1999/xlink">
    <!-- Generator: Sketch 50.2 (55047) - http://www.bohemiancoding.com/sketch -->
    <title>Fill 1</title>
    <desc>Created with Sketch.</desc>
    <defs>
        <linearGradient x1="50%" y1="0%" x2="50%" y2="100%" id="linearGradient-1">
            <stop stop-color="#D8D8D8" stop-opacity="0.6" offset="100%"></stop>
        </linearGradient>
        <rect id="path-2" x="0" y="0" width="48" height="48"></rect>
    </defs>
    <g id="Page-1" stroke="none" stroke-width="1" fill="none" fill-rule="evenodd">
        <g id="Desktop-HD-Copy" transform="translate(-921.000000, -136.000000)">
            <g id="Group-4-Copy" transform="translate(622.000000, 100.000000)">
                <g id="Fill-1_export" transform="translate(299.000000, 36.000000)">
                    <g id="Fill-1">
                        <g>
                            <mask id="mask-3" fill="white">
                                <use xlink:href="#path-2"></use>
                            </mask>
                            <use id="Mask" fill="url(#linearGradient-1)" xlink:href="#path-2"></use>
                            <path d="M41.1999966,41.1999966 L41.1999966,12.6000593 L26.9999792,12.6000593 L26.9999792,41.1999966 L24.0001221,41.1999966 L24.0001221,4 L6.80000342,4 L6.80000342,41.1999966 L4,41.1999966 L4,44 L44,44 L44,41.1999966 L41.1999966,41.1999966 Z M15.4000627,38.1999441 L9.80005591,38.1999441 L9.80005591,32.4000835 L15.5999165,32.4000835 L15.5999165,38.1999441 L15.4000627,38.1999441 Z M15.4000627,29.7999827 L9.80005591,29.7999827 L9.80005591,24.0001221 L15.5999165,24.0001221 L15.5999165,29.7999827 L15.4000627,29.7999827 Z M15.4000627,21.2001187 L9.80005591,21.2001187 L9.80005591,15.4000627 L15.5999165,15.4000627 L15.5999165,21.2001187 L15.4000627,21.2001187 Z M15.4000627,12.6000593 L9.80005591,12.6000593 L9.80005591,6.80000342 L15.5999165,6.80000342 L15.5999165,12.6000593 L15.4000627,12.6000593 Z M21.2001187,41.1999966 L18.2000173,41.1999966 L18.2000173,6.80000342 L21.0000208,6.80000342 L21.0000208,41.1999966 L21.2001187,41.1999966 Z M35.3999407,41.1999966 L38.1999441,41.1999966 L38.1999441,15.4000627 L35.3999407,15.4000627 L35.3999407,41.1999966 Z" fill="#FFFFFF" mask="url(#mask-3)"></path>
                        </g>
                    </g>
                </g>
            </g>
        </g>
    </g>
</svg>
