<?xml version="1.0" standalone="no"?><!DOCTYPE svg PUBLIC "-//W3C//DTD SVG 1.1//EN" "http://www.w3.org/Graphics/SVG/1.1/DTD/svg11.dtd"><svg t="1529048516039" class="icon" style="" viewBox="0 0 1024 1024" version="1.1" xmlns="http://www.w3.org/2000/svg" p-id="13796" xmlns:xlink="http://www.w3.org/1999/xlink" width="200" height="200"><defs><style type="text/css"></style></defs><path d="M541.083 633.262c-3.979 1.299-14.987 5.74-41.3 20.955-2.659 1.556-5.691 2.363-8.804 2.363-0.03 0-0.059 0-0.098 0-7.169 0-20.62-0.354-74.879-82.441l-0.906-1.557c-50.241-99.576-37.045-107.217-27.415-112.81 26.095-15.077 35.52-22.432 38.838-25.505-0.66-9.237-4.027-33.146-6.568-51.216-4.146-29.512-6.115-44.401-6.706-52.831-5.209-1.654-14.298-3.466-24.047-3.466-10.94 0-15.696 2.265-16.897 2.954-3.054 1.772-74.555 45.101-22.108 184.085l0.463 1.447c2.619 9.848 10.802 30.36 34.78 72.25l0.365 0.286 2.058 3.987c24.323 42.077 38.168 59.734 45.436 67.001l1.034 1.143c54.623 67 102.383 81.073 132.83 81.073 22.196 0 35.638-7.415 37.104-8.262 8.646-5.003 17.951-25.308 20.147-35.835-6.991-4.728-18.916-13.904-42.461-32.368C567.65 653.291 548.705 638.44 541.083 633.262z" p-id="13797" fill="#ffffff"></path><path d="M512.88 63.162c-247.817 0-448.721 200.905-448.721 448.722 0 247.827 200.904 448.722 448.721 448.722 247.817 0 448.722-200.895 448.722-448.722C961.602 264.067 760.697 63.162 512.88 63.162zM619.407 758.894c-4.981 2.895-23.515 12.338-52.249 12.338-36.907 0-93.854-15.913-155.804-91.638-12.348-12.556-28.459-36.092-49.158-71.857l-0.059-0.029-2.6-4.598c-20.62-35.884-33.156-62.087-37.912-79.33-60.876-162.175 31.551-217.96 35.529-220.264 8.056-4.648 18.838-7.012 32.043-7.012 13.176 0 40.61 3.142 50.162 15.027 3.23 4.017 4.609 9 3.899 13.845-0.02 6.066 3.821 33.402 6.647 53.46 6.785 48.232 7.75 57.715 6.47 63.446-1.654 7.543-6.459 15.874-46.725 39.685 3.693 15.066 19.872 51.875 32.062 76.208 19.488 29.414 40 56.454 49.789 65.938 33.412-18.889 44.55-21.606 51.472-21.606 2.186 0 4.264 0.305 6.184 0.917 5.573 1.752 13.274 7.325 51.462 37.281 15.933 12.496 37.617 29.502 42.914 32.555 6.343 2.491 10.576 8.429 11.424 16.11C656.857 706.723 641.033 746.388 619.407 758.894zM693.933 405.139l-17.332-18.375 21.251-18.572-85.8 0 0 0c-11.718 0-21.22 9.492-21.22 21.211 0 11.718 9.502 21.211 21.22 21.221l27.946 0c27.031 0 48.952 21.911 48.952 48.951 0 27.031-21.921 48.941-48.952 48.941L512.88 508.516l0-27.73 127.118 0c11.72 0 21.222-9.493 21.222-21.211s-9.502-21.211-21.222-21.211l0-0.01-27.946 0c-27.031 0-48.95-21.91-48.95-48.951 0-27.03 21.919-48.941 48.95-48.941l86.056 0-22.215-19.744 19.979-17.873 52.289 51.481L693.933 405.139z" p-id="13798" fill="#ffffff"></path></svg>