<?xml version="1.0" standalone="no"?><!DOCTYPE svg PUBLIC "-//W3C//DTD SVG 1.1//EN" "http://www.w3.org/Graphics/SVG/1.1/DTD/svg11.dtd"><svg t="1529048284479" class="icon" style="" viewBox="0 0 1024 1024" version="1.1" xmlns="http://www.w3.org/2000/svg" p-id="10816" xmlns:xlink="http://www.w3.org/1999/xlink" width="200" height="200"><defs><style type="text/css"></style></defs><path d="M512 40.96c260.096 0 471.04 210.944 471.04 471.04S772.096 983.04 512 983.04 40.96 772.096 40.96 512 251.904 40.96 512 40.96m0-40.96C229.376 0 0 229.376 0 512s229.376 512 512 512 512-229.376 512-512S794.624 0 512 0" p-id="10817" fill="#ffffff"></path><path d="M348.16 512c-34.816 0-61.44-26.624-61.44-61.44v-81.92c0-34.816 26.624-61.44 61.44-61.44s61.44 26.624 61.44 61.44v81.92c0 34.816-26.624 61.44-61.44 61.44" p-id="10818" fill="#ffffff"></path><path d="M348.16 757.76c-16.384 0-30.72-14.336-30.72-30.72v-430.08c0-16.384 14.336-30.72 30.72-30.72s30.72 14.336 30.72 30.72v430.08c0 16.384-14.336 30.72-30.72 30.72M512 512c34.816 0 61.44 26.624 61.44 61.44v81.92c0 34.816-26.624 61.44-61.44 61.44s-61.44-26.624-61.44-61.44v-81.92c0-32.768 26.624-61.44 61.44-61.44" p-id="10819" fill="#ffffff"></path><path d="M512 266.24c16.384 0 30.72 14.336 30.72 30.72v430.08c0 16.384-14.336 30.72-30.72 30.72s-30.72-14.336-30.72-30.72v-430.08c0-16.384 14.336-30.72 30.72-30.72M696.32 409.6c34.816 0 61.44 26.624 61.44 61.44v81.92c0 34.816-26.624 61.44-61.44 61.44s-61.44-26.624-61.44-61.44v-81.92c0-32.768 26.624-61.44 61.44-61.44" p-id="10820" fill="#ffffff"></path><path d="M696.32 266.24c16.384 0 30.72 14.336 30.72 30.72v430.08c0 16.384-14.336 30.72-30.72 30.72s-30.72-14.336-30.72-30.72v-430.08c0-16.384 14.336-30.72 30.72-30.72" p-id="10821" fill="#ffffff"></path></svg>