<?xml version="1.0" standalone="no"?><!DOCTYPE svg PUBLIC "-//W3C//DTD SVG 1.1//EN" "http://www.w3.org/Graphics/SVG/1.1/DTD/svg11.dtd"><svg t="1529048263382" class="icon" style="" viewBox="0 0 1024 1024" version="1.1" xmlns="http://www.w3.org/2000/svg" p-id="10033" xmlns:xlink="http://www.w3.org/1999/xlink" width="200" height="200"><defs><style type="text/css"></style></defs><path d="M30.117647 347.356863a30.117647 30.117647 0 0 0 30.117647-30.117647V110.431373A50.196078 50.196078 0 0 1 110.431373 60.235294H321.254902A30.117647 30.117647 0 0 0 321.254902 0H110.431373A110.431373 110.431373 0 0 0 0 110.431373V317.239216a30.117647 30.117647 0 0 0 30.117647 30.117647zM299.570196 963.764706H110.431373a50.196078 50.196078 0 0 1-50.196079-50.196079v-211.626666a30.117647 30.117647 0 0 0-60.235294 0v211.626666a110.431373 110.431373 0 0 0 110.431373 110.431373h189.138823a30.117647 30.117647 0 0 0 0-60.235294zM913.568627 0h-213.232941a30.117647 30.117647 0 0 0 0 60.235294h213.232941A50.196078 50.196078 0 0 1 963.764706 110.431373v221.665882a30.117647 30.117647 0 0 0 60.235294 0V110.431373A110.431373 110.431373 0 0 0 913.568627 0zM993.882353 675.036863a30.117647 30.117647 0 0 0-30.117647 30.117647v208.414117A50.196078 50.196078 0 0 1 913.568627 963.764706H722.823529a30.117647 30.117647 0 0 0 0 60.235294h189.941961a110.431373 110.431373 0 0 0 110.431373-110.431373v-208.414117a30.117647 30.117647 0 0 0-29.31451-30.117647zM813.176471 762.980392a294.751373 294.751373 0 0 0-175.083922-268.649412 185.123137 185.123137 0 0 0 62.644706-138.139607 188.737255 188.737255 0 0 0-377.47451 0 185.123137 185.123137 0 0 0 62.644706 138.139607A294.751373 294.751373 0 0 0 210.823529 762.980392c0 32.12549 36.141176 54.211765 113.643922 70.27451a1117.163922 1117.163922 0 0 0 213.232941 18.873725c104.809412 1.204706 275.476078-8.83451 275.476079-89.148235z m-120.470589 37.345883c-166.249412 31.322353-427.26902-3.212549-441.72549-37.345883a256.200784 256.200784 0 0 1 182.713726-244.153725l44.172549-13.653334-40.156863-22.889411A144.163137 144.163137 0 0 1 361.411765 356.99451a148.580392 148.580392 0 0 1 297.160784 0A144.163137 144.163137 0 0 1 586.290196 481.882353l-40.156863 22.889412 44.172549 13.653333A256.200784 256.200784 0 0 1 773.019608 762.980392c0 8.432941-16.865882 26.101961-81.116863 38.14902z" p-id="10034" fill="#ffffff"></path></svg>