<?xml version="1.0" standalone="no"?><!DOCTYPE svg PUBLIC "-//W3C//DTD SVG 1.1//EN" "http://www.w3.org/Graphics/SVG/1.1/DTD/svg11.dtd"><svg t="1529047905745" class="icon" style="" viewBox="0 0 1103 1024" version="1.1" xmlns="http://www.w3.org/2000/svg" p-id="5125" xmlns:xlink="http://www.w3.org/1999/xlink" width="215.4296875" height="200"><defs><style type="text/css"></style></defs><path d="M1102.769231 876.544a369.742769 369.742769 0 0 0-232.526769-343.512615 246.311385 246.311385 0 0 0 109.48923-204.957539 246.232615 246.232615 0 0 0-189.755077-239.852308 4.726154 4.726154 0 0 0-2.835692 0.236308c-1.260308-0.078769-2.441846-0.393846-3.702154-0.393846a42.141538 42.141538 0 0 0-6.537846 83.731692c3.544615 1.417846 8.192 2.520615 8.428308 2.599385a159.901538 159.901538 0 0 1-22.449231 308.775385l-0.315077 0.236307a47.261538 47.261538 0 0 0 1.102769 94.444308c0.157538 0.078769 0.315077 0.393846 0.551385 0.393846 149.504 15.202462 255.448615 142.887385 255.448615 298.299077a41.511385 41.511385 0 0 0 82.944 1.575385l0.157539-0.551385v-0.236308-0.787692zM604.868923 539.963077a294.675692 294.675692 0 0 0 130.678154-245.129846A294.518154 294.518154 0 0 0 441.422769 0 294.518154 294.518154 0 0 0 147.298462 294.833231c0 102.242462 51.908923 192.196923 130.678153 245.129846A442.525538 442.525538 0 0 0 0 950.980923c0 10.476308 0.630154 20.795077 1.417846 31.113846a40.96 40.96 0 0 0 82.077539 0c0-1.260308-0.315077-2.441846-0.393847-3.702154a313.501538 313.501538 0 0 1-1.575384-27.411692c0-199.286154 161.161846-360.763077 359.896615-360.763077a360.211692 360.211692 0 0 1 359.817846 360.763077c0 9.609846-0.787692 19.062154-1.575384 28.435692 0.708923 24.733538 18.668308 42.535385 40.881231 42.535385a40.96 40.96 0 0 0 40.88123-39.857231c0.787692-10.24 1.339077-20.637538 1.339077-31.113846A442.525538 442.525538 0 0 0 604.947692 539.963077z m-163.446154-33.319385a211.574154 211.574154 0 0 1-211.259077-211.810461c0-116.972308 94.523077-211.731692 211.259077-211.731693a211.495385 211.495385 0 0 1 211.259077 211.731693c0 116.972308-94.601846 211.889231-211.259077 211.889231z" p-id="5126" fill="#ffffff"></path></svg>