<?xml version="1.0" standalone="no"?><!DOCTYPE svg PUBLIC "-//W3C//DTD SVG 1.1//EN" "http://www.w3.org/Graphics/SVG/1.1/DTD/svg11.dtd"><svg class="icon" width="200px" height="200.00px" viewBox="0 0 1024 1024" version="1.1" xmlns="http://www.w3.org/2000/svg"><path fill="#ffffff" d="M507.278222 875.050667c-27.164444 0-48.967111-6.883556-64.796444-20.451556-16.284444-13.952-25.173333-34.830222-26.439111-62.037333l-0.014223-70.769778H273.749333c-19.754667-1.436444-35.043556-9.799111-45.255111-24.263111a93.482667 93.482667 0 0 1-16.696889-43.406222 13.482667 13.482667 0 0 1 0-3.384889c1.976889-16.440889 7.964444-30.264889 17.777778-41.102222 10.325333-11.392 24.832-17.863111 43.121778-19.228445l143.331555-0.028444v-22.727111l-142.350222-0.739556c-19.441778-1.408-34.048-8.263111-44.387555-20.394667-9.671111-11.335111-15.559111-25.628444-17.493334-42.467555a14.464 14.464 0 0 1 0-3.328c1.976889-16.440889 7.950222-30.264889 17.777778-41.102222 10.339556-11.406222 24.860444-17.877333 43.136-19.228445l93.383111-0.028444-96-169.073778c-5.816889-7.182222-11.335111-16.113778-16.426666-26.595556a81.422222 81.422222 0 0 1-7.907556-39.708444 13.582222 13.582222 0 0 1 0.213333-1.863111c3.157333-17.592889 9.685333-32.284444 19.427556-43.633778 10.581333-12.359111 28.416-19.925333 54.485333-23.111111a14.179556 14.179556 0 0 1 2.901334-0.056889 79.616 79.616 0 0 1 42.325333 16.256 133.347556 133.347556 0 0 1 28.131555 28.643556c0.312889 0.440889 0.597333 0.896 0.867556 1.379555l111.303111 203.576889 122.666667-205.653333a112.967111 112.967111 0 0 1 29.297778-28.771556 92.544 92.544 0 0 1 41.159111-15.36 13.226667 13.226667 0 0 1 2.702222-0.071111c8.860444 0.597333 17.152 1.792 24.661333 3.598222a63.601778 63.601778 0 0 1 22.954667 10.496c6.940444 5.105778 12.743111 12.273778 17.265778 21.304889 4.238222 8.476444 7.210667 18.915556 9.073777 31.914667 0.099556 0.668444 0.142222 1.336889 0.142223 2.019555 0 18.574222-6.286222 36.280889-18.702223 52.664889l-111.971555 182.058667h93.752889c18.716444 1.393778 33.038222 7.793778 43.619555 19.086222 10.339556 11.036444 16.241778 25.116444 17.578667 41.841778 0.056889 0.739556 0.056889 1.493333 0 2.232889-1.322667 17.095111-7.239111 31.857778-17.592889 43.861333-10.88 12.629333-25.457778 19.740444-43.335111 21.12l-141.738667 0.768v21.091556h141.454223c19.057778 1.422222 33.550222 8.590222 44.174222 21.333333 9.984 11.989333 15.701333 26.396444 17.024 42.837333 0.056889 0.739556 0.056889 1.493333 0 2.232889-1.322667 17.052444-7.082667 31.672889-17.152 43.434667-10.624 12.387556-25.088 19.356444-42.965334 20.736l-142.549333-0.696889v71.665778c-2.545778 53.845333-34.360889 83.128889-89.656889 83.128889z m-77.027555-181.688889a14.179556 14.179556 0 0 1 14.222222 14.222222v84.323556c0.896 18.673778 6.300444 32.327111 16.526222 41.102222 10.524444 9.031111 26.097778 13.610667 46.279111 13.610666 40.533333 0 59.406222-17.080889 61.212445-55.367111l-0.014223-85.290666a14.222222 14.222222 0 0 1 14.222223-14.222223h0.071111l155.676444 0.810667c9.073778-0.753778 16.782222-4.309333 22.385778-10.851555 5.930667-6.926222 9.301333-15.431111 10.296889-25.984-0.995556-10.112-4.423111-18.574222-10.424889-25.799112-5.603556-6.698667-13.255111-10.353778-23.409778-11.136l-154.581333 0.042667a14.222222 14.222222 0 0 1-14.222222-14.222222v-49.464889a14.222222 14.222222 0 0 1 14.151111-14.222222l154.865778-0.810667c9.216-0.753778 17.066667-4.451556 22.940444-11.278222 6.200889-7.182222 9.699556-15.815111 10.695111-26.368-0.952889-9.784889-4.209778-17.493333-9.884444-23.566222-5.632-6.001778-13.468444-9.315556-23.950223-10.126223l-118.115555 0.042667a14.236444 14.236444 0 0 1-12.117333-21.674667l125.681777-204.344888a14.08 14.08 0 0 1 0.839111-1.208889c8.704-11.320889 13.056-22.769778 13.269334-34.958223-1.408-9.301333-3.484444-16.768-6.200889-22.186666-2.488889-4.963556-5.404444-8.704-8.675556-11.121778a34.488889 34.488889 0 0 0-12.743111-5.731556 116.992 116.992 0 0 0-18.531555-2.773333 63.047111 63.047111 0 0 0-27.292445 10.424889 84.679111 84.679111 0 0 0-21.532444 20.778667l-134.826667 226.119111a13.724444 13.724444 0 0 1-12.472889 6.940444 14.250667 14.250667 0 0 1-12.216889-7.395555l-122.837333-224.668445a105.187556 105.187556 0 0 0-21.703111-21.802666 50.716444 50.716444 0 0 0-26.012445-10.382223c-21.873778 2.887111-31.018667 8.732444-34.830222 13.198223-6.243556 7.281778-10.567111 17.095111-12.856889 29.212444-0.284444 9.201778 1.393778 17.408 5.105778 25.059556 4.337778 8.903111 8.888889 16.256 13.553778 21.845333 0.540444 0.654222 1.024 1.351111 1.436444 2.076444l108.657778 191.374223a14.222222 14.222222 0 0 1-12.359111 21.248h-116.764444c-9.870222 0.768-17.763556 4.024889-23.111112 9.912888-5.560889 6.129778-8.96 13.909333-10.396444 23.736889 1.464889 10.496 4.963556 18.887111 10.666667 25.6 5.319111 6.229333 13.127111 9.656889 23.879111 10.453334l155.52 0.768a14.222222 14.222222 0 0 1 14.151111 14.222222v51.086222a14.222222 14.222222 0 0 1-14.222222 14.222222H273.749333c-9.870222 0.768-17.777778 4.024889-23.111111 9.912889-5.560889 6.129778-8.96 13.895111-10.382222 23.708445 1.521778 10.538667 5.276444 19.939556 11.463111 28.672 5.376 7.608889 12.714667 11.505778 23.096889 12.273777l155.434667-0.042666z"  /></svg>