<?xml version="1.0" standalone="no"?><!DOCTYPE svg PUBLIC "-//W3C//DTD SVG 1.1//EN" "http://www.w3.org/Graphics/SVG/1.1/DTD/svg11.dtd"><svg t="1529047848809" class="icon" style="" viewBox="0 0 1024 1024" version="1.1" xmlns="http://www.w3.org/2000/svg" p-id="4111" xmlns:xlink="http://www.w3.org/1999/xlink" width="200" height="200"><defs><style type="text/css"></style></defs><path d="M753.175363 46.959521 273.161868 46.959521c-68.419276 0-123.887588 55.468312-123.887588 123.887588l0 716.172099 0 21.315468c-0.058328 0-0.116657 0-0.232291 0-2.584871 31.508621 19.515473 73.2984 55.874565 73.2984 47.801702 0 52.41886-69.175499 98.448196-72.688509l6.91141 0c45.071522 3.485381 48.904827 66.301032 92.698239 71.673389 1.916653 0.232291 3.426029 1.01512 5.517667 1.01512 2.061962 0 3.601015-0.783853 5.489014-1.01512 43.706431-5.372358 47.539736-68.188009 92.552929-71.673389l7.173376 0c45.099151 3.485381 48.932456 66.301032 92.668563 71.673389 1.916653 0.232291 3.427052 1.01512 5.517667 1.01512 2.061962 0 3.601015-0.783853 5.517667-1.01512 43.736107-5.372358 47.62774-68.188009 92.699262-71.673389l10.629081 0c38.391379 3.428076 46.057989 50.675146 76.986395 66.968228 42.25436 22.275329 81.923848-27.15343 79.106686-66.968228l0.202615 0 0-2.583848 0-19.340487L877.035322 170.84711C877.034299 102.426811 821.565986 46.959521 753.175363 46.959521zM638.058532 545.499975c14.549368 0 25.90295 12.429077 25.90295 25.236777 0 11.82021-11.847839 24.219611-25.90295 24.219611L546.37746 594.956364l0 47.363727c0 12.459776-9.873882 21.869077-25.03314 21.869077-14.288424 0-24.423249-9.845229-24.423249-21.869077l0-47.363727-92.377944 0c-13.881149 0-25.26543-12.603039-25.26543-25.236777 0-12.254092 11.122315-24.219611 25.26543-24.219611l92.377944 0 0-24.772196-92.377944 0c-14.636349 0-25.26543-12.196787-25.26543-25.439392 0-11.790534 11.384281-24.016996 25.26543-24.016996l70.597895 0L396.933823 348.343663c-3.309372-4.327562-4.41352-12.487406-2.961448-17.831111 1.799996-6.389524 7.259334-11.848862 15.042601-14.985296 12.023848-4.443196 26.716478-0.406253 33.164331 8.508791l79.862909 122.58185 79.105662-122.784464c6.680143-10.047844 23.001877-13.96813 34.240849-8.015557 3.978614 1.219781 6.939039 3.833305 9.553587 7.203052l0.347924-2.613524 0 5.227048c0 0.930185 2.294252 2.556219 2.614547 3.542686 1.945305 5.575995 2.439562 12.400425-1.01512 17.453511l-8.335852 13.793144-69.872371 110.848621 69.379137 0c14.287401 0 25.90295 12.632715 25.90295 25.004487 0 12.283768-11.354606 24.451902-25.90295 24.451902L546.37746 520.728802l0 24.772196L638.058532 545.500998z" p-id="4112" fill="#ffffff"></path></svg>