<?xml version="1.0" standalone="no"?><!DOCTYPE svg PUBLIC "-//W3C//DTD SVG 1.1//EN" "http://www.w3.org/Graphics/SVG/1.1/DTD/svg11.dtd"><svg t="1529048461113" class="icon" style="" viewBox="0 0 1024 1024" version="1.1" xmlns="http://www.w3.org/2000/svg" p-id="13394" xmlns:xlink="http://www.w3.org/1999/xlink" width="200" height="200"><defs><style type="text/css"></style></defs><path d="M829.554197 1001.001291H194.445803A44.197658 44.197658 0 0 1 150.725958 957.217738V131.939962A44.197658 44.197658 0 0 1 194.445803 88.20419h635.108394a44.197658 44.197658 0 0 1 43.719845 43.719845V957.217738a44.197658 44.197658 0 0 1-43.719845 43.719845z m0 0" fill="#ffffff" p-id="13395"></path><path d="M829.554197 1024H194.445803A66.782262 66.782262 0 0 1 127.711322 957.217738V131.939962a66.782262 66.782262 0 0 1 66.734481-66.734481h635.108394a66.782262 66.782262 0 0 1 66.734481 66.734481V957.217738a66.782262 66.782262 0 0 1-66.734481 66.734481zM194.445803 111.218826a20.705209 20.705209 0 0 0-20.705209 20.705209V957.217738a20.705209 20.705209 0 0 0 20.705209 20.705209h635.108394a20.705209 20.705209 0 0 0 20.705209-20.705209V131.939962a20.705209 20.705209 0 0 0-20.705209-20.705209z m0 0" fill="#ffffff" p-id="13396"></path><path d="M286.48842 131.159535H265.018711a21.437855 21.437855 0 0 1-21.485636-21.469709V44.484345a21.437855 21.437855 0 0 1 21.485636-21.469709h21.469709a21.437855 21.437855 0 0 1 21.485636 21.485636v65.189554c0.7645 11.515282-9.205854 21.469709-21.485636 21.469709z m0 0" fill="#ffffff" p-id="13397"></path><path d="M286.48842 154.174171H265.018711a44.595835 44.595835 0 0 1-44.500272-44.484345V44.484345A44.595835 44.595835 0 0 1 265.018711 0h21.469709a44.595835 44.595835 0 0 1 44.484345 44.484345v65.205481c0.7645 24.543636-19.112501 44.484345-44.484345 44.484345zM266.547711 108.160826h19.112501v-62.911981h-19.112501z m0 0" fill="#ffffff" p-id="13398"></path><path d="M420.769664 131.159535h-21.533417A21.437855 21.437855 0 0 1 377.766538 109.689826V44.484345a21.437855 21.437855 0 0 1 21.469709-21.485636H420.769664a21.437855 21.437855 0 0 1 21.469709 21.485636v65.205481c0.7645 11.515282-9.205854 21.469709-21.469709 21.469709z m0 0" fill="#ffffff" p-id="13399"></path><path d="M420.769664 154.174171h-21.533417a44.595835 44.595835 0 0 1-44.484346-44.484345V44.484345A44.595835 44.595835 0 0 1 399.236247 0H420.769664a44.595835 44.595835 0 0 1 44.436564 44.484345v65.205481c0.780427 24.543636-19.112501 44.484345-44.484345 44.484345z m-19.940709-46.029272h19.112501V45.248845h-19.112501z m0 0" fill="#ffffff" p-id="13400"></path><path d="M500.500645 1000.220864l372.773397-372.008897" fill="#ffffff" p-id="13401"></path><path d="M857.028417 611.600019l32.539032 32.539032-372.630053 372.582272L484.477999 984.18229z m0 0" fill="#ffffff" p-id="13402"></path><path d="M664.645171 1006.368718L877.876969 793.120993" fill="#ffffff" p-id="13403"></path><path d="M861.424292 777.002784l32.554959 32.539032-213.16809 213.16809-32.539032-32.539032z m0 0" fill="#ffffff" p-id="13404"></path><path d="M671.541599 233.952934a54.470627 54.470627 0 1 0 27.235313-47.176022 54.4547 54.4547 0 0 0-27.235313 47.176022z m0 0" fill="#ffffff" p-id="13405"></path></svg>