<?xml version="1.0" standalone="no"?><!DOCTYPE svg PUBLIC "-//W3C//DTD SVG 1.1//EN" "http://www.w3.org/Graphics/SVG/1.1/DTD/svg11.dtd"><svg class="icon" width="128px" height="128.00px" viewBox="0 0 1024 1024" version="1.1" xmlns="http://www.w3.org/2000/svg"><path fill="#ffffff" d="M549.778 1019h357.774V661.228H549.778V1019z m-429.328 0h357.774V661.228H120.45V1019z m429.048-652.726c35.184-3.914 74.77-8.282 97.69-10.866 93.778-10.448 178.19-94.894 188.602-188.632C846.2 73.14 778.77 5.636 685.2 16.154c-73.158 8.178-140.066 61.458-171.198 128.958-31.13-67.502-98.038-120.784-171.166-129.03-93.602-10.446-161.14 57.058-150.622 150.694 10.448 93.742 94.896 178.116 188.564 188.632 22.956 2.584 62.542 7.024 97.724 10.866-0.558 4.716-0.28 8.734-0.28 8.734h71.554c0.004 0.002 0.282-4.016-0.278-8.734z m120.33-263.3c50.59-5.66 87.208 30.816 81.478 81.478-5.59 50.662-51.292 96.326-101.884 101.986-50.73 5.626-87.208-30.85-81.546-81.512 5.66-50.662 51.36-96.326 101.952-101.952z m-291.216 183.464c-50.592-5.66-96.222-51.326-101.882-101.986-5.664-50.66 30.85-87.138 81.406-81.478 50.662 5.626 96.326 51.29 101.992 101.952 5.656 50.662-30.856 87.136-81.516 81.512z m171.166 88.57v214.664h429.328V375.008H549.778zM48.894 589.672h429.328V375.008H48.894v214.664z" /></svg>