<?xml version="1.0" standalone="no"?><!DOCTYPE svg PUBLIC "-//W3C//DTD SVG 1.1//EN" "http://www.w3.org/Graphics/SVG/1.1/DTD/svg11.dtd"><svg class="icon" width="200px" height="200.00px" viewBox="0 0 1024 1024" version="1.1" xmlns="http://www.w3.org/2000/svg"><path fill="#ffffff" d="M938.666667 796.416 471.950222 796.416 199.082667 1023.744 220.046222 796.416 85.333333 796.416C53.902222 796.416 28.444444 770.958222 28.444444 739.555556L28.444444 56.860444C28.444444 25.457778 53.902222-0.028444 85.333333-0.028444L938.666667-0.028444C970.069333-0.028444 995.555556 25.457778 995.555556 56.860444L995.555556 739.555556C995.555556 770.958222 970.069333 796.416 938.666667 796.416ZM938.666667 56.860444 85.333333 56.860444 85.333333 739.555556 280.405333 739.555556 255.488 910.364444 454.684444 739.555556 938.666667 739.555556 938.666667 56.860444ZM284.728889 458.837333 335.843556 433.976889C369.180444 497.237333 435.512889 540.416 512 540.416 592.924444 540.416 662.414222 492.060444 693.560889 422.741333L744.675556 447.630222C704.256 535.864889 615.395556 597.304889 512 597.304889 413.013333 597.304889 327.338667 541.041778 284.728889 458.837333Z" /></svg>