<?xml version="1.0" standalone="no"?><!DOCTYPE svg PUBLIC "-//W3C//DTD SVG 1.1//EN" "http://www.w3.org/Graphics/SVG/1.1/DTD/svg11.dtd"><svg class="icon" width="200px" height="200.00px" viewBox="0 0 1024 1024" version="1.1" xmlns="http://www.w3.org/2000/svg"><path fill="#ffffff" d="M735.5 959h-447C165.3 959 65 858.7 65 735.5v-447C65 165.3 165.3 65 288.5 65h447C858.7 65 959 165.3 959 288.5v447C959 858.7 858.7 959 735.5 959z m-447-812.7c-78.4 0-142.2 63.8-142.2 142.2v447c0 78.4 63.8 142.2 142.2 142.2h447c78.4 0 142.2-63.8 142.2-142.2v-447c0-78.4-63.8-142.2-142.2-142.2h-447zM761.2 790.3H262.8c-22.4 0-40.6-18.2-40.6-40.6s18.2-40.6 40.6-40.6h498.3c22.4 0 40.6 18.2 40.6 40.6s-18.1 40.6-40.5 40.6zM574.5 749.6h125.8V398.8c0-31.2-19.3-56.5-43.2-56.5H598c-13.3 0-24 10.7-24 24v117.1M496.5 251.3H354c-33.4 0-60.4 27-60.4 60.4v437.9h263.3V311.7c0-33.3-27-60.4-60.4-60.4zM388.2 662c0 8.1-6.6 14.7-14.7 14.7h-36.4c-8.1 0-14.7-6.6-14.7-14.7v-36.4c0-8.1 6.6-14.7 14.7-14.7h36.4c8.1 0 14.7 6.6 14.7 14.7V662z m0-107.4c0 8.1-6.6 14.7-14.7 14.7h-36.4c-8.1 0-14.7-6.6-14.7-14.7v-36.4c0-8.1 6.6-14.7 14.7-14.7h36.4c8.1 0 14.7 6.6 14.7 14.7v36.4z m0-107.4c0 8.1-6.6 14.7-14.7 14.7h-36.4c-8.1 0-14.7-6.6-14.7-14.7v-36.4c0-8.1 6.6-14.7 14.7-14.7h36.4c8.1 0 14.7 6.6 14.7 14.7v36.4z m0-107.4c0 8.1-6.6 14.7-14.7 14.7h-36.4c-8.1 0-14.7-6.6-14.7-14.7v-36.4c0-8.1 6.6-14.7 14.7-14.7h36.4c8.1 0 14.7 6.6 14.7 14.7v36.4z" /></svg>