<?xml version="1.0" standalone="no"?><!DOCTYPE svg PUBLIC "-//W3C//DTD SVG 1.1//EN" "http://www.w3.org/Graphics/SVG/1.1/DTD/svg11.dtd"><svg t="1529048664872" class="icon" style="" viewBox="0 0 1024 1024" version="1.1" xmlns="http://www.w3.org/2000/svg" p-id="16604" xmlns:xlink="http://www.w3.org/1999/xlink" width="200" height="200"><defs><style type="text/css"></style></defs><path d="M136.838 355.518l-0.175 0.266 363.051 209.613a23.908 23.908 0 0 0 11.958 3.215c4.314 0 8.549-1.162 12.211-3.347l360.272-207.996c11.403-6.603 15.307-21.256 8.7-32.663a23.788 23.788 0 0 0-8.931-8.831L525.03 107.659a23.886 23.886 0 0 0-25.152 0.735L139.896 316.226c-11.407 6.551-15.355 21.166-8.802 32.577a23.835 23.835 0 0 0 5.744 6.715z m376.15-199.589l311.457 180.615-312.752 180.571-312.144-180.224 313.439-180.962z m370.936 335.319l-67.551-39.173-47.749 27.568 55.825 32.376-312.756 180.566-312.144-180.219 55.944-32.298-47.725-27.555-67.871 39.188c-11.407 6.553-15.357 21.167-8.802 32.574a23.85 23.85 0 0 0 5.863 6.814l-0.151 0.254 362.91 209.529a23.904 23.904 0 0 0 24.168-0.127l360.271-208.001c11.403-6.607 15.308-21.257 8.701-32.66-2.151-3.71-5.252-6.775-8.933-8.836z m0 175.474l-67.272-39.013-47.746 27.567 55.543 32.215-312.756 180.57-312.144-180.22 55.666-32.143-47.724-27.551-67.594 39.029c-11.407 6.551-15.355 21.166-8.802 32.573a23.804 23.804 0 0 0 5.787 6.751l-0.166 0.262 362.998 209.581a23.922 23.922 0 0 0 11.958 3.22c4.314 0 8.549-1.162 12.211-3.343l360.271-208c11.404-6.607 15.308-21.262 8.701-32.661a23.753 23.753 0 0 0-8.931-8.837z" fill="#ffffff" p-id="16605"></path></svg>