<?xml version="1.0" encoding="UTF-8"?>
<svg width="48px" height="48px" viewBox="0 0 48 48" version="1.1" xmlns="http://www.w3.org/2000/svg" xmlns:xlink="http://www.w3.org/1999/xlink">
    <!-- Generator: Sketch 50.2 (55047) - http://www.bohemiancoding.com/sketch -->
    <title>Group</title>
    <desc>Created with Sketch.</desc>
    <defs>
        <rect id="path-1" x="0" y="0" width="48" height="48"></rect>
    </defs>
    <g id="Page-1" stroke="none" stroke-width="1" fill="none" fill-rule="evenodd">
        <g id="Desktop-HD-Copy" transform="translate(-1782.000000, -136.000000)">
            <g id="Group-4-Copy-3" transform="translate(1480.000000, 100.000000)">
                <g id="Group_export" transform="translate(302.000000, 36.000000)">
                    <g id="Group">
                        <mask id="mask-2" fill="white">
                            <use xlink:href="#path-1"></use>
                        </mask>
                        <g id="Mask"></g>
                        <g mask="url(#mask-2)" fill="#FFFFFF">
                            <g transform="translate(3.000000, 4.000000)">
                                <path d="M26.8451155,8.47174081 L32.1223437,8.47174081 L32.1223437,22.6946974 L15.2964055,39.5600211 L2.44748151,39.5600211 C1.07062571,39.5600211 0,38.4720439 0,37.0729422 L0,2.48707886 C0,1.08797713 1.07062571,0 2.44748151,0 L23.0210478,0 L23.0210478,4.58542321 C23.0210478,6.68404156 24.7035945,8.47174081 26.8451155,8.47174081 Z M5.50654691,26.6583509 L18.9674593,26.6583509 L18.9674593,21.9949752 L5.50654691,21.9949752 L5.50654691,26.6583509 Z M5.50654691,17.7204711 L27.2274481,17.7204711 L27.2274481,13.057164 L5.50654691,13.057164 L5.50654691,17.7204711 Z" id="Combined-Shape"></path>
                                <path d="M40,26.96927 C40,26.6583509 39.9233582,26.3474317 39.8470535,26.0367181 C39.6173978,25.5703737 39.3880791,25.1815707 39.0057464,24.7930417 C38.699786,24.4821226 38.3938255,24.1712035 38.0114929,24.0157097 C37.7055324,23.8605584 37.3231998,23.7050646 36.9405976,23.7050646 C36.4816906,23.6272492 36.0229858,23.7826745 35.7170253,24.1712035 L35.1051044,24.7154318 C34.8757857,24.9485355 34.7227718,25.1039608 34.4931835,25.2594546 L38.4704673,29.1454297 C38.6231442,29.0678198 38.699786,28.9900044 38.7761581,28.8345106 L39.0821186,28.4459816 L39.541093,27.9796372 C39.8470535,27.7465335 40,27.357799 40,26.96927 Z" id="Path"></path>
                                <path d="M28.3746482,31.2440481 L23.4033805,36.2958842 C23.09742,36.6068033 22.8681013,36.9177224 22.638513,37.3062514 L22.4091269,38.0056995 L22.0267943,39.0939507 L21.7208338,40.1818593 C21.5678873,40.5703883 21.4912455,40.8813074 21.4912455,41.0368012 C21.4148734,41.2701104 21.4148734,41.5807555 21.5678873,41.8140647 C21.7208338,41.9695585 21.9502199,42.0471684 22.3327548,41.9695585 C22.638513,41.8916746 22.8681013,41.8140647 23.1740618,41.7362493 C23.5563944,41.6586394 23.938727,41.5807555 24.3212619,41.4253302 C24.7035945,41.3477203 25.0859271,41.1922265 25.5449015,41.0368012 L26.5391551,40.5703883 L27.0744342,40.2594692 L27.6100504,39.8709402 L30.7457576,36.6844132 L32.4283042,35.0522078 L36.9405976,30.5443259 L33.0402251,26.6583509 L28.3746482,31.2440481 Z" id="Path"></path>
                                <path d="M25,0 L25,3 C25,4.61545763 26.3371129,6 28.0674087,6 L32,6 L25,0 Z" id="Fill-2"></path>
                            </g>
                        </g>
                    </g>
                </g>
            </g>
        </g>
    </g>
</svg>