<?xml version="1.0" standalone="no"?><!DOCTYPE svg PUBLIC "-//W3C//DTD SVG 1.1//EN" "http://www.w3.org/Graphics/SVG/1.1/DTD/svg11.dtd"><svg t="1529048596861" class="icon" style="" viewBox="0 0 1024 1024" version="1.1" xmlns="http://www.w3.org/2000/svg" p-id="15465" xmlns:xlink="http://www.w3.org/1999/xlink" width="200" height="200"><defs><style type="text/css"></style></defs><path d="M924.085 241.386c-8.356 10.897-20.553 9.35-26-2.407-6.509-14.024-20.603-13.741-31.733-13.614-13.935 0.163-19.796-6.743-25.999-15.659-7.228-10.426-14.691-20.708-21.954-31.137-6.638-9.497-15.014-15.411-27.87-13.307-2.462 0.393-5.198 0-6.364-2.841h-9.385c-4.515 5.789-11.365 5.001-17.785 6.294-8.612 1.724-20.392 9.53-14.423 15.478 10.051 10.013 3.616 16.092 0.668 24.077-1.995 5.395-5.051 10.822-5.342 16.324-0.846 16.074-6.256 21.54-22.942 20.371-2.947-0.197-6.253-2.354-7.782 1.242-4.516 10.697-10.538 21.068-10.342 33.047 0.086 5.823 3.234 7.763 8.993 4.705 8.593-4.601 18.516-1.793 28.006-5.211 10.505-3.791 17.986 6.505 23.863 14.274 3.361 4.423-0.519 5.788-4.838 5.861-19.976 0.36-34.832 8.56-44.553 25.387-2.412 4.173-6.435 7.682-12.678 7.136-2.785-0.249-6.923-1.274-8.018 2.444-4.62 15.805-14.975 12.249-26.091 7.498-4.423-1.905-9.474-2.588-12.713 1.694-2.894 3.811-4.942 8.483-2.515 13.342 1.923 3.845 4.422 7.404 6.814 11.362-4.601 2.768-10.515 2.393-13.323 7.156-9.494 16.147-25.121 19.67-42.899 18.605-8.921-0.521-18.381-0.698-25.269 4.947-16.374 13.447-33.098 8.234-50.052 2.373-13.597-4.711-24.097-16.902-41.176-13.432-18.144 3.687-35.513-3.286-53.203-5.737-2.662-0.375-4.513-0.717-5.485-3.813-4.705-14.937-13.881-26.464-27.259-36.044-8.61-6.171-16.179-10.897-27.491-10.737-19.238 0.289-21.231-3.485-12.64-20.17 7.609-14.76-0.396-35.328-16.593-41.892-7.465-3.023-12.066-8.884-12.373-15.574-0.572-12.565-13.685-9.24-14.905-7.408-5.158 7.716-13.483 8.22-20.549 11.692-2.249 1.112-3.582 4.62-4.549 7.3-6.478 17.509-6.674 18.034-24.741 9.025-8.668-4.317-13.293-4.188-17.355 5.072-6.761 15.352-14.872 29.557-37.327 22.761-4.009-1.225-11.668-0.757-10.553 4.927 3.159 16.289 1.346 29.558-9.891 43.903-5.341 6.834-8.202 9.569-16.418 10.463-16.597 1.782-34.36 0.452-47.752 13.162-2.464 2.339-6.512 2.229-8.51-0.033-9.22-10.412-19.597-2.807-28.462-0.794-8.845 2.017-10.482 11.979-13.735 19.563-1.491 3.452 0.738 4.37 2.498 5.575 14.634 10.033 15.555 22.368 1.583 35.314 9.779 0.5 15.968 8.163 15.048 13.825-2.287 14.005 8.543 18.211 16.595 23.751 6.043 4.134 7.68 8.34 9.961 14.633 3.149 8.701 5.791 15.786 4.804 25.893-1.419 14.582 1.169 14.813-9.942 21.232-0.434 0.25-0.683 0.736-1.025 1.112-3.182 3.633 0.302 29.274 5.407 30.511 15.607 3.776 17.552 29.952 40.204 21.562 3.003-1.137 3.042 3.233 4.64 4.869 15.915 16.434 31.339 33.298 49.014 48.115 11.546 9.635 25.963 11.58 40.112 11.436 10.793-0.113 16.956 2.195 18.374 12.617 9.569-1.543 10.128-14.851 21.075-14.51 12.787 0.4 31.45 15.661 34.395 29.257 1.222 5.645 4.534 5.212 8.667 5.678 17.711 2.018 29.382-10.279 42.957-17.166 10.554-5.342 19.345-6.925 29.216-0.92 5.573 3.384 9.963 6.532 15.159-1.222 4.601-6.869 10.283-7.696 11.648 2.482 0.525 3.917 3.31 5.861 5.448 8.557 7.431 9.402 5.453 31.141-3.846 38.369-10.79 8.378-17.964 17.797-13.538 32.47 12.046-5.105 22.903-7.571 22.817 10.878 0 1.996 1.583 6.884 6.796 6.649 3.023-0.143 4.672 1.37 3.436 4.679-2.213 5.86-11.669 12.958 3.233 16.053 7.175 1.493 10.067 12.75 20.029 8.452 3.903-1.689 6.993-1.617 8.617 2.498 1.563 4.048 4.113 8.018 8.721 6.202 5.501-2.154-0.414-7.156 1.221-11.217 1.815-4.462-3.869-12.263 3.038-14.207 9.33-2.59 20.356-4.889 29.233-2.551 5.9 1.565 10.755 1.522 15.088 0.495-19.096-29.063-30.298-63.43-30.298-100.388 0-103.816 87.187-187.958 194.763-187.958 33.817 0 65.608 8.346 93.318 22.981 8.724-12.066 16.721-24.814 33.262-29.382 4.767-1.328 4.817-4.456 4.817-7.984 0-3.305-2.374-4.023-5.14-4.010-15.266 0.144-32.329-7.19-42.953 10.915-3.888 6.616-10.716 3.417-10.483-2.14 0.465-12.1-6.334-12.606-15.554-11.883-5.264 0.395-9.368-1.402-9.892-6.979-0.249-2.662-1.38-6.363 2.715-7.44 21.706-5.645 30.249-23.557 40.78-39.428 3.487-5.252 8.467-6.979 12.978-4.692 3.835 1.94 7.41 6.401 3.743 12.186-2.285 3.635-3.957 8.023-4.366 12.21-0.523 5.23-1.224 14.148 1.203 15.212 6.163 2.715 8.771-3.955 11.797-8.504 2.982-4.547 6.792-8.74 12.188-11.005 20.787-8.735 30.636-26.825 41.645-43.867 2.858-4.423 4.169-8.956 10.803-3.095 6.617 5.862 16.259-1.94 15.139-3.811-5.214-8.61 3.008-9.496 6.474-11.758 7.911-5.143 11.541-13.379 21.886-18.052 15.335-6.905 3.902-22.387-0.053-33.713-4.030-11.492-2.108-18.716 11.72-18.808 5.773-0.018 7.965-3.253 11.098-6.183v-68.164c-10.55 6.453-20.938 12.474-28.778 22.687v0zM746.658 512.21v145.762h147.29c0.001 0 0.001-145.762-147.29-145.762v0zM717.187 541.356h-6.456c-2.89-0.375-5.767-0.862-8.774-0.862-3.002 0-5.791 0.717-8.754 0.862h-5.471v0.558c-82.916 7.248-148.171 75.351-148.171 159.28 0 88.747 72.711 160.699 162.398 160.699 84.473 0 153.081-64.040 160.87-145.629h1.654v-29.146h-147.294v-145.762zM832.010 716.263c-7.626 64.721-62.59 115.137-130.030 115.137-72.678 0-131.583-58.289-131.583-130.207 0-67.063 51.458-121.652 117.335-128.77v143.832l144.278 0.008zM832.010 716.263z" p-id="15466" fill="#ffffff"></path></svg>