<?xml version="1.0" standalone="no"?><!DOCTYPE svg PUBLIC "-//W3C//DTD SVG 1.1//EN" "http://www.w3.org/Graphics/SVG/1.1/DTD/svg11.dtd"><svg class="icon" width="200px" height="200.00px" viewBox="0 0 1024 1024" version="1.1" xmlns="http://www.w3.org/2000/svg"><path fill="#ffffff" d="M256 232.727h512c12.853 0 23.273-10.42 23.273-23.273S780.854 186.181 768 186.181H256c-12.853 0-23.273 10.42-23.273 23.273 0 12.854 10.42 23.273 23.273 23.273zM349.091 139.636h325.818c12.853 0 23.273-10.42 23.273-23.273s-10.42-23.273-23.273-23.273H349.091c-12.853 0-23.273 10.42-23.273 23.273 0 12.854 10.42 23.273 23.273 23.273zM209.455 325.818h605.091c12.853 0 23.273-10.42 23.273-23.273s-10.419-23.273-23.273-23.273H209.455c-12.853 0-23.273 10.42-23.273 23.273 0 12.854 10.419 23.273 23.273 23.273zM116.364 418.909h791.273c12.853 0 23.272-10.42 23.272-23.273s-10.419-23.273-23.272-23.273H116.364c-12.853 0-23.273 10.42-23.273 23.273 0 12.854 10.42 23.273 23.273 23.273zM945.715 465.455H78.286c-17.53 0-31.74 14.21-31.74 31.74v401.974c0 17.53 14.21 31.74 31.74 31.74h867.429c17.529 0 31.74-14.21 31.74-31.74V497.195c-0.001-17.53-14.211-31.74-31.74-31.74z m-14.806 418.909H93.091V512h837.818v372.364zM558.546 791.273c51.413 0 93.091-41.678 93.091-93.091s-41.678-93.091-93.091-93.091-93.091 41.678-93.091 93.091 41.678 93.091 93.091 93.091z m0-139.637c25.665 0 46.546 20.88 46.546 46.546s-20.88 46.545-46.546 46.545S512 723.847 512 698.182s20.88-46.546 46.546-46.546zM791.273 791.273c51.413 0 93.091-41.678 93.091-93.091s-41.678-93.091-93.091-93.091-93.091 41.678-93.091 93.091 41.678 93.091 93.091 93.091z m0-139.637c25.665 0 46.545 20.88 46.545 46.546s-20.88 46.545-46.545 46.545-46.545-20.88-46.545-46.545 20.88-46.546 46.545-46.546zM209.455 791.273c12.853 0 23.273-10.42 23.273-23.273V628.364c0-12.853-10.42-23.273-23.273-23.273s-23.273 10.42-23.273 23.273V768c0 12.853 10.419 23.273 23.273 23.273zM349.091 791.273c12.853 0 23.273-10.42 23.273-23.273V628.364c0-12.853-10.419-23.273-23.273-23.273-12.853 0-23.273 10.42-23.273 23.273V768c0 12.853 10.42 23.273 23.273 23.273z" /></svg>