<?xml version="1.0" standalone="no"?><!DOCTYPE svg PUBLIC "-//W3C//DTD SVG 1.1//EN" "http://www.w3.org/Graphics/SVG/1.1/DTD/svg11.dtd"><svg t="1529048342181" class="icon" style="" viewBox="0 0 1024 1024" version="1.1" xmlns="http://www.w3.org/2000/svg" p-id="11494" xmlns:xlink="http://www.w3.org/1999/xlink" width="200" height="200"><defs><style type="text/css"></style></defs><path d="M839.111111 229.587302l-1.828571-1.219048c-1.219048-0.609524-2.234921-1.219048-3.453969-1.625397-2.031746-1.015873-3.860317-2.031746-6.095238-2.844444-0.203175-0.203175-0.609524-0.203175-1.015873-0.40635-9.752381-3.860317-19.707937-6.501587-30.069841-7.51746-0.609524 0-1.422222 0-2.031746-0.203174-2.844444-0.203175-5.892063-0.406349-8.939683-0.40635h-126.780952V177.371429c0-17.066667-14.019048-31.085714-31.085714-31.085715H396.190476c-17.066667 0-31.085714 14.019048-31.085714 31.085715V215.365079h-126.780952C178.590476 215.365079 130.031746 263.720635 130.031746 323.453968v446.374603c0 40.228571 22.146032 75.174603 54.857143 93.866667l1.828571 1.219048c0.812698 0.406349 1.828571 0.812698 2.844445 1.422222 11.580952 5.892063 24.177778 9.752381 37.790476 11.174603h2.031746c3.047619 0.203175 5.892063 0.406349 8.939683 0.406349h547.35238c59.733333 0 108.292063-48.355556 108.292064-107.885714V323.453968c0-40.228571-22.146032-75.174603-54.857143-93.866666z m-412.24127-4.469842c0-5.28254 7.111111-9.549206 16.050794-9.549206h138.15873c8.939683 0 16.050794 4.266667 16.050794 9.549206v16.457143c0 5.28254-7.111111 9.549206-16.050794 9.549207h-138.15873c-8.939683 0-16.050794-4.266667-16.050794-9.549207v-16.457143z m-32.507936 151.161905c56.48254 0 102.4 47.339683 102.4 105.853968s-45.91746 105.853968-102.4 105.853969c-56.48254 0-102.4-47.339683-102.4-105.853969 0.203175-58.514286 45.91746-105.853968 102.4-105.853968z m-158.476191 375.873016c0-90.615873 70.907937-163.961905 158.476191-163.961905h1.625397c87.568254 0 158.47619 73.346032 158.47619 163.961905H235.885714z m574.171429-237.307937h-160.711111c-9.142857 0-16.660317-7.51746-16.660318-16.660317 0-9.142857 7.314286-16.660317 16.660318-16.660317h160.711111c9.142857 0 16.660317 7.51746 16.660317 16.660317-0.203175 9.346032-7.51746 16.660317-16.660317 16.660317z m0-104.838095h-160.711111c-9.142857 0-16.660317-7.314286-16.660318-16.457143s7.314286-16.457143 16.660318-16.457143h160.711111c9.142857 0 16.660317 7.314286 16.660317 16.457143-0.203175 9.142857-7.51746 16.457143-16.660317 16.457143z m0 0" fill="#ffffff" p-id="11495"></path></svg>