<?xml version="1.0" standalone="no"?><!DOCTYPE svg PUBLIC "-//W3C//DTD SVG 1.1//EN" "http://www.w3.org/Graphics/SVG/1.1/DTD/svg11.dtd"><svg t="1529048199743" class="icon" style="" viewBox="0 0 1164 1024" version="1.1" xmlns="http://www.w3.org/2000/svg" p-id="8613" xmlns:xlink="http://www.w3.org/1999/xlink" width="227.34375" height="200"><defs><style type="text/css"></style></defs><path d="M1010.57978516 933.875h-191.76152344c-21.18164063 0-38.35195312-17.1703125-38.35195313-38.35195312v-191.76152344c0-21.18164063 17.1703125-38.35195312 38.35195313-38.35195313h76.70478515v-153.40957031h-306.81826171v153.40957031h76.70478515c21.18164063 0 38.35195312 17.1703125 38.35195313 38.35195313v191.76152343c0 21.18164063-17.1703125 38.35195312-38.35195313 38.35195313h-191.76152343c-21.18164063 0-38.35195312-17.1703125-38.35195313-38.35195313v-191.76152343c0-21.18164063 17.1703125-38.35195312 38.35195313-38.35195313h76.70478515v-153.40957031h-306.81826172v153.40957031h76.70478516c21.18164063 0 38.35195312 17.1703125 38.35195312 38.35195313v191.76152343c0 21.18164063-17.1703125 38.35195312-38.35195312 38.35195313h-191.76152344c-21.18164063 0-38.35195312-17.1703125-38.35195312-38.35195313v-191.76152343c0-21.18164063 17.1703125-38.35195312 38.35195312-38.35195313h76.70478516v-153.41044922c0-21.17988281 17.1703125-38.35019531 38.35195312-38.35019531h306.81826172v-115.05673828h-76.70478515c-21.18164063 0-38.35195312-17.1703125-38.35195313-38.35195312v-191.76152344c0-21.18164063 17.1703125-38.35195312 38.35195313-38.35195313h191.76152343c21.18164063 0 38.35195312 17.1703125 38.35195313 38.35195313v191.76152344c0 21.18164063-17.1703125 38.35195312-38.35195313 38.35195312h-76.70478515v115.05673828h306.81826172c21.17988281 0 38.35195312 17.1703125 38.35195312 38.35019531v153.41132813h76.70478516c21.18164063 0 38.35195312 17.1703125 38.35195312 38.35195312v191.76152344c0 21.18164063-17.1703125 38.35195312-38.35195312 38.35195313zM128.47695313 703.76152344v191.76152343h191.76152343v-191.76152343h-191.76152344zM665.40957031 320.23847656v-191.76152343h-191.76152343v191.76152343h191.76152343zM473.64804688 703.76152344v191.76152343h191.76152343v-191.76152343h-191.76152344zM1010.57978516 703.76152344h-191.76152344v191.76152343h191.76152344v-191.76152343z" p-id="8614" fill="#ffffff"></path></svg>