<?xml version="1.0" standalone="no"?><!DOCTYPE svg PUBLIC "-//W3C//DTD SVG 1.1//EN" "http://www.w3.org/Graphics/SVG/1.1/DTD/svg11.dtd"><svg t="1529048642680" class="icon" style="" viewBox="0 0 1026 1024" version="1.1" xmlns="http://www.w3.org/2000/svg" p-id="15824" xmlns:xlink="http://www.w3.org/1999/xlink" width="200.390625" height="200"><defs><style type="text/css"></style></defs><path d="M744.047983 228.506321c-149.412938 0-271.63356 117.269867-280.267195 264.571724l-0.818645 0 0 16.513092 0 33.090653c0 100.304474-81.573877 181.87835-181.87835 181.87835s-181.87835-81.5749-181.87835-181.87835c0-100.261495 81.573877-181.857884 181.856861-181.857884l0 82.651418 198.434421-132.275629L281.063327 178.924065l0 82.693374c-155.0094 0-281.063327 126.096906-281.063327 281.06435 0 154.98791 126.096906 281.084816 281.084816 281.084816 149.411915 0 271.63356-117.268844 280.245705-264.550235l0.839111 0 0-16.533558 0-33.090653c0-100.282984 81.573877-181.856861 181.87835-181.856861 100.304474 0 181.87835 81.573877 181.87835 181.856861 0 100.261495-81.5749 181.856861-181.87835 181.856861l0-82.671884L545.635051 741.05072l198.412932 132.275629 0-82.671884c154.98791 0 281.084816-126.053927 281.084816-281.063327C1025.1328 354.623693 899.035894 228.506321 744.047983 228.506321" p-id="15825" fill="#ffffff"></path></svg>