<?xml version="1.0" standalone="no"?><!DOCTYPE svg PUBLIC "-//W3C//DTD SVG 1.1//EN" "http://www.w3.org/Graphics/SVG/1.1/DTD/svg11.dtd"><svg t="1529047828731" class="icon" style="" viewBox="0 0 1026 1024" version="1.1" xmlns="http://www.w3.org/2000/svg" p-id="3310" xmlns:xlink="http://www.w3.org/1999/xlink" width="200.390625" height="200"><defs><style type="text/css"></style></defs><path d="M1008.20992 652.544h-243.28704l71.84896-76.00128c7.0912-7.5008 6.89152-19.44576-0.45056-26.68032a18.19136 18.19136 0 0 0-26.12224 0.45568l-102.0928 107.98592c-0.75776 0.80896-1.13152 1.8176-1.7152 2.71872-0.7168 1.0752-1.5616 2.02752-2.048 3.2512a19.2 19.2 0 0 0-1.41312 7.1424c0 2.432 0.50176 4.84864 1.41312 7.1424 0.51712 1.28 1.39776 2.29888 2.16576 3.41504 0.5632 0.84992 0.89088 1.80736 1.6128 2.57024l102.08256 107.98592a18.21184 18.21184 0 0 0 26.12224 0.4608 19.15904 19.15904 0 0 0 0.45056-26.68032L764.928 690.29376h243.28704c10.19392 0 18.46784-8.448 18.46784-18.87232-0.00512-10.42432-8.27904-18.87744-18.47296-18.87744zM628.74624 534.51776c11.16672 0 20.23424-9.26208 20.23424-20.69504 0-11.4432-9.06752-20.72064-20.23424-20.72064h-128.1536v-24.95488c0.98304-1.75616 1.6896-3.5072 2.14528-5.41696l118.8352-126.80192a21.05856 21.05856 0 0 0 0-29.28128 19.9168 19.9168 0 0 0-28.6208 0l-112.5888 121.29792-112.6144-121.28768a19.9168 19.9168 0 0 0-28.61568 0 21.04832 21.04832 0 0 0 0 29.28128L457.984 462.74048c0.45056 1.90464 1.152 3.66592 2.13504 5.4016v24.96H331.97056c-11.17184 0-20.22912 9.27744-20.22912 20.7104 0 11.4432 9.0624 20.70528 20.22912 20.70528h128.15872v47.56992H331.97056c-11.17184 0-20.22912 9.26208-20.22912 20.69504 0 11.45344 9.0624 20.70528 20.22912 20.70528h128.15872v88.2432c0 11.44832 9.0624 20.69504 20.22912 20.69504 11.17184 0 20.23936-9.24672 20.23936-20.69504v-88.2432h128.1536c11.16672 0 20.23424-9.25184 20.23424-20.70528 0-11.42784-9.06752-20.69504-20.23424-20.69504h-128.1536v-47.58016h128.1536v0.01024z" fill="#ffffff" p-id="3311"></path><path d="M474.94656 948.80256c-238.39232 0-432.32256-194.37056-432.32256-433.30048 0-238.92992 193.95584-433.32608 432.32256-433.32608 229.28384 0 417.36192 179.87584 431.3856 406.21056h41.25184a471.84896 471.84896 0 0 0-36.4032-157.61408c-23.82848-56.5248-57.96352-107.264-101.4272-150.85056-43.50464-43.5456-94.11072-77.76256-150.5024-101.65248C600.8576 53.51936 538.86464 40.96 474.94656 40.96 411.0336 40.96 349.0304 53.51936 290.6624 78.26432 234.24 102.15424 183.60832 136.3712 140.12416 179.9168c-43.44832 43.61216-77.56288 94.33088-101.4272 150.85056C14.03392 389.2992 1.4848 451.43552 1.4848 515.50208c0 64.05632 12.54912 126.19264 37.21728 184.69376a473.3184 473.3184 0 0 0 101.4272 150.84544c43.51488 43.59168 94.11584 77.77792 150.53312 101.6576 58.37312 24.76544 120.3712 37.33504 184.28928 37.33504 63.91808 0 125.91104-12.5696 184.30976-37.33504 54.87616-23.2448 104.2432-56.32512 146.93376-98.24256h-62.39744c-73.87136 58.97728-167.28576 94.34624-268.8512 94.34624z" fill="#ffffff" p-id="3312"></path></svg>