<?xml version="1.0" standalone="no"?><!DOCTYPE svg PUBLIC "-//W3C//DTD SVG 1.1//EN" "http://www.w3.org/Graphics/SVG/1.1/DTD/svg11.dtd"><svg t="1529047975959" class="icon" style="" viewBox="0 0 1024 1024" version="1.1" xmlns="http://www.w3.org/2000/svg" p-id="6308" xmlns:xlink="http://www.w3.org/1999/xlink" width="200" height="200"><defs><style type="text/css"></style></defs><path d="M0 64l0 832 960 0L960 64 0 64zM896 832 64 832 64 128l832 0L896 832zM832 192 128 192l0 448 704 0L832 192zM768 576 192 576 192 256l576 0L768 576zM256 704 128 704l0 64 128 0L256 704zM320 768l128 0 0-64L320 704 320 768zM768 768l64 0 0-64-64 0L768 768zM512 768l128 0 0-64L512 704 512 768z" p-id="6309" fill="#ffffff"></path></svg>