<?xml version="1.0" standalone="no"?><!DOCTYPE svg PUBLIC "-//W3C//DTD SVG 1.1//EN" "http://www.w3.org/Graphics/SVG/1.1/DTD/svg11.dtd"><svg class="icon" width="128px" height="128.00px" viewBox="0 0 1024 1024" version="1.1" xmlns="http://www.w3.org/2000/svg"><path fill="#ffffff" d="M538.13 855.62h-52.7c-20.49 0-24.89 4.39-24.89 24.88v54.16c0 20.5 4.39 24.89 24.89 24.89h52.7c20.5 0 24.89-4.39 24.89-24.89v-54.15c-1.46-20.51-5.85-24.89-24.89-24.89zM362.48 855.62h-52.7c-20.49 0-24.89 4.39-24.89 24.88v54.16c0 20.5 4.39 24.89 24.89 24.89h52.7c20.49 0 24.88-4.39 24.88-24.89v-54.15c-1.47-20.51-5.86-24.89-24.88-24.89zM662.42 855.62h52.7c20.49 0 24.89 4.39 24.89 24.88v54.16c0 20.5-4.39 24.89-24.89 24.89h-52.7c-20.49 0-24.88-4.39-24.88-24.89v-54.15c1.46-20.51 5.85-24.89 24.88-24.89zM362.48 667.9h-52.7c-20.49 0-24.89 4.39-24.89 24.88v52.7c0 20.49 4.39 24.88 24.89 24.88h52.7c20.49 0 24.88-4.39 24.88-24.88v-54.15c-1.47-19.04-5.86-23.43-24.88-23.43zM538.13 667.9h-52.7c-20.49 0-24.89 4.39-24.89 24.88v52.7c0 20.49 4.39 24.88 24.89 24.88h52.7c20.5 0 24.89-4.39 24.89-24.88v-54.15c-1.46-19.04-5.85-23.43-24.89-23.43zM362.48 490.78h-52.7c-20.49 0-24.89 4.39-24.89 24.88v54.16c0 20.49 4.39 24.88 24.89 24.88h52.7c20.49 0 24.88-4.39 24.88-24.88v-54.16c-1.47-21.95-5.86-24.88-24.88-24.88zM948.68 382l-419-313.65a28.7 28.7 0 0 0-34.37 0L75.53 382a28.7 28.7 0 1 0 34.35 46l40.54-30.3v533.17a28.69 28.69 0 0 0 57.38 0v-576.1l304.65-227.63 304.63 228v575.7a28.69 28.69 0 0 0 28.69 28.69 28.69 28.69 0 0 0 28.69-28.69V398.12l39.83 29.81A28.7 28.7 0 1 0 948.68 382z" /></svg>