<?xml version="1.0" standalone="no"?><!DOCTYPE svg PUBLIC "-//W3C//DTD SVG 1.1//EN" "http://www.w3.org/Graphics/SVG/1.1/DTD/svg11.dtd"><svg t="1529047748579" class="icon" style="" viewBox="0 0 1024 1024" version="1.1" xmlns="http://www.w3.org/2000/svg" p-id="1804" xmlns:xlink="http://www.w3.org/1999/xlink" width="200" height="200"><defs><style type="text/css"></style></defs><path d="M516.266667 115.2l324.266666 322.133333 110.933334 108.8c17.066667 17.066667 44.8 17.066667 59.733333 0 17.066667-17.066667 17.066667-44.8 0-59.733333L546.133333 23.466667c-8.533333-8.533333-19.2-12.8-29.866666-12.8s-21.333333 4.266667-29.866667 12.8l-113.066667 115.2V128c0-34.133333-27.733333-59.733333-59.733333-59.733333h-89.6C187.733333 68.266667 162.133333 93.866667 162.133333 128v228.266667l-149.333333 153.6c-17.066667 17.066667-17.066667 44.8 0 59.733333 8.533333 8.533333 19.2 12.8 29.866667 12.8s21.333333-4.266667 29.866666-12.8L106.666667 535.466667v398.933333c0 42.666667 34.133333 76.8 76.8 76.8H426.666667c23.466667 0 42.666667-19.2 42.666666-42.666667s-19.2-42.666667-42.666666-42.666666H192V448L516.266667 115.2zM247.466667 153.6h40.533333v74.666667l-40.533333 40.533333V153.6z" p-id="1805" fill="#ffffff"></path><path d="M868.266667 793.6c34.133333-25.6 55.466667-74.666667 55.466666-117.333333 0-59.733333-44.8-104.533333-104.533333-104.533334-51.2 0-108.8 42.666667-108.8 104.533334 0 38.4 19.2 87.466667 51.2 115.2-40.533333 4.266667-83.2 12.8-113.066667 38.4-51.2 40.533333-42.666667 142.933333-42.666666 153.6s10.666667 19.2 21.333333 19.2l369.066667 2.133333c10.666667 0 21.333333-8.533333 21.333333-21.333333 2.133333-44.8-6.4-110.933333-34.133333-147.2-23.466667-23.466667-74.666667-36.266667-115.2-42.666667z m-115.2-115.2c0-36.266667 34.133333-61.866667 66.133333-61.866667 29.866667 0 61.866667 14.933333 61.866667 61.866667 0 42.666667-29.866667 96-66.133334 96-34.133333-2.133333-61.866667-55.466667-61.866666-96z m-106.666667 283.733333c0-29.866667 4.266667-78.933333 27.733333-98.133333C714.666667 832 789.333333 832 814.933333 832c44.8 0 119.466667 12.8 136.533334 32 17.066667 19.2 23.466667 61.866667 25.6 98.133333H646.4z" p-id="1806" fill="#ffffff"></path></svg>