<?xml version="1.0" standalone="no"?><!DOCTYPE svg PUBLIC "-//W3C//DTD SVG 1.1//EN" "http://www.w3.org/Graphics/SVG/1.1/DTD/svg11.dtd"><svg class="icon" width="128px" height="128.00px" viewBox="0 0 1024 1024" version="1.1" xmlns="http://www.w3.org/2000/svg"><path fill="#ffffff" d="M916.696 207.992H336.416a30.104 30.104 0 0 1 0-60.208h580.28a30.096 30.096 0 0 1 30.104 30.104 30.096 30.096 0 0 1-30.104 30.104zM916.696 543.216H336.416c-16.624 0-30.104-13.464-30.104-30.104s13.48-30.104 30.104-30.104h580.28c16.64 0 30.104 13.464 30.104 30.104s-13.464 30.104-30.104 30.104zM916.696 878.456H336.416a30.104 30.104 0 1 1 0-60.216h580.28c16.64 0 30.104 13.464 30.104 30.104s-13.464 30.112-30.104 30.112z"  /><path fill="#ffffff" d="M215.768 207.992H113.344a30.104 30.104 0 0 1 0-60.208h102.424a30.104 30.104 0 0 1 0 60.208zM215.768 543.216H113.344c-16.624 0-30.104-13.464-30.104-30.104s13.48-30.104 30.104-30.104h102.424c16.624 0 30.104 13.464 30.104 30.104s-13.48 30.104-30.104 30.104zM215.768 878.456H113.344a30.104 30.104 0 1 1 0-60.216h102.424a30.104 30.104 0 1 1 0 60.216z"  /></svg>