<?xml version="1.0" standalone="no"?><!DOCTYPE svg PUBLIC "-//W3C//DTD SVG 1.1//EN" "http://www.w3.org/Graphics/SVG/1.1/DTD/svg11.dtd"><svg t="1529048377847" class="icon" style="" viewBox="0 0 1024 1024" version="1.1" xmlns="http://www.w3.org/2000/svg" p-id="12357" xmlns:xlink="http://www.w3.org/1999/xlink" width="200" height="200"><defs><style type="text/css"></style></defs><path d="M512.65536 1.152C230.2464 1.152 1.31072 230.08768 1.31072 512.49664s228.93568 511.34976 511.34464 511.34976S1024 794.91072 1024 512.50176 795.06432 1.152 512.65536 1.152z m0 962.30912c-249.05728 0-450.95936-201.90208-450.95936-450.95936S263.59808 61.5424 512.65536 61.5424s450.95936 201.90208 450.95936 450.95936-201.90208 450.95936-450.95936 450.95936z" p-id="12358" fill="#ffffff"></path><path d="M796.32896 698.8288l-149.95456-149.94944a18.0736 18.0736 0 0 0-25.56416 0l-19.05664 19.05664-31.88736-31.88736-8.12032-69.94944-30.91456 30.91456L353.8432 320.02048l31.83616-31.83616-113.32608-64.65536-24.33536 24.33536-24.33536 24.33536 64.65024 113.32608 31.83616-31.83616 177.23904 177.23904-32.76288 32.76288 74.12736 8.60672 29.30688 29.30688-19.05664 19.05664a18.0736 18.0736 0 0 0 0 25.56416l149.94944 149.95456a18.0736 18.0736 0 0 0 25.56416 0l71.7824-71.7824a18.0736 18.0736 0 0 0 0.01024-25.56928z m-94.31552 67.92704l-123.56608-123.56608a8.8064 8.8064 0 1 1 12.45696-12.45696l123.56608 123.56608a8.8064 8.8064 0 1 1-12.45696 12.45696z m26.22464-26.21952L604.672 616.97024a8.8064 8.8064 0 1 1 12.45696-12.45696l123.56608 123.56608a8.8064 8.8064 0 1 1-12.45696 12.45696z m26.21952-26.21952l-123.56608-123.56608a8.8064 8.8064 0 1 1 12.45696-12.45696l123.56608 123.56608a8.8064 8.8064 0 1 1-12.45696 12.45696z" p-id="12359" fill="#ffffff"></path><path d="M555.48928 399.5136l-48.128 48.128c1.60768 0.83456 3.11808 1.92 4.46464 3.27168l16.99328 16.99328 22.61504-22.61504a18.0736 18.0736 0 0 1 25.56416 0l28.45184 28.45184c1.31584 1.31584 2.38592 2.7904 3.21536 4.352l12.70272-12.70272c41.01632 15.75936 89.25696 7.10656 122.33216-25.96864 29.7216-29.7216 39.71584-71.68512 30.00832-109.65504l-79.17056 79.17056a18.0736 18.0736 0 0 1-25.56416 0L611.9424 351.90784a18.0736 18.0736 0 0 1 0-25.56416l79.17056-79.17056c-37.9648-9.70752-79.93344 0.28672-109.65504 30.00832-33.0752 33.0752-41.728 81.31584-25.96864 122.33216zM414.1312 672.63488l64.40448-64.40448a17.8944 17.8944 0 0 1-4.352-3.21536l-28.45184-28.45184a18.0736 18.0736 0 0 1 0-25.56416l22.61504-22.61504-16.99328-16.99328a18.10432 18.10432 0 0 1-3.27168-4.46464l-99.82976 99.82976c-32.40448-9.23648-68.71552-1.1008-94.22848 24.41728-37.47328 37.47328-37.47328 98.22208 0 135.69536s98.22208 37.47328 135.69536 0c25.51296-25.5232 33.64352-61.83424 24.41216-94.2336z m-129.95584 64.07168c-22.44608-22.44608-22.44608-58.83904 0-81.28512s58.83904-22.44608 81.28512 0 22.44608 58.83904 0 81.28512c-22.44608 22.44608-58.83904 22.44608-81.28512 0z" p-id="12360" fill="#ffffff"></path></svg>