<?xml version="1.0" standalone="no"?><!DOCTYPE svg PUBLIC "-//W3C//DTD SVG 1.1//EN" "http://www.w3.org/Graphics/SVG/1.1/DTD/svg11.dtd"><svg t="1529047878648" class="icon" style="" viewBox="0 0 1024 1024" version="1.1" xmlns="http://www.w3.org/2000/svg" p-id="4370" xmlns:xlink="http://www.w3.org/1999/xlink" width="200" height="200"><defs><style type="text/css"></style></defs><path d="M981.287622 1020.562531a115.26491 115.26491 0 0 1-23.916006 3.437469H68.237412c-34.082137 0-59.680309-20.478537-66.555246-49.44104 0-3.437469-1.682166-8.557103-1.682166-11.921434V432.535962c0-34.082137 29.03564-63.117777 64.799943-61.435612h62.825227l311.858867-277.77673c6.8018-6.8018 10.239269-10.239269 8.483965-20.478538-6.8018-32.399971 15.358903-64.726805 51.196343-71.601742a66.994072 66.994072 0 0 1 76.794515 47.758874c1.682166 10.239269 1.682166 20.478537-1.755303 30.717806-1.682166 3.364331 0 5.119634 3.437469 8.483965a36079.525748 36079.525748 0 0 0 276.460252 247.2052c11.921434 10.239269 23.842868 22.087565 37.519606 32.326834 1.682166 1.682166 5.119634 3.437469 8.483966 3.437469h67.506035c34.155275 5.119634 56.315977 30.717806 56.315977 64.726805v521.617599c0 30.717806-15.358903 54.487537-42.63924 63.044639zM535.001786 120.603957c-15.358903 5.119634-30.717806 5.119634-46.076709 0-3.437469-1.755303-265.928434 242.085565-276.167703 250.569531h600.167417c-181.893293-167.046354-274.485537-250.569531-277.923005-250.569531zM66.555246 434.218127v528.419399h892.571674V434.218127H66.555246z m234.698664 310.176702a46.222984 46.222984 0 0 1-47.758874-46.003571c0-25.598172 22.160703-46.003571 49.44104-46.003571 27.353475 0 47.758874 20.478537 47.758874 46.076708a48.855939 48.855939 0 0 1-49.44104 45.930434z m423.101207 0c-27.280337 0-49.44104-20.478537-49.441039-47.685737 0-25.598172 22.160703-46.076709 49.441039-46.076709 27.353475 0 49.514178 20.478537 47.832012 47.758875 0 25.598172-20.478537 46.076709-47.832012 46.076709z m-211.514034 0a46.222984 46.222984 0 0 1-47.832012-46.003571c0-25.598172 22.23384-46.003571 49.514177-46.003571 27.280337 0 49.514178 20.478537 47.758875 47.758874-1.682166 23.842868-23.842868 44.248268-49.44104 44.248268z" fill="#ffffff" p-id="4371"></path></svg>