<?xml version="1.0" standalone="no"?><!DOCTYPE svg PUBLIC "-//W3C//DTD SVG 1.1//EN" "http://www.w3.org/Graphics/SVG/1.1/DTD/svg11.dtd"><svg class="icon" width="200px" height="200.00px" viewBox="0 0 1024 1024" version="1.1" xmlns="http://www.w3.org/2000/svg"><path fill="#ffffff" d="M727.04 486.4c0-117.76-97.28-209.92-215.04-209.92-117.76 0-215.04 97.28-215.04 209.92 0 117.76 97.28 215.04 215.04 215.04 117.76 0 215.04-97.28 215.04-215.04z m-363.52 0c0-81.92 66.56-148.48 148.48-148.48s148.48 66.56 148.48 148.48c0 81.92-66.56 148.48-148.48 148.48-81.92 0-148.48-66.56-148.48-148.48z"  /><path fill="#ffffff" d="M788.48 947.2h-76.8l-56.32-143.36c158.72-56.32 266.24-209.92 266.24-384 0-225.28-184.32-409.6-409.6-409.6s-409.6 184.32-409.6 409.6c0 174.08 107.52 322.56 261.12 378.88l-56.32 143.36h-56.32c-15.36 0-30.72 15.36-30.72 30.72s15.36 30.72 30.72 30.72h537.6c15.36 0 30.72-15.36 30.72-30.72 0-10.24-15.36-25.6-30.72-25.6z m-624.64-527.36c0-189.44 153.6-348.16 348.16-348.16s348.16 153.6 348.16 348.16-153.6 348.16-348.16 348.16-348.16-153.6-348.16-348.16z m209.92 527.36l46.08-122.88V819.2c30.72 5.12 56.32 10.24 87.04 10.24 25.6 0 56.32-5.12 81.92-10.24v5.12l46.08 122.88h-261.12z"  /><path fill="#ffffff" d="M512 194.56m-51.2 0a51.2 51.2 0 1 0 102.4 0 51.2 51.2 0 1 0-102.4 0Z"  /></svg>