<?xml version="1.0" standalone="no"?><!DOCTYPE svg PUBLIC "-//W3C//DTD SVG 1.1//EN" "http://www.w3.org/Graphics/SVG/1.1/DTD/svg11.dtd"><svg class="icon" width="128px" height="128.00px" viewBox="0 0 1024 1024" version="1.1" xmlns="http://www.w3.org/2000/svg"><path fill="#ffffff" d="M864.624503 856.673916a35.276555 35.276555 0 0 1-14.698564-59.833551 172.864028 172.864028 0 0 0 47.510512-120.557923c0-72.008119-45.41708-115.955343-101.44979-115.955343s-101.434943 43.947223-101.434943 115.955343a173.576686 173.576686 0 0 0 47.228418 120.409453h-0.178164a35.291402 35.291402 0 0 1-14.728259 60.130492c-94.308366 18.113383-141.611019 70.226475-141.611019 109.274177 0 47.955923 82.683138 57.903436 210.723967 57.903436s210.753661-9.947513 210.753661-57.903436c0-39.047702-47.5699-91.309265-142.115819-109.422648zM610.101783 341.927215H255.777294v-89.23068h354.324489v89.23068z m0 193.753806H255.777294v-89.379151h354.324489v89.379151z m-133.623314 191.52675H255.777294v-89.23068h220.701175v89.23068z m0.831434 179.055242H106.653676V89.37915h652.586573V475.105118h89.260374V76.31376A76.298913 76.298913 0 0 0 772.231405 0.14847h-678.509497A76.284066 76.284066 0 0 0 17.467537 76.31376v843.014644a76.284066 76.284066 0 0 0 76.254371 76.165289h383.647383v-89.23068z"  /></svg>