<?xml version="1.0" standalone="no"?><!DOCTYPE svg PUBLIC "-//W3C//DTD SVG 1.1//EN" "http://www.w3.org/Graphics/SVG/1.1/DTD/svg11.dtd"><svg t="1534234014986" class="icon" style="" viewBox="0 0 1024 1024" version="1.1" xmlns="http://www.w3.org/2000/svg" p-id="2519" xmlns:xlink="http://www.w3.org/1999/xlink" width="200" height="200"><defs><style type="text/css"></style></defs><path d="M896 801.9H158V223c0-16.6-13.4-30-30-30s-30 13.4-30 30v609c0 16.6 13.4 30 30 30 0.7 0 1.4 0 2.1-0.1H896c16.6 0 30-13.4 30-30s-13.4-30-30-30z" p-id="2520"></path><path d="M256 670c10.4 0 20.1-5.4 25.6-14.3l98.6-160.4 175.3 166.5 0.4 0.4 0.1 0.1c0.3 0.3 0.7 0.6 1 0.9 0.4 0.3 0.7 0.6 1.1 0.9h0.1c0.4 0.3 0.7 0.5 1.1 0.8 0 0 0.1 0 0.1 0.1 0.4 0.2 0.7 0.5 1.1 0.7 0.1 0 0.1 0.1 0.2 0.1 0.3 0.2 0.7 0.4 1 0.6 0.1 0 0.2 0.1 0.3 0.1 0.3 0.2 0.6 0.3 1 0.5 0.1 0.1 0.2 0.1 0.4 0.2 0.3 0.1 0.6 0.3 0.9 0.4 0.1 0.1 0.3 0.1 0.4 0.2l0.9 0.3c0.2 0.1 0.3 0.1 0.5 0.2 0.3 0.1 0.5 0.2 0.8 0.3 0.2 0.1 0.4 0.1 0.6 0.2 0.3 0.1 0.6 0.2 0.8 0.2 0.2 0.1 0.4 0.1 0.6 0.2 0.3 0.1 0.6 0.1 0.9 0.2 0.2 0 0.4 0.1 0.6 0.1 0.3 0.1 0.6 0.1 0.9 0.2 0.2 0 0.3 0.1 0.5 0.1 0.4 0.1 0.7 0.1 1.1 0.1h0.4c0.4 0 0.8 0.1 1.2 0.1H577.9c0.3 0 0.6 0 0.9-0.1 0.2 0 0.4 0 0.7-0.1 0.4 0 0.8-0.1 1.1-0.1 0.1 0 0.2 0 0.4-0.1 8.2-1.3 15.6-6 20.3-13l255.9-384c9.2-13.8 5.4-32.5-8.4-41.6s-32.5-5.4-41.6 8.4L570.9 593.7 395.7 427.3c-1.1-1.1-2.3-2.2-3.6-3.2-12.1-9.5-29.7-8.2-40.4 3.3-2.4 2.6-4.3 5.6-5.7 8.7L230.5 624.3c-2.9 4.7-4.4 10.1-4.4 15.7-0.1 16.5 13.3 30 29.9 30z" p-id="2521"></path></svg>