<?xml version="1.0" standalone="no"?><!DOCTYPE svg PUBLIC "-//W3C//DTD SVG 1.1//EN" "http://www.w3.org/Graphics/SVG/1.1/DTD/svg11.dtd"><svg t="1529048319130" class="icon" style="" viewBox="0 0 1153 1024" version="1.1" xmlns="http://www.w3.org/2000/svg" p-id="11338" xmlns:xlink="http://www.w3.org/1999/xlink" width="225.1953125" height="200"><defs><style type="text/css"></style></defs><path d="M1098.56 320c24 0 39.488 3.968 46.464 12.032 7.04 8 9.536 21.952 7.552 41.984l-36.032 557.952a255.168 255.168 0 0 1-6.016 31.552c-1.984 7.04-8 13.44-17.984 19.456-9.984 6.016-23.04 9.024-39.04 9.024H102.592c-24 0-40-4.992-48-14.976-8-10.048-12.992-25.024-14.976-45.056l-39.04-551.936C-3.392 339.904 14.656 320 54.592 320h1044.032z m-12.032-147.008l6.016 99.008H60.544c0-24 6.016-87.04 17.984-188.992 2.048-17.984 6.016-30.528 12.032-37.504a31.936 31.936 0 0 1 19.456-12.032A389.12 389.12 0 0 1 153.6 32h225.024c40 0 62.976 1.472 68.992 4.48 6.016 3.008 19.968 16.512 41.984 40.512 22.016 25.984 39.04 40.96 51.008 44.992 12.032 4.032 36.032 6.016 72 6.016h428.992c30.016 0 44.992 14.976 44.992 44.992z" fill="#ffffff" p-id="11339"></path></svg>