<?xml version="1.0" standalone="no"?><!DOCTYPE svg PUBLIC "-//W3C//DTD SVG 1.1//EN" "http://www.w3.org/Graphics/SVG/1.1/DTD/svg11.dtd"><svg t="1529047923769" class="icon" style="" viewBox="0 0 1024 1024" version="1.1" xmlns="http://www.w3.org/2000/svg" p-id="5336" xmlns:xlink="http://www.w3.org/1999/xlink" width="200" height="200"><defs><style type="text/css"></style></defs><path d="M914.6 362.8L589.1 137.1c-58.5-46.4-119.3-19.4-144.6 2.3L98.4 376.5c-15.1 10.1-39.6 30.7-33 55.8 4.5 17.2 20.5 26.9 47.5 28.8 0.6 0.1 1.1 0.1 1.7 0.1l80.7 0.1V820c0 50.8 39.3 92.1 87.5 92.1h239l0.1-48.9h-239c-21.5 0-38.9-19.4-38.9-43.2V440.6c0-1.1-0.5-2-0.6-3.1 0-0.3 0.2-0.5 0.2-0.7 0-13.5-10.8-24.5-24.3-24.5l-86.6-0.1L473 178.9c0.8-0.5 1.6-1.2 2.3-1.8 4.2-3.6 42.5-34.7 84-1.3 0.5 0.3 0.9 0.7 1.4 1l325.6 225.8c5.5 4 11.4 9.3 16 14-3.1 0.1-6.8 0.3-11.3 0.1l-77.4 0.3c-0.2 0-0.4 0.1-0.6 0.1-0.3 0-0.4-0.1-0.7-0.1-13.4 0-24.3 10.9-24.3 24.5l0.1 378.3c0 23.8-17.5 43.2-38.9 43.2H625.6c-13.4 0-24.3 10.9-24.3 24.5 0 13.5 10.9 24.4 24.3 24.4h123.6c48.3 0 87.5-41.3 87.5-92.1l-0.1-354 54-0.2c15.3 0.3 56.1 1.2 66.4-29.1 10.1-29.6-21.9-58.7-42.4-73.7" fill="#ffffff" p-id="5337"></path><path d="M601.8 450.2c6.7 8 13.9 16.1 21.6 24.4 6.4 7.3 13.5 15.5 21.3 24.4 7.8 8.9 15.9 18 24.2 27.3 10.5 12.1 19.2 23 26.1 32.6 6.9 9.6 12.3 18.4 16.3 26.3 4 8 6.7 15.3 8.1 22 1.4 6.7 2.2 13.4 2.2 20.1v31.1c0 9.6-1.6 18.2-4.8 25.9-3.2 7.7-7.6 14.3-13.2 19.9-5.6 5.6-12 9.9-19.2 12.9-7.2 3-14.8 4.6-22.8 4.6H366.1c-8.6 0-16.8-1.4-24.7-4.3-7.8-2.9-14.7-6.9-20.6-12.2-5.9-5.3-10.6-11.6-14.1-18.9-3.5-7.3-5.3-15.6-5.3-24.9v-36.9c0-7.7 0.7-15 2.2-22 1.4-7 4.1-14.4 7.9-22 3.8-7.7 9.1-15.9 15.8-24.7 6.7-8.8 15.2-18.4 25.4-29 8.3-8.9 16.8-18 25.6-27.1 8.8-9.1 16.7-17.3 23.7-24.7 8.3-8.6 16.3-16.9 24-24.9h175.8z m-90 181.6c8.3 0 16.1-1.6 23.5-4.8 7.3-3.2 13.7-7.5 19.2-12.9 5.4-5.4 9.7-11.9 12.9-19.4 3.2-7.5 4.8-15.4 4.8-23.7s-1.6-16.1-4.8-23.5c-3.2-7.3-7.5-13.7-12.9-19.2-5.4-5.4-11.8-9.7-19.2-12.9-7.3-3.2-15.2-4.8-23.5-4.8s-16.2 1.6-23.7 4.8c-7.5 3.2-14 7.5-19.4 12.9-5.4 5.4-9.7 11.8-12.9 19.2-3.2 7.3-4.8 15.2-4.8 23.5s1.6 16.2 4.8 23.7c3.2 7.5 7.5 14 12.9 19.4 5.4 5.4 11.9 9.7 19.4 12.9 7.5 3.2 15.4 4.8 23.7 4.8z m239.9-239.6v30.2c0 8.3-3 15.3-8.9 21.1-5.9 5.7-13 8.6-21.3 8.6h-59.9c-8.3 0-15.3-2.9-21.1-8.6-5.7-5.7-8.6-12.8-8.6-21.1v-30.2H392v30.2c0 8.3-2.9 15.3-8.6 21.1-5.7 5.7-12.8 8.6-21.1 8.6h-59.9c-8.3 0-15.4-2.9-21.3-8.6-5.9-5.7-8.9-12.8-8.9-21.1v-31.1c0-3.8 1-7.1 2.9-9.8 1.9-2.7 4.3-5.2 7.2-7.4 2.9-2.2 6.1-4.2 9.6-6 3.5-1.8 7-3.8 10.5-6 3.5-1.9 11.4-6.1 23.7-12.7 12.3-6.5 27.8-13.3 46.5-20.4 18.7-7 39.9-13.3 63.7-18.7 23.8-5.4 49.1-8.1 75.9-8.1 30.7 0 58 2.7 82.1 8.1 24.1 5.4 45 11.7 62.8 18.7 17.7 7 31.9 13.8 42.6 20.4 10.7 6.5 18 10.8 21.8 12.7 3.8 2.2 7.5 4.2 11 6 3.5 1.8 6.7 3.8 9.6 6 2.9 2.2 5.2 4.7 6.9 7.4 1.8 2.7 2.6 6 2.6 9.8v0.9z m0 0" fill="#ffffff" p-id="5338"></path></svg>