<?xml version="1.0" standalone="no"?><!DOCTYPE svg PUBLIC "-//W3C//DTD SVG 1.1//EN" "http://www.w3.org/Graphics/SVG/1.1/DTD/svg11.dtd"><svg t="1529048561395" class="icon" style="" viewBox="0 0 1365 1024" version="1.1" xmlns="http://www.w3.org/2000/svg" p-id="14569" xmlns:xlink="http://www.w3.org/1999/xlink" width="266.6015625" height="200"><defs><style type="text/css"></style></defs><path d="M51.2 102.4h989.866667c28.16 0 51.2-23.04 51.2-51.2s-23.04-51.2-51.2-51.2H51.2C23.04 0 0 23.04 0 51.2s23.04 51.2 51.2 51.2z m0 307.2h819.2c28.16 0 51.2-23.04 51.2-51.2s-23.04-51.2-51.2-51.2H51.2c-28.16 0-51.2 23.04-51.2 51.2s23.04 51.2 51.2 51.2z m648.533333 204.8H51.2c-28.16 0-51.2 23.04-51.2 51.2s23.04 51.2 51.2 51.2h648.533333c28.16 0 51.2-23.04 51.2-51.2s-23.04-51.2-51.2-51.2z m-136.533333 307.2h-512c-28.16 0-51.2 23.04-51.2 51.2s23.04 51.2 51.2 51.2h512c28.16 0 51.2-23.04 51.2-51.2s-23.04-51.2-51.2-51.2zM1323.235556 111.502222a85.333333 85.333333 0 0 0-116.849778 30.435556l-25.884445 44.145778 147.171556 86.414222 25.884444-44.145778a85.333333 85.333333 0 0 0-30.378666-116.792889z m-471.153778 633.799111l147.171555 86.471111 311.125334-529.863111-147.171556-86.414222-311.125333 529.806222zM787.399111 1024l194.56-162.816-147.171555-86.471111L787.399111 1024z" fill="#ffffff" p-id="14570"></path></svg>