<?xml version="1.0" standalone="no"?><!DOCTYPE svg PUBLIC "-//W3C//DTD SVG 1.1//EN" "http://www.w3.org/Graphics/SVG/1.1/DTD/svg11.dtd"><svg class="icon" width="200px" height="200.00px" viewBox="0 0 1024 1024" version="1.1" xmlns="http://www.w3.org/2000/svg"><path fill="#ffffff" d="M681.472 367.616H345.088c-26.112 0-47.616-21.504-47.616-47.616V195.584c0-26.112 21.504-47.616 47.616-47.616h57.344C409.6 93.184 456.704 51.2 513.024 51.2s103.424 41.984 111.104 96.768h57.344c26.112 0 47.616 21.504 47.616 47.616v124.928c0 26.112-21.504 47.104-47.616 47.104zM345.088 194.048c-1.024 0-1.536 0.512-1.536 1.536v124.928c0 1.024 0.512 1.536 1.536 1.536h336.384c1.024 0 1.536-0.512 1.536-1.536V195.584c0-1.024-0.512-1.536-1.536-1.536h-104.96l2.048-25.088c0-2.048 0.512-4.096 0.512-5.632 0-36.352-29.696-66.048-66.048-66.048s-66.048 29.696-66.048 66.048c0 1.536 0 3.584 0.512 5.632l2.048 25.088H345.088z m-27.136 578.56h235.52v46.08h-235.52v-46.08z m0-146.432h389.12v46.08h-389.12v-46.08z m0-146.432h389.12v46.08h-389.12v-46.08z m492.032 493.056H214.016c-31.744 0-57.856-26.112-57.856-57.856V292.864c0-31.744 25.6-57.856 57.856-57.856h81.92v-39.424c0-26.112 21.504-47.616 47.616-47.616h57.856c7.68-54.784 54.272-97.28 111.104-97.28s103.936 42.496 111.104 97.28H680.96c26.112 0 47.616 21.504 47.616 47.616V235.52h81.92c31.744 0 57.856 26.112 57.856 57.856v622.08c-0.512 31.232-26.624 57.344-58.368 57.344zM214.016 281.6c-6.144 0-11.776 5.12-11.776 11.264v622.08c0 6.144 5.12 11.264 11.776 11.264h596.48c6.144 0 11.264-5.12 11.264-11.264V292.864c0-6.144-5.12-11.264-11.264-11.264h-128V196.096c0-1.024-0.512-1.536-1.536-1.536h-104.96l2.048-25.088c0-2.048 0.512-4.096 0.512-5.632 0-36.352-29.696-66.048-66.048-66.048-36.352 0-66.048 29.696-66.048 66.048 0 1.536 0 3.584 0.512 5.632l2.048 25.088H343.04c-1.024 0-1.536 0.512-1.536 1.536v86.016H214.016V281.6zM689.152 741.376l18.944 38.912 43.008 6.144-31.232 30.208 7.68 42.496-38.4-20.48-38.4 20.48 7.68-42.496-31.232-30.208 43.008-6.144zM689.152 711.168c-52.224 0-94.208 41.984-94.208 94.208s41.984 94.208 94.208 94.208 94.208-41.984 94.208-94.208-41.984-94.208-94.208-94.208z m0 177.152c-46.08 0-82.944-37.376-82.944-82.944 0-46.08 37.376-82.944 82.944-82.944 46.08 0 82.944 37.376 82.944 82.944 0 46.08-36.864 82.944-82.944 82.944z" /></svg>