<?xml version="1.0" standalone="no"?><!DOCTYPE svg PUBLIC "-//W3C//DTD SVG 1.1//EN" "http://www.w3.org/Graphics/SVG/1.1/DTD/svg11.dtd"><svg t="1529047558603" class="icon" style="" viewBox="0 0 1024 1024" version="1.1" xmlns="http://www.w3.org/2000/svg" p-id="1137" xmlns:xlink="http://www.w3.org/1999/xlink" width="200" height="200"><defs><style type="text/css"></style></defs><path d="M1013.504 472.448 529.728 20.992c-9.92-9.28-25.344-9.28-35.264 0L10.496 472.448c-7.808 7.232-10.176 18.496-6.4 28.352 3.904 9.728 13.376 16.256 23.872 16.256l150.144 0 0 456.832c0 14.4 11.712 25.856 25.856 25.856l616 0c14.4 0 25.984-11.52 26.112-25.856L846.08 517.056l149.888 0c10.624 0 19.904-6.4 23.872-16.256C1023.744 490.816 1021.248 479.552 1013.504 472.448zM820.224 465.536c-14.528 0-25.856 11.648-25.856 25.728l0 456.832L229.76 948.096l0.128-456.832c0-14.144-11.52-25.728-25.856-25.728L93.632 465.536 512 75.264l418.496 390.272L820.224 465.536z" p-id="1138" fill="#ffffff"></path><path d="M572.992 674.88l-29.952 92.992c-1.984 14.016-9.984 20.992-24 20.992s-20.992-6.976-20.992-20.992c0-8 1.984-16 6.016-24l20.992-68.992L414.016 674.88l-27.008 81.024C385.024 757.888 384 760.896 384 764.864c-6.016 17.984-14.016 25.984-24 24-16.064 0-24-6.976-24-20.992-1.984-1.984-1.088-6.016 3.008-12.032 1.92-6.016 3.008-11.008 3.008-14.976l24-65.984L312 674.88c-20.032 1.984-28.992-4.992-27.008-20.992 0-12.032 7.936-19.008 24-20.992l68.992 0 41.984-123.008L366.016 509.888C345.984 511.872 337.024 504.896 339.008 488.896c0-12.032 7.936-19.008 24-20.992l72 0 30.016-92.992C468.992 362.88 476.992 355.904 489.024 353.856c14.016 1.984 22.016 10.048 24 24-1.984 8-4.032 16-6.016 24L483.008 467.904l113.984 0 30.016-92.992L627.008 371.904c4.032-12.032 12.032-17.984 24-17.984 12.032 1.984 19.008 9.024 20.992 20.992-1.984 10.048-4.032 17.984-6.016 24l-24 68.992 54.016 0c16 1.984 25.024 9.024 27.008 20.992-1.984 14.016-11.008 20.992-27.008 20.992L630.016 509.888 588.032 632.896l54.016 0c16 1.984 25.024 9.024 27.008 20.992-1.984 14.016-11.008 20.992-27.008 20.992L572.992 674.88zM582.016 509.888 470.976 509.888 428.992 632.896l110.976 0L582.016 509.888z" p-id="1139" fill="#ffffff"></path></svg>