<?xml version="1.0" standalone="no"?><!DOCTYPE svg PUBLIC "-//W3C//DTD SVG 1.1//EN" "http://www.w3.org/Graphics/SVG/1.1/DTD/svg11.dtd"><svg t="1534233606106" class="icon" style="" viewBox="0 0 1024 1024" version="1.1" xmlns="http://www.w3.org/2000/svg" p-id="2549" xmlns:xlink="http://www.w3.org/1999/xlink" width="200" height="200"><defs><style type="text/css"></style></defs><path d="M557 697.8c0.1 16.7 0.1 28.5 0.1 33.3-0.1-17.9 0.3-59.1-0.1-33.3z m0.1 33.3v0z m248-632.9H397.8c-33.1 0-64.2 27-64.2 60.1s31.1 60.1 64.2 60.1h4.3v0.1h0.1v50.6l-0.1-0.1H382c-35.9 0-65.1 29.2-65.1 65.1v69.2c-4.4 0-9 0.1-15.9-0.1h-4.7c-35.9 0-65.1 29.2-65.1 65.1v50.2l-3.6-0.2c-35.9 0-65.1 29.2-65.1 65.1v36.7c0 59.6-20.4 298.7 227.6 308.1h5.2c60.1 0 86.9-12 113.8-38.7 40-39.7 47.7-60.6 47.3-158-0.1 7.2-0.1-54.4 0-85.7h188.2c28.3 0 51.4-23 51.4-51.4v-376h9c33.1 0 60.1-27 60.1-60.1 0.1-33.1-26.9-60.1-60-60.1z m-403 35v50.4h-12.8c-13.9 0-25.2-11.3-25.2-25.2 0-13.9 11.3-25.2 25.2-25.2h12.8z m82.9 732c-20.6 20.5-41.9 29.8-94 28.8-209.3-8-193.8-205-194.1-272.3v-0.1-0.2-38c0-17 13.8-30.8 30.7-30.8l3.7 0.2V630c0 8.8 6.8 16.1 15.6 16.9 8.6 0.8 16.8-5.3 18.4-14 0.2-1 0.3-2.1 0.3-3.2V468.4c0-17 13.8-30.8 30.8-30.8h5.2c6.5-0.1 11.3 0 15.4 0.1v129.9c0 1.2 0.1 2.4 0.2 4.3 0.6 8.9 7.9 15.9 16.9 16.1h0.2c8.8 0 16.3-6.7 17.1-15.6 0-0.5 0.1-1.4 0.1-1.9l-0.2-236.2c0-17 13.8-30.8 30.8-30.8h19.5l0.6 133.6v210.3c0 9.5 7.7 17.1 17.1 17.1 9.5 0 17.1-7.7 17.1-17.1V451.9c0-25.3 14.7-45.9 40-45.9s45.9 20.6 45.9 45.9v193.7s0.2 8.3 0.3 21.9c0.1 15.8 0.2 38.6-0.3 64 0.2 86.2-6 102.5-37.3 133.7z m174.2-253.7H556.4v-126c-0.4-13.7-0.6-17 0-33.1v-0.8c0-14.5-4-28-10.8-39.7-13.3-17.8-15-21.9-37.7-33.2-6.5-2.8-13.3-5.1-20.6-6.1-12.5-1.8-19.5-2.2-31.8 1.9-6.9 2.1-13.3 5.1-19.1 8.9V218.3h0.1V133h-0.1 114.5c-6.7 2.3-11.5 8.5-11.5 16l0.1 50.7c0 9.5 7.7 17.1 17.1 17.1h34.1c9.5 0 17.1-7.7 17.1-17.1l-0.1-50.7c0-7.5-4.8-13.6-11.5-16h62.9v478.5z m102.6-17.1c0 9.4-7.7 17.1-17.1 17.1h-51.4V133.1h68.5v461.3z m48.4-410.8h-14.1v-50.4h14.2c13.9 0 25.2 11.3 25.2 25.2-0.1 13.9-11.4 25.2-25.3 25.2zM196.9 620.4c0 0.4 0 0.8-0.1 1.2 0.1 1.7 0.1 0.3 0.1-1.2z m393.3-307c-9 0-16.3 7.3-16.3 16.3v219.1c0 9 7.3 16.3 16.3 16.3s16.3-7.3 16.3-16.3V329.7c0-9-7.3-16.3-16.3-16.3z m-393.3 307v-0.4c0.1-3.1 0-1.3 0 0.4z" p-id="2550"></path></svg>