<?xml version="1.0" standalone="no"?><!DOCTYPE svg PUBLIC "-//W3C//DTD SVG 1.1//EN" "http://www.w3.org/Graphics/SVG/1.1/DTD/svg11.dtd"><svg class="icon" width="200px" height="200.00px" viewBox="0 0 1024 1024" version="1.1" xmlns="http://www.w3.org/2000/svg"><path d="M511.998 0C229.23 0 0 229.228 0 512c0 282.77 229.23 512 511.998 512C794.77 1024 1024 794.77 1024 512 1024 229.228 794.77 0 511.998 0z m0 993.808C245.904 993.808 30.192 778.094 30.192 512c0-266.096 215.712-481.808 481.806-481.808 266.1 0 481.81 215.712 481.81 481.808 0 266.094-215.71 481.808-481.81 481.808z" fill="#666666" /><path d="M758 702.008H275.12c-13.2 0-24-10.8-24-24v-352c0-13.2 10.8-24 24-24H758c13.2 0 24 10.8 24 24v352c0 13.2-10.8 24-24 24z" fill="#666666" /><path d="M644.882 627.89v-128.668h-40v64.132l-188.36-188.36-28.284 28.284 185.744 185.744h-58.898v40h128.666v-1.132z" fill="#FFFFFF" /></svg>