<?xml version="1.0" standalone="no"?><!DOCTYPE svg PUBLIC "-//W3C//DTD SVG 1.1//EN" "http://www.w3.org/Graphics/SVG/1.1/DTD/svg11.dtd"><svg t="1529048142910" class="icon" style="" viewBox="0 0 1136 1024" version="1.1" xmlns="http://www.w3.org/2000/svg" p-id="7210" xmlns:xlink="http://www.w3.org/1999/xlink" width="221.875" height="200"><defs><style type="text/css"></style></defs><path d="M815.53855 499.331086a158.104238 158.104238 0 0 0-7.58034-20.575209L828.533419 433.273836H823.11889c-6.497434-6.497434-11.911963-12.994869-18.409398-18.409398h-6.497434L758.144545 426.776401a83.383742 83.383742 0 0 0-20.575209-8.663246l-16.243586-45.482041h-45.482041l-15.16068 45.482041a69.305967 69.305967 0 0 0-20.575209 8.663246l-43.31623-20.575209h-6.497434c-6.497434 6.497434-12.994869 11.911963-18.409398 18.409398v6.497434l20.575209 43.31623a166.767484 166.767484 0 0 0-8.663246 20.575209l-44.399135 16.243586v7.58034a108.290574 108.290574 0 0 0 0 25.989738v8.663246l44.399135 16.243586c0 6.497434 0 12.994869 8.663246 20.575209l-20.575209 43.31623v5.414528l18.409398 18.409398h6.497434l43.31623-7.58034 20.575209 8.663246 15.16068 44.399135h42.233324l16.243586-44.399135L758.144545 649.854984l43.31623 20.575209h6.497435l18.409397-18.409398 5.414529-5.414529-20.575209-43.316229a96.378611 96.378611 0 0 0 7.58034-20.575209L866.43512 557.807996v-8.663246a108.290574 108.290574 0 0 0 0-25.989738v-7.58034z m21.658115 40.067512l-42.233324 15.160681v10.829057a83.383742 83.383742 0 0 1-7.580341 17.326492v10.829057l19.492304 40.067513L758.144545 618.450717h-10.829057l-17.326492 7.58034h-11.911963l-15.16068 41.150419-14.077775-41.150419h-11.911963L649.853971 623.865246h-10.829057l-38.984607 18.409398 18.409398-40.067513v-10.829057a82.300836 82.300836 0 0 1-6.497435-17.326492v-10.829058l-54.145287-21.658114v-7.580341l41.150419-15.16068v-10.829057a124.53416 124.53416 0 0 1 6.497434-18.409398v-9.746152l-18.409398-40.067512 38.984607 19.492303h10.829057l17.326492-7.58034h11.911963l14.077775-42.233324 15.16068 42.233324h11.911964l17.326491 7.58034h10.829058L793.880435 433.273836l-19.492303 40.067512v10.829057a49.813664 49.813664 0 0 1 7.58034 17.326492v10.829058l42.233324 15.16068z" fill="#ffffff" p-id="7211"></path><path d="M697.501824 474.424254a62.808533 62.808533 0 0 0-61.725627 67.140156A61.725627 61.725627 0 0 0 758.144545 541.56441a62.808533 62.808533 0 0 0-60.642721-67.140156z m0 98.544422A36.818795 36.818795 0 1 1 733.237713 541.56441a36.818795 36.818795 0 0 1-35.735889 31.404266zM505.827508 668.264381H261.09081A245.819603 245.819603 0 0 1 505.827508 444.102893a18.409398 18.409398 0 0 0 16.243586-10.829057 154.855521 154.855521 0 1 0-127.782877-10.829058A289.135833 289.135833 0 0 0 216.691675 688.83959v21.658115h289.135833a20.575209 20.575209 0 0 0 20.575209-21.658115 19.492303 19.492303 0 0 0-20.575209-20.575209zM357.469421 289.247372a108.290574 108.290574 0 0 1 224.161489 0 108.290574 108.290574 0 1 1-224.161489 0z" fill="#ffffff" p-id="7212"></path><path d="M1003.964149 0.111539h-866.324593A132.1145 132.1145 0 0 0 0.110527 132.22604v595.598157A133.197406 133.197406 0 0 0 132.225027 866.436132h866.324593a133.197406 133.197406 0 0 0 132.1145-133.197406V132.22604A132.1145 132.1145 0 0 0 1003.964149 0.111539z m72.554684 727.712658a73.63759 73.63759 0 0 1-72.554684 73.63759h-866.324593a73.63759 73.63759 0 0 1-72.554685-73.63759v-595.598157a72.554685 72.554685 0 0 1 67.140156-72.554685h866.324593a72.554685 72.554685 0 0 1 72.554685 72.554685zM866.43512 963.897648H597.874496v-61.725627a29.238455 29.238455 0 0 0-29.238455-29.238455 30.321361 30.321361 0 0 0-27.072644 29.238455v61.725627H267.588245a30.321361 30.321361 0 0 0 0 59.559816H866.43512a30.321361 30.321361 0 1 0 0-59.559816z" fill="#ffffff" p-id="7213"></path></svg>