<?xml version="1.0" standalone="no"?><!DOCTYPE svg PUBLIC "-//W3C//DTD SVG 1.1//EN" "http://www.w3.org/Graphics/SVG/1.1/DTD/svg11.dtd"><svg t="1529048161760" class="icon" style="" viewBox="0 0 1024 1024" version="1.1" xmlns="http://www.w3.org/2000/svg" p-id="7919" xmlns:xlink="http://www.w3.org/1999/xlink" width="200" height="200"><defs><style type="text/css"></style></defs><path d="M723.079416 483.249189c0-116.306936-94.633311-210.94127-210.94127-210.94127-116.322285 0-210.956619 94.633311-210.956619 210.94127 0 116.322285 94.633311 210.956619 210.956619 210.956619C628.445082 694.205808 723.079416 599.571475 723.079416 483.249189zM364.321566 483.249189c0-81.500199 66.316381-147.800207 147.815557-147.800207s147.800207 66.301032 147.800207 147.800207S593.638345 631.064746 512.138146 631.064746 364.321566 564.749388 364.321566 483.249189z" p-id="7920" fill="#ffffff"></path><path d="M784.508487 940.909583l-75.688843 0-56.664557-141.613298c155.330718-57.247842 266.618337-206.312856 266.618337-381.26854 0-224.213551-182.422749-406.636301-406.636301-406.636301S105.501846 193.814194 105.501846 418.027745c0 172.295088 107.898429 319.54271 259.527848 378.669342-0.11154 0.257873-0.340761 0.418532-0.445138 0.682545l-57.290821 143.530974L252.330936 940.910607c-17.434068 0-31.57002 14.135952-31.57002 31.57002s14.135952 31.57002 31.57002 31.57002l76.256778 0c0.026606 0 0.052189 0.01535 0.078795 0.01535 0.034792 0 0.069585-0.01535 0.104377-0.01535l358.579795 0c0.034792 0 0.069585 0.01535 0.104377 0.01535 0.026606 0 0.052189-0.01535 0.078795-0.01535l96.974635 0c17.434068 0 31.57002-14.135952 31.57002-31.57002S801.942555 940.909583 784.508487 940.909583zM168.641885 418.027745c0-189.405791 154.089447-343.496262 343.496262-343.496262s343.496262 154.089447 343.496262 343.496262S701.543937 761.524007 512.138146 761.524007 168.641885 607.433536 168.641885 418.027745zM423.223071 820.779575c0.776689-1.948375 0.711198-3.947915 1.082658-5.935176 28.323069 6.26775 57.651025 9.819646 87.831394 9.819646 27.360138 0 54.06843-2.805906 79.929424-7.982812 0.354064 1.485841 0.231267 2.992147 0.815575 4.453429l47.925522 119.775944L375.272989 940.910607 423.223071 820.779575z" p-id="7921" fill="#ffffff"></path><path d="M516.211928 191.762465m-48.921199 0a47.807 47.807 0 1 0 97.842399 0 47.807 47.807 0 1 0-97.842399 0Z" p-id="7922" fill="#ffffff"></path></svg>