<?xml version="1.0" standalone="no"?><!DOCTYPE svg PUBLIC "-//W3C//DTD SVG 1.1//EN" "http://www.w3.org/Graphics/SVG/1.1/DTD/svg11.dtd"><svg t="1529048479136" class="icon" style="" viewBox="0 0 1024 1024" version="1.1" xmlns="http://www.w3.org/2000/svg" p-id="13573" xmlns:xlink="http://www.w3.org/1999/xlink" width="200" height="200"><defs><style type="text/css"></style></defs><path d="M731.453793 1023.717517c-132.06069 0-239.439448-110.415448-239.439448-246.183724 0-135.662345 107.378759-246.077793 239.404138-246.077793 131.990069 0 239.439448 110.415448 239.439448 246.113103 0 135.732966-107.414069 246.113103-239.404138 246.113104z m0-434.917517c-101.270069 0-183.684414 84.674207-183.684414 188.769103 0 104.165517 82.414345 188.839724 183.684414 188.839725 101.234759 0 183.613793-84.709517 183.613793-188.839725 0-104.094897-82.379034-188.804414-183.613793-188.804413v0.03531z" fill="#ffffff" p-id="13574"></path><path d="M731.453793 806.205793a27.930483 27.930483 0 0 1-19.844414-8.474483 28.601379 28.601379 0 0 1-8.050758-20.197517V649.710345a28.248276 28.248276 0 0 1 27.895172-28.672c15.36 0 27.895172 12.817655 27.895173 28.672v127.894069a28.283586 28.283586 0 0 1-27.930483 28.672z" fill="#ffffff" p-id="13575"></path><path d="M819.411862 896.706207a27.400828 27.400828 0 0 1-19.738483-8.403862l-87.922758-90.500414a29.201655 29.201655 0 0 1 0-40.500965 27.400828 27.400828 0 0 1 39.406345 0l87.958068 90.500413c10.946207 11.158069 10.946207 29.307586 0 40.500966a27.400828 27.400828 0 0 1-19.703172 8.403862z m-285.060414-11.793655H199.185655c-80.613517 0-146.184828-67.442759-146.184827-150.351449V150.56331C52.965517 67.654621 118.572138 0.247172 199.220966 0.247172h23.657931c15.39531 0 27.895172 12.817655 27.895172 28.672a28.283586 28.283586 0 0 1-27.895172 28.672h-23.587311c-49.928828 0-90.535724 41.666207-90.535724 92.972138v583.927173c0 51.270621 40.606897 93.007448 90.535724 93.007448h335.130483a28.248276 28.248276 0 0 1 27.895172 28.672 28.248276 28.248276 0 0 1-27.895172 28.672l-0.070621 0.070621z m256.600276-287.320276a27.930483 27.930483 0 0 1-19.773793-8.474483 28.601379 28.601379 0 0 1-8.086069-20.197517V150.598621c0-51.270621-40.606897-92.972138-90.500414-92.972138h-23.657931a27.930483 27.930483 0 0 1-19.773793-8.474483 28.601379 28.601379 0 0 1-8.121379-20.197517 28.248276 28.248276 0 0 1 27.895172-28.672h23.657931c80.684138 0 146.255448 67.442759 146.255449 150.316138v418.321655a28.248276 28.248276 0 0 1-27.895173 28.672zM548.334345 57.626483H323.54869a27.930483 27.930483 0 0 1-19.844414-8.474483 28.601379 28.601379 0 0 1-8.121379-20.197517c0-15.854345 12.535172-28.672 27.965793-28.672h224.820965c15.430621 0 27.895172 12.817655 27.895173 28.672a28.318897 28.318897 0 0 1-27.895173 28.672h-0.03531z" fill="#ffffff" p-id="13576"></path><path d="M675.592828 312.072828H196.254897a27.930483 27.930483 0 0 1-19.844414-8.474483 28.601379 28.601379 0 0 1-8.050759-20.197517c0-15.819034 12.499862-28.672 27.895173-28.672h479.30262c15.39531 0 27.895172 12.852966 27.895173 28.672a28.283586 28.283586 0 0 1-27.895173 28.672z m0 159.179034H196.254897a27.930483 27.930483 0 0 1-19.844414-8.474483 28.601379 28.601379 0 0 1-8.050759-20.197517c0-15.819034 12.499862-28.672 27.895173-28.672h479.30262c15.39531 0 27.895172 12.852966 27.895173 28.672a28.283586 28.283586 0 0 1-27.895173 28.672z m-68.466759 159.108414H196.325517a27.930483 27.930483 0 0 1-19.844414-8.474483 28.601379 28.601379 0 0 1-8.121379-20.126896c0-15.819034 12.535172-28.672 27.965793-28.672h410.835862c15.430621 0 27.930483 12.852966 27.930483 28.672a28.283586 28.283586 0 0 1-27.895172 28.672v-0.070621z" fill="#ffffff" p-id="13577"></path></svg>