<?xml version="1.0" standalone="no"?><!DOCTYPE svg PUBLIC "-//W3C//DTD SVG 1.1//EN" "http://www.w3.org/Graphics/SVG/1.1/DTD/svg11.dtd"><svg t="1529048042285" class="icon" style="" viewBox="0 0 1243 1024" version="1.1" xmlns="http://www.w3.org/2000/svg" p-id="6931" xmlns:xlink="http://www.w3.org/1999/xlink" width="242.7734375" height="200"><defs><style type="text/css"></style></defs><path d="M1218.121143 827.648L746.386286 76.909714C715.629714 27.940571 670.171429 0 621.385143 0s-94.464 27.904-125.001143 77.056L25.344 827.648c-30.500571 48.566857-33.645714 98.304-8.448 136.411429S92.196571 1024 155.026286 1024h933.595428c62.610286 0 112.969143-21.796571 137.910857-59.940571 25.234286-38.144 22.089143-87.844571-8.411428-136.411429z m-36.132572 113.408c-15.616 23.588571-49.481143 37.156571-93.366857 37.156571H154.806857c-43.666286 0-77.750857-13.568-93.366857-37.156571-15.835429-23.771429-12.470857-57.197714 8.923429-91.209143L541.403429 99.108571c21.357714-34.011429 50.322286-53.284571 79.762285-53.284571 29.403429 0 58.368 19.456 79.762286 53.284571l471.698286 750.738286c21.833143 34.230857 24.978286 67.437714 9.362285 91.209143z m0 0" p-id="6932" fill="#ffffff"></path><path d="M622.957714 710.656c38.765714 0 70.180571-27.867429 70.180572-62.281143V293.705143c0-34.413714-31.414857-62.317714-70.180572-62.317714-38.802286 0-70.180571 27.904-70.180571 62.317714v354.633143c0 34.450286 31.634286 62.317714 70.180571 62.317714z m0 0M622.738286 743.277714c-47.030857 0-85.357714 34.011429-85.357715 75.702857 0 41.654857 38.326857 75.629714 85.357715 75.629715 46.994286 0 85.321143-34.011429 85.321143-75.629715 0-41.837714-38.326857-75.702857-85.321143-75.702857z m0 0" p-id="6933" fill="#ffffff"></path></svg>