<?xml version="1.0" encoding="UTF-8"?>
<svg width="48px" height="48px" viewBox="0 0 48 48" version="1.1" xmlns="http://www.w3.org/2000/svg" xmlns:xlink="http://www.w3.org/1999/xlink">
    <!-- Generator: Sketch 50.2 (55047) - http://www.bohemiancoding.com/sketch -->
    <title>Combined Shape + Oval 5 + Oval 6 Mask Mask</title>
    <desc>Created with Sketch.</desc>
    <defs>
        <rect id="path-1" x="0" y="0" width="48" height="48"></rect>
    </defs>
    <g id="Page-1" stroke="none" stroke-width="1" fill="none" fill-rule="evenodd">
        <g id="Desktop-HD-Copy" transform="translate(-1354.000000, -138.000000)">
            <g id="Group-4-Copy-2" transform="translate(1051.000000, 100.000000)">
                <g id="Combined-Shape-+-Oval-5-+-Oval-6-Mask-Mask_export" transform="translate(303.000000, 38.000000)">
                    <g id="Combined-Shape-+-Oval-5-+-Oval-6-Mask-Mask">
                        <mask id="mask-2" fill="white">
                            <use xlink:href="#path-1"></use>
                        </mask>
                        <g id="Mask"></g>
                        <path d="M25.5116513,45 L2,45 L2,42.0000628 L4.99993722,42.0000628 L4.99993722,3.75005755 C4.99993722,3.33761672 5.33755394,3 5.74999477,3 L25.2500262,3 C25.662467,3 26.0000837,3.33761672 26.0000837,3.75005755 L26.0000837,9.22487413 L34.2498378,9.22487413 C34.662513,9.22487413 34.9998954,9.56249084 34.9998954,9.97493168 L34.9998954,17.1321574 C34.3456541,17.0449933 33.6780814,17 33,17 C24.7157288,17 18,23.7157288 18,32 C18,37.5569257 21.0217165,42.4080918 25.5116513,45 Z M11.0001046,35.9998954 L14.0000419,35.9998954 L14.0000419,32.9999581 L11.0001046,32.9999581 L11.0001046,35.9998954 Z M11.0001046,30.0000209 L14.0000419,30.0000209 L14.0000419,27.0000837 L11.0001046,27.0000837 L11.0001046,30.0000209 Z M11.0001046,23.9998535 L14.0000419,23.9998535 L14.0000419,20.9999163 L11.0001046,20.9999163 L11.0001046,23.9998535 Z M11.0001046,17.9999791 L14.0000419,17.9999791 L14.0000419,15.0000419 L11.0001046,15.0000419 L11.0001046,17.9999791 Z M11.0001046,12.0001046 L14.0000419,12.0001046 L14.0000419,8.99987444 L11.0001046,8.99987444 L11.0001046,12.0001046 Z M16.9999791,23.9998535 L19.9999163,23.9998535 L19.9999163,20.9999163 L16.9999791,20.9999163 L16.9999791,23.9998535 Z M16.9999791,17.9999791 L19.9999163,17.9999791 L19.9999163,15.0000419 L16.9999791,15.0000419 L16.9999791,17.9999791 Z M16.9999791,12.0001046 L19.9999163,12.0001046 L19.9999163,8.99987444 L16.9999791,8.99987444 L16.9999791,12.0001046 Z M26.0000837,16.9999791 L29.0000209,16.9999791 L29.0000209,14.0000419 L26.0000837,14.0000419 L26.0000837,16.9999791 Z" id="Combined-Shape" fill="#FFFFFF" mask="url(#mask-2)"></path>
                        <path d="M25.5160274,41.3808343 C22.68322,39.1181173 21,35.6964163 21,32 C21,25.372583 26.372583,20 33,20 C39.627417,20 45,25.372583 45,32 C45,35.6964163 43.31678,39.1181173 40.4839726,41.3808343 L39.2054962,42.4020229 L38.8798729,40.7984962 C38.3167444,38.0253791 35.8661251,36 33,36 C30.1338749,36 27.6832556,38.0253791 27.1201271,40.7984962 L26.7945038,42.4020229 L25.5160274,41.3808343 Z M33,33 C35.209139,33 37,31.209139 37,29 C37,26.790861 35.209139,25 33,25 C30.790861,25 29,26.790861 29,29 C29,31.209139 30.790861,33 33,33 Z" id="Combined-Shape" fill="#FFFFFF" mask="url(#mask-2)"></path>
                        <g id="Oval-5-+-Oval-6-Mask" mask="url(#mask-2)">
                            <g transform="translate(29.000000, 25.000000)"></g>
                        </g>
                    </g>
                </g>
            </g>
        </g>
    </g>
</svg>