<svg width="135" height="44" viewBox="0 0 135 44" fill="none" xmlns="http://www.w3.org/2000/svg">
<path d="M102.68 27.466V16.3945C102.68 15.7527 103.16 15.1108 103.96 15.1108C104.6 15.1108 105.24 15.5922 105.24 16.3945V27.466C105.24 28.1078 104.76 28.7497 103.96 28.7497C103.32 28.5892 102.68 28.1078 102.68 27.466Z" fill="white"/>
<path d="M85.72 27.466V16.3945C85.72 15.7527 86.2 15.1108 87 15.1108C87.64 15.1108 88.28 15.5922 88.28 16.3945V27.466C88.28 28.1078 87.8 28.7497 87 28.7497C86.36 28.5892 85.72 28.1078 85.72 27.466Z" fill="white"/>
<path d="M122.36 27.4666V16.716C122.36 16.2346 122.68 15.7532 123.16 15.5928C123.64 15.4323 124.12 15.5928 124.44 15.9137L132.44 24.2574V16.5555C132.44 15.9137 132.92 15.2719 133.72 15.2719C134.36 15.2719 135 15.7532 135 16.5555V27.3061C135 27.7875 134.68 28.2689 134.2 28.4293C133.72 28.5898 133.24 28.4293 132.92 28.1084L124.92 19.7646V27.4666C124.92 28.1084 124.44 28.7502 123.64 28.7502C122.84 28.7502 122.36 28.1084 122.36 27.4666Z" fill="white"/>
<path d="M76.4399 27.9474L70.8399 16.8759C70.5199 16.234 70.8399 15.5922 71.3199 15.2713C71.9599 14.9504 72.5999 15.2713 72.9199 15.7527L77.3999 24.5778L81.8799 15.7527C82.1999 15.1108 82.8399 14.9504 83.4799 15.2713C84.1199 15.5922 84.2799 16.234 83.9599 16.8759L78.3599 27.9474C78.1999 28.4288 77.7199 28.5892 77.2399 28.5892C77.0799 28.7497 76.5999 28.4288 76.4399 27.9474Z" fill="white"/>
<path d="M91.32 27.4663C90.84 27.1454 90.68 26.3431 91 25.7013C91.32 25.2199 92.12 25.0595 92.76 25.3804C93.4 25.8618 94.84 26.1827 95.96 26.1827C96.76 26.1827 97.4 26.0222 97.72 25.8618C98.04 25.5408 98.2 25.5408 98.2 24.899C98.2 24.5781 98.04 24.4176 97.88 24.0967C97.56 23.7758 97.24 23.6154 96.6 23.2944C95.48 22.8131 93.88 22.3317 92.6 21.5294C91.64 20.8876 91 19.7644 91 18.6412C91 17.6785 91.48 16.5553 92.44 15.9134C93.4 15.2716 94.36 14.9507 95.32 14.9507C97.24 14.9507 99 15.753 99 15.753C99.64 16.0739 99.96 16.7157 99.64 17.3575C99.32 17.9994 98.68 18.3203 98.04 17.9994C98.04 17.9994 98.04 17.9994 97.88 17.8389C97.72 17.8389 97.56 17.6785 97.24 17.6785C96.76 17.518 95.96 17.3575 95.32 17.3575C94.68 17.3575 94.2 17.518 93.88 17.6785C93.56 17.9994 93.4 18.1598 93.4 18.4807C93.4 18.8016 93.56 19.1226 93.88 19.283C94.36 19.6039 95.48 20.0853 96.44 20.4062C97.4 20.8876 98.52 21.369 99.48 22.1712C100.12 22.8131 100.6 23.6154 100.6 24.5781V24.7386C100.6 26.0222 99.96 27.1454 99 27.7872C98.04 28.4291 96.92 28.5895 95.96 28.5895C94.36 28.75 92.6 28.2686 91.32 27.4663Z" fill="white"/>
<path d="M114.04 14.9507C110.2 14.9507 107 18.1598 107 22.0108C107 25.8618 110.2 29.0709 114.04 29.0709C117.88 29.0709 121.08 25.8618 121.08 22.0108C121.08 17.9994 118.04 14.9507 114.04 14.9507ZM114.04 26.664C111.48 26.664 109.4 24.5781 109.4 22.0108C109.4 19.4435 111.48 17.3575 114.04 17.3575C116.6 17.3575 118.68 19.4435 118.68 22.0108C118.68 24.5781 116.6 26.5036 114.04 26.664Z" fill="white"/>
<path d="M66.6799 27.4664V18.9622L62.0399 22.8131C61.5599 23.134 60.9199 23.134 60.4399 22.8131L55.7999 19.1226V27.6268C55.7999 28.2687 55.1599 28.9105 54.5199 28.9105C53.8799 28.9105 53.2399 28.2687 53.2399 27.6268V16.3949C53.2399 15.9135 53.5599 15.4321 53.8799 15.2717C54.3599 15.1112 54.8399 15.1112 55.1599 15.4321L61.2399 20.0854L67.1599 15.4321C67.4799 15.1112 68.1199 15.1112 68.4399 15.2717C68.9199 15.5926 69.2399 15.9135 69.2399 16.3949V27.4664C69.2399 28.1082 68.5999 28.75 67.9599 28.75C67.3199 28.75 66.6799 28.2687 66.6799 27.4664Z" fill="white"/>
<path d="M33.1293 6.04525C29.2893 2.19428 24.3293 0.268799 19.3693 0.268799C14.4093 0.268799 9.44925 2.19428 5.60925 6.04525C1.76924 9.73575 -0.15076 14.7099 0.0092399 19.8445C0.0092399 24.8187 1.92924 29.7929 5.76925 33.6438L6.08924 33.9647L16.8093 42.7899C17.6093 43.4317 18.5693 43.7526 19.5293 43.7526C20.4893 43.7526 21.4493 43.4317 22.2493 42.7899L32.9693 33.9647L33.2893 33.6438C37.1293 29.7929 39.0493 24.8187 39.0493 19.8445C38.8893 14.8704 36.9693 9.73575 33.1293 6.04525ZM27.5293 29.4719C25.9293 29.4719 24.6493 28.1883 24.6493 26.5837V21.77L21.1293 24.1769C20.1693 24.8187 18.7293 24.8187 17.7693 24.1769L14.4093 21.77V26.5837C14.4093 28.1883 13.1293 29.4719 11.5292 29.4719C9.92925 29.4719 8.64925 28.1883 8.64925 26.5837V15.9936C8.64925 14.8704 9.28925 13.9076 10.2492 13.4263C11.2093 12.9449 12.3293 12.9449 13.2893 13.5867L19.6893 18.0795L26.0893 13.5867C27.0493 12.9449 28.1693 12.9449 29.1293 13.4263C30.0893 13.9076 30.7293 14.8704 30.7293 15.9936V26.4233C30.4093 28.1883 29.1293 29.4719 27.5293 29.4719Z" fill="white"/>
</svg>
