<svg width="375" height="212" viewBox="0 0 375 212" fill="none" xmlns="http://www.w3.org/2000/svg">
<mask id="mask0" mask-type="alpha" maskUnits="userSpaceOnUse" x="0" y="0" width="375" height="212">
<path d="M0 0H375V180C375 180 330 212 187 212C44 212 0 180 0 180V0Z" fill="#C4C4C4"/>
</mask>
<g mask="url(#mask0)">
<rect y="1" width="375" height="603" fill="#00946F"/>
<mask id="mask1" mask-type="alpha" maskUnits="userSpaceOnUse" x="0" y="1" width="375" height="604">
<rect y="1.00024" width="375" height="603" fill="#00946F"/>
</mask>
<g mask="url(#mask1)">
<path d="M63.3914 746.276L76.8384 761.078L642.264 222.395L628.817 207.594L63.3914 746.276Z" fill="#02A06B"/>
<path d="M35.9958 716.171L49.4428 730.973L614.869 192.29L601.422 177.488L35.9958 716.171Z" fill="#02A06B"/>
<path d="M8.65015 686.066L22.0971 700.867L587.523 162.185L574.076 147.383L8.65015 686.066Z" fill="#02A06B"/>
<path d="M-18.7456 655.961L-5.24846 670.762L560.177 132.08L546.68 117.278L-18.7456 655.961Z" fill="#02A06B"/>
<path d="M-46.0911 625.855L-32.6441 640.657L532.782 101.974L519.335 87.1727L-46.0911 625.855Z" fill="#02A06B"/>
<path d="M-73.4368 595.8L-59.9898 610.602L505.436 71.9194L491.989 57.1177L-73.4368 595.8Z" fill="#02A06B"/>
<path d="M-100.833 565.695L-87.3855 580.497L478.04 41.8144L464.593 27.0127L-100.833 565.695Z" fill="#02A06B"/>
<path d="M-128.178 535.59L-114.731 550.392L450.695 11.709L437.248 -3.09277L-128.178 535.59Z" fill="#02A06B"/>
<path d="M-155.574 505.485L-142.077 520.286L423.349 -18.3961L409.852 -33.1979L-155.574 505.485Z" fill="#02A06B"/>
<path d="M-182.919 475.379L-169.472 490.181L395.953 -48.5014L382.506 -63.3031L-182.919 475.379Z" fill="#02A06B"/>
<path d="M-210.265 445.274L-196.818 460.076L368.608 -78.6066L355.161 -93.4083L-210.265 445.274Z" fill="#02A06B"/>
<path d="M-237.661 415.169L-224.214 429.971L341.212 -108.662L327.765 -123.463L-237.661 415.169Z" fill="#02A06B"/>
<path d="M-265.006 385.114L-251.559 399.916L313.867 -138.767L300.42 -153.568L-265.006 385.114Z" fill="#02A06B"/>
<path d="M-292.402 355.009L-278.905 369.811L286.521 -168.872L273.024 -183.674L-292.402 355.009Z" fill="#02A06B"/>
<path d="M-319.748 324.904L-306.301 339.705L259.125 -198.977L245.678 -213.779L-319.748 324.904Z" fill="#02A06B"/>
</g>
</g>
</svg>
