<?xml version="1.0" standalone="no"?><!DOCTYPE svg PUBLIC "-//W3C//DTD SVG 1.1//EN" "http://www.w3.org/Graphics/SVG/1.1/DTD/svg11.dtd"><svg class="icon" width="200px" height="200.00px" viewBox="0 0 1024 1024" version="1.1" xmlns="http://www.w3.org/2000/svg"><path fill="#ffffff" d="M576 384c23.466667 0 42.666667-19.2 42.666667-42.666667s-19.2-42.666667-42.666667-42.666667-42.666667 19.2-42.666667 42.666667S552.533333 384 576 384zM497.066667 403.2l-21.333333-36.266667c-14.933333 8.533333-25.6 19.2-36.266667 32l32 27.733333C480 418.133333 488.533333 409.6 497.066667 403.2zM213.333333 725.333333c23.466667 0 42.666667-19.2 42.666667-42.666667 0-23.466667-19.2-42.666667-42.666667-42.666667s-42.666667 19.2-42.666667 42.666667C170.666667 706.133333 189.866667 725.333333 213.333333 725.333333zM315.733333 522.666667l-23.466667-36.266667c-12.8 8.533333-25.6 17.066667-36.266667 27.733333l27.733333 32C294.4 537.6 302.933333 529.066667 315.733333 522.666667zM260.266667 571.733333l-34.133333-23.466667c-10.666667 14.933333-17.066667 27.733333-21.333333 42.666667l40.533333 12.8C247.466667 593.066667 253.866667 582.4 260.266667 571.733333zM757.333333 445.866667l4.266667 4.266667 32-27.733333L789.333333 418.133333c-6.4-8.533333-14.933333-17.066667-21.333333-27.733333l-34.133333 25.6C740.266667 426.666667 748.8 437.333333 757.333333 445.866667zM804.266667 646.4C800 642.133333 795.733333 640 789.333333 640c-12.8 0-21.333333 8.533333-21.333333 21.333333 0 6.4 2.133333 10.666667 6.4 14.933333l27.733333 27.733333-27.733333 27.733333C770.133333 736 768 740.266667 768 746.666667c0 12.8 8.533333 21.333333 21.333333 21.333333 6.4 0 10.666667-2.133333 14.933333-6.4l27.733333-27.733333 27.733333 27.733333c4.266667 4.266667 8.533333 6.4 14.933333 6.4 12.8 0 21.333333-8.533333 21.333333-21.333333 0-6.4-2.133333-10.666667-6.4-14.933333L861.866667 704l27.733333-27.733333c4.266667-4.266667 6.4-8.533333 6.4-14.933333 0-12.8-8.533333-21.333333-21.333333-21.333333-6.4 0-10.666667 2.133333-14.933333 6.4L832 674.133333 804.266667 646.4zM966.4 130.133333 966.4 130.133333l-298.666667-85.333333 0 0C665.6 42.666667 663.466667 42.666667 661.333333 42.666667s-4.266667 0-6.4 2.133333l0 0L362.666667 128 70.4 42.666667l0 0C68.266667 42.666667 66.133333 42.666667 64 42.666667 51.2 42.666667 42.666667 51.2 42.666667 64l0 810.666667c0 10.666667 6.4 17.066667 14.933333 19.2l0 0 298.666667 85.333333 0 0c2.133333 0 4.266667 2.133333 6.4 2.133333s4.266667 0 6.4-2.133333l0 0L661.333333 896 953.6 981.333333l0 0c2.133333 0 4.266667 2.133333 6.4 2.133333 12.8 0 21.333333-8.533333 21.333333-21.333333L981.333333 149.333333C981.333333 138.666667 974.933333 132.266667 966.4 130.133333zM341.333333 932.266667 85.333333 857.6 85.333333 91.733333l256 72.533333L341.333333 932.266667zM640 857.6l-256 72.533333L384 448l17.066667 36.266667c14.933333-6.4 27.733333-14.933333 40.533333-27.733333L411.733333 426.666667c-8.533333 8.533333-17.066667 14.933333-27.733333 19.2L384 166.4l256-72.533333L640 857.6zM938.666667 932.266667l-256-72.533333L682.666667 377.6c10.666667 4.266667 19.2 8.533333 25.6 14.933333l25.6-34.133333c-10.666667-8.533333-25.6-14.933333-40.533333-21.333333L682.666667 358.4 682.666667 91.733333l256 72.533333L938.666667 932.266667zM800 514.133333l40.533333-12.8c-4.266667-14.933333-10.666667-27.733333-21.333333-42.666667l-36.266667 23.466667C791.466667 492.8 797.866667 503.466667 800 514.133333zM804.266667 586.666667l42.666667 6.4c2.133333-17.066667 2.133333-32 2.133333-44.8l-42.666667 2.133333C808.533333 561.066667 806.4 573.866667 804.266667 586.666667z" /></svg>