<?xml version="1.0" standalone="no"?><!DOCTYPE svg PUBLIC "-//W3C//DTD SVG 1.1//EN" "http://www.w3.org/Graphics/SVG/1.1/DTD/svg11.dtd"><svg class="icon" width="200px" height="200.00px" viewBox="0 0 1024 1024" version="1.1" xmlns="http://www.w3.org/2000/svg"><path fill="#ffffff" d="M515.236802 416.449305c-25.410344 0-49.310661 9.905482-67.279249 27.87407-17.968588 17.968588-27.87407 41.861681-27.87407 67.279249 0 25.432019 9.905482 49.310661 27.87407 67.286474s41.868906 27.866845 67.279249 27.866845c25.432019 0 49.317886-9.891032 67.293699-27.866845 17.968588-17.975813 27.85962-41.861681 27.85962-67.286474 0-25.417569-9.891032-49.310661-27.85962-67.279249C564.554688 426.354787 540.661596 416.449305 515.236802 416.449305zM693.087533 348.303055c0-17.224413 4.060453-34.02255 11.783984-49.216736-28.242546-25.186368-61.441445-44.650533-97.039046-56.904142-8.460481 13.78531-19.91934 25.554844-33.61795 34.419925-17.571213 11.386608-37.960178 17.390588-58.970493 17.390588-21.01754 0-41.39928-6.011204-58.977718-17.390588-13.69861-8.872306-25.157468-20.634615-33.625175-34.419925-35.221901 12.123559-68.095675 31.313173-96.128695 56.116616 7.998081 15.382036 12.188584 32.454724 12.188584 50.004262 0 58.009567-45.705383 105.542877-102.999675 108.497904-3.496903 17.975813-5.274254 36.356227-5.274254 54.787215 0 18.452664 1.777351 36.825852 5.274254 54.801665 57.294292 2.947802 102.999675 50.481112 102.999675 108.490679 0 17.556763-4.190503 34.622225-12.188584 50.011487 28.033021 24.803443 60.906795 43.985832 96.128695 56.116616 8.467706-13.78531 19.926565-25.554844 33.625175-34.434375 17.571213-11.372158 37.960178-17.383363 58.977718-17.383363 21.010315 0 41.39928 6.011204 58.970493 17.383363 13.69861 8.879532 25.157468 20.64184 33.61795 34.434375 35.612051-12.253609 68.789275-31.724998 97.039046-56.918592-7.723531-15.179736-11.783984-31.985098-11.783984-49.209511 0-57.561617 45.011783-104.798702 101.670274-108.411204 3.504128-17.997488 5.295929-36.414027 5.295929-54.88114 0-18.459889-1.791801-36.876427-5.295929-54.873915C738.099316 453.108982 693.087533 405.864672 693.087533 348.303055zM515.236802 633.950864c-67.561024 0-122.33379-54.772765-122.33379-122.34824 0-67.568249 54.772765-122.326565 122.33379-122.326565 67.575474 0 122.341015 54.76554 122.341015 122.326565C637.570592 579.178099 582.805052 633.950864 515.236802 633.950864zM515.236802 10.064432c-276.992253 0-501.538192 224.545939-501.538192 501.545417 0 276.970578 224.545939 501.516517 501.538192 501.516517 276.992253 0 501.545417-224.538714 501.545417-501.516517C1016.774995 234.610372 792.22183 10.064432 515.236802 10.064432zM818.9977 583.014577c0 0.01445 0 0.021675 0 0.036125-0.0578 0.21675-0.122825 0.426275-0.1734 0.6358-0.065025 0.180625-0.1156 0.39015-0.166175 0.570775-0.07225 0.18785-0.151725 0.382925-0.21675 0.570775-0.079475 0.2023-0.151725 0.4046-0.238425 0.599675-0.07225 0.15895-0.151725 0.3179-0.223975 0.484075-0.122825 0.21675-0.21675 0.4335-0.339575 0.6358-0.079475 0.1445-0.15895 0.267325-0.238425 0.411825-0.137275 0.2312-0.27455 0.455175-0.426275 0.657475-0.093925 0.122825-0.166175 0.223975-0.24565 0.3468-0.15895 0.2312-0.339575 0.455175-0.5202 0.657475-0.079475 0.10115-0.151725 0.195075-0.2312 0.289-0.2023 0.223975-0.4046 0.440725-0.62135 0.65025-0.079475 0.079475-0.151725 0.151725-0.238425 0.2312-0.2312 0.2312-0.4913 0.455175-0.751401 0.657475-0.0578 0.04335-0.10115 0.093925-0.151725 0.1445-0.3179 0.24565-0.6358 0.47685-0.975376 0.693601-0.122825 0.0867-0.238425 0.1445-0.36125 0.21675-0.21675 0.137275-0.440725 0.267325-0.6647 0.39015-0.151725 0.093925-0.325125 0.15895-0.484075 0.238425-0.195075 0.10115-0.397375 0.195075-0.59245 0.281775-0.180625 0.079475-0.339575 0.137275-0.5202 0.2023-0.21675 0.079475-0.41905 0.15895-0.6358 0.223975-0.166175 0.0578-0.339575 0.108375-0.498525 0.151725-0.238425 0.065025-0.484075 0.13005-0.729726 0.1734-0.151725 0.04335-0.296225 0.07225-0.455175 0.10115-0.30345 0.0578-0.62135 0.10115-0.939251 0.1445-0.0867 0.007225-0.180625 0.0289-0.267325 0.036125-0.4335 0.04335-0.852551 0.065025-1.286051 0.065025-0.1445 0-0.27455-0.01445-0.411825-0.01445-0.0578 0-0.1156 0-0.1734 0-0.050575-0.007225-0.108375-0.007225-0.166175-0.007225l-0.021675 0c-1.192126-0.050575-2.268652-0.07225-3.272927-0.07225-44.925083 0-81.46916 36.544077-81.46916 81.45471 0 15.844437 4.558978 31.197573 13.156735 44.404883 0.021675 0.021675 0.021675 0.04335 0.04335 0.0578 0.1734 0.281775 0.339575 0.570775 0.4913 0.852551 0.065025 0.1156 0.13005 0.21675 0.1734 0.33235 0.1445 0.27455 0.2601 0.556325 0.382925 0.830876 0.0578 0.1445 0.1445 0.281775 0.18785 0.41905 0.0867 0.21675 0.151725 0.455175 0.223975 0.67915 0.07225 0.195075 0.1445 0.397375 0.195075 0.6069 0.04335 0.151725 0.065025 0.296225 0.10115 0.44795 0.07225 0.289 0.1445 0.56355 0.195075 0.852551 0.01445 0.07225 0.01445 0.1445 0.021675 0.209525 0.065025 0.368475 0.122825 0.729726 0.1445 1.090976 0 0.0289 0 0.07225 0 0.108375 0.0289 0.397375 0.04335 0.794751 0.04335 1.184901 0 0.122825-0.021675 0.2312-0.021675 0.3468-0.021675 0.3179-0.04335 0.6358-0.07225 0.946476-0.0289 0.27455-0.093925 0.541875-0.13005 0.816426-0.036125 0.151725-0.04335 0.30345-0.0867 0.455175-0.079475 0.368475-0.166175 0.715276-0.27455 1.069301-0.021675 0.0578-0.0289 0.13005-0.050575 0.18785-0.1156 0.325125-0.223975 0.65025-0.3468 0.975376-0.04335 0.079475-0.07225 0.1734-0.10115 0.252875-0.122825 0.2601-0.238425 0.50575-0.36125 0.751401-0.079475 0.151725-0.151725 0.296225-0.223975 0.44795-0.093925 0.180625-0.209525 0.354025-0.310675 0.5202-0.1445 0.2023-0.2601 0.426275-0.397375 0.6358-0.0867 0.122825-0.180625 0.223975-0.2601 0.3468-0.1734 0.24565-0.368475 0.4913-0.56355 0.736951-0.079475 0.10115-0.166175 0.180625-0.24565 0.281775-0.21675 0.24565-0.455175 0.484075-0.693601 0.722501-0.01445 0.021675-0.0289 0.036125-0.050575 0.050575-35.583151 34.217625-79.243858 59.779694-126.271417 73.911804-0.021675 0-0.04335 0.007225-0.065025 0.021675-0.614125 0.1734-1.228251 0.3179-1.842376 0.4046-0.04335 0.01445-0.10115 0.01445-0.151725 0.021675-0.252875 0.036125-0.498525 0.065025-0.758626 0.0867-0.0578 0.007225-0.122825 0.01445-0.18785 0.01445-0.296225 0.021675-0.59245 0.036125-0.881451 0.036125l-0.021675 0c-0.036125 0-0.0578 0-0.10115 0-0.296225 0-0.6069-0.01445-0.910351-0.04335-0.1445-0.007225-0.281775-0.0289-0.41905-0.04335-0.2023-0.01445-0.4046-0.050575-0.585225-0.07225-0.15895-0.0289-0.310675-0.0578-0.469625-0.0867-0.1734-0.0289-0.354025-0.065025-0.53465-0.1156-0.151725-0.0289-0.296225-0.07225-0.455175-0.108375-0.180625-0.050575-0.36125-0.10115-0.53465-0.15895-0.1445-0.036125-0.281775-0.0867-0.426275-0.13005-0.195075-0.07225-0.3757-0.1445-0.570775-0.21675-0.122825-0.050575-0.238425-0.093925-0.36125-0.151725-0.21675-0.093925-0.440725-0.195075-0.657475-0.296225-0.079475-0.050575-0.151725-0.0867-0.24565-0.137275-0.614125-0.3179-1.199351-0.671925-1.755676-1.083751-0.021675 0-0.021675-0.01445-0.04335-0.021675-0.252875-0.18785-0.512975-0.4046-0.758626-0.6069-0.065025-0.065025-0.13005-0.122825-0.18785-0.166175-0.18785-0.166175-0.3757-0.3468-0.556325-0.512975-0.079475-0.093925-0.151725-0.180625-0.24565-0.267325-0.151725-0.151725-0.296225-0.310675-0.440725-0.47685-0.10115-0.108375-0.18785-0.21675-0.27455-0.325125-0.137275-0.151725-0.24565-0.310675-0.3468-0.455175-0.1156-0.1445-0.2023-0.267325-0.30345-0.411825-0.10115-0.137275-0.195075-0.289-0.289-0.440725-0.0867-0.151725-0.180625-0.296225-0.27455-0.455175s-0.166175-0.30345-0.24565-0.455175c-0.079475-0.151725-0.15895-0.3179-0.238425-0.484075-0.021675-0.0289-0.04335-0.0578-0.0578-0.10115-6.49528-13.792535-16.711437-25.482594-29.543047-33.79135-13.156735-8.518281-28.452071-13.026685-44.209807-13.026685-15.750512 0-31.038623 4.508403-44.195357 13.026685-12.831609 8.301531-23.047767 19.998815-29.550272 33.79135-0.007225 0.0289-0.021675 0.065025-0.036125 0.079475-0.368475 0.773076-0.809201 1.510026-1.307726 2.189177-0.079475 0.1156-0.15895 0.209525-0.238425 0.310675-0.166175 0.21675-0.3468 0.440725-0.527425 0.643025-0.108375 0.122825-0.21675 0.238425-0.325125 0.354025-0.1734 0.180625-0.354025 0.354025-0.53465 0.53465-0.122825 0.108375-0.2312 0.21675-0.354025 0.325125-0.223975 0.18785-0.44795 0.368475-0.67915 0.541875-0.137275 0.1156-0.281775 0.21675-0.426275 0.3179-0.2601 0.18785-0.5202 0.3757-0.787526 0.527425-0.137275 0.079475-0.281775 0.15895-0.41905 0.238425-0.209525 0.122825-0.426275 0.238425-0.65025 0.3468-0.1445 0.07225-0.289 0.13005-0.440725 0.195075-0.2312 0.1156-0.4624 0.195075-0.708051 0.30345-0.13005 0.050575-0.267325 0.10115-0.4046 0.151725-0.289 0.10115-0.585225 0.180625-0.888676 0.267325-0.0867 0.0289-0.166175 0.0578-0.2601 0.079475-0.397375 0.10115-0.787526 0.1734-1.199351 0.24565-0.065025 0.007225-0.137275 0.007225-0.209525 0.021675-0.325125 0.050575-0.657475 0.079475-0.989826 0.108375-0.1445 0.01445-0.281775 0.01445-0.426275 0.021675-0.15895 0-0.3179 0.021675-0.484075 0.021675-0.108375 0-0.223975-0.007225-0.33235-0.021675-0.137275 0-0.267325 0-0.4046-0.007225-0.296225-0.021675-0.585225-0.050575-0.881451-0.079475-0.108375-0.021675-0.21675-0.021675-0.3179-0.04335-0.368475-0.050575-0.736951-0.13005-1.112651-0.209525-0.151725-0.036125-0.289-0.079475-0.440725-0.108375-0.137275-0.04335-0.289-0.079475-0.426275-0.122825-46.651859-14.023735-90.016341-39.296804-125.433317-73.109829-0.036125-0.0289-0.07225-0.065025-0.108375-0.108375-0.195075-0.195075-0.39015-0.411825-0.578-0.614125-0.122825-0.137275-0.24565-0.2601-0.354025-0.39015-0.1734-0.209525-0.33235-0.41905-0.484075-0.628575-0.1156-0.151725-0.2312-0.310675-0.339575-0.4624-0.13005-0.18785-0.24565-0.39015-0.36125-0.585225-0.1156-0.18785-0.2312-0.382925-0.339575-0.578-0.093925-0.166175-0.1734-0.3468-0.2601-0.5202-0.1156-0.21675-0.223975-0.440725-0.3179-0.67915-0.065025-0.15895-0.122825-0.33235-0.18785-0.4913-0.0867-0.238425-0.180625-0.484075-0.2601-0.744176-0.050575-0.166175-0.093925-0.339575-0.1445-0.512975-0.0578-0.24565-0.13005-0.484075-0.180625-0.736951-0.036125-0.195075-0.065025-0.397375-0.093925-0.585225-0.04335-0.223975-0.0867-0.455175-0.108375-0.686376-0.021675-0.2312-0.036125-0.455175-0.050575-0.686376-0.01445-0.195075-0.0289-0.4046-0.036125-0.6069 0-0.24565 0.007225-0.498525 0.021675-0.751401 0-0.1734 0.007225-0.36125 0.01445-0.53465 0.021675-0.2601 0.0578-0.512975 0.093925-0.765851 0.021675-0.1734 0.04335-0.368475 0.07225-0.541875 0.04335-0.223975 0.10115-0.4624 0.15895-0.708051 0.04335-0.195075 0.0867-0.397375 0.1445-0.585225 0.050575-0.209525 0.13005-0.411825 0.195075-0.614125 0.07225-0.2312 0.1445-0.455175 0.2312-0.67915 0.07225-0.166175 0.1445-0.325125 0.223975-0.50575 0.108375-0.24565 0.21675-0.4913 0.339575-0.736951 0.07225-0.151725 0.15895-0.289 0.24565-0.44795 0.137275-0.24565 0.281775-0.498525 0.440725-0.736951 0.021675-0.04335 0.04335-0.093925 0.07225-0.137275 8.893982-13.36626 13.59746-28.950596 13.59746-45.069583 0-44.917858-36.544077-81.45471-81.46916-81.45471-1.452226 0-2.976702 0.04335-4.515628 0.13005-0.281775 0.021675-0.556325 0.036125-0.838101 0.036125-0.426275 0-0.845326-0.036125-1.271601-0.07225-0.108375-0.01445-0.2023-0.0289-0.30345-0.04335-0.30345-0.0289-0.599675-0.079475-0.895901-0.13005-0.151725-0.0289-0.30345-0.07225-0.4624-0.10115-0.2312-0.065025-0.4624-0.1156-0.700826-0.180625-0.1734-0.050575-0.3468-0.10115-0.5202-0.151725-0.2023-0.07225-0.411825-0.1445-0.6069-0.209525-0.180625-0.065025-0.354025-0.137275-0.527425-0.2023-0.195075-0.093925-0.39015-0.180625-0.578-0.267325-0.166175-0.093925-0.339575-0.15895-0.498525-0.24565-0.2023-0.1156-0.411825-0.2312-0.6069-0.36125-0.1445-0.079475-0.281775-0.15895-0.411825-0.24565-0.3179-0.195075-0.62135-0.41905-0.924801-0.657475-0.01445 0-0.021675-0.01445-0.036125-0.021675-0.3179-0.2601-0.628575-0.512975-0.924801-0.794751-0.050575-0.0578-0.108375-0.1156-0.15895-0.166175-0.2312-0.223975-0.4624-0.455175-0.67915-0.693601-0.079475-0.093925-0.151725-0.1734-0.223975-0.267325-0.180625-0.21675-0.368475-0.440725-0.53465-0.6647-0.0867-0.122825-0.15895-0.2312-0.238425-0.339575-0.151725-0.21675-0.296225-0.440725-0.4335-0.657475-0.0867-0.1445-0.166175-0.281775-0.24565-0.41905-0.122825-0.209525-0.2312-0.41905-0.339575-0.628575-0.079475-0.166175-0.15895-0.325125-0.238425-0.4913-0.0867-0.195075-0.166175-0.4046-0.24565-0.599675-0.079475-0.18785-0.151725-0.3757-0.21675-0.570775-0.07225-0.18785-0.122825-0.382925-0.180625-0.570775-0.065025-0.2023-0.122825-0.41905-0.1734-0.62135-0.007225-0.04335-0.021675-0.0867-0.0289-0.122825-5.469329-23.307867-8.236506-47.367135-8.236506-71.498652 0-24.124293 2.767177-48.176335 8.236506-71.491427 0.007225-0.050575 0.0289-0.10115 0.04335-0.151725 0.07225-0.289 0.15895-0.570775 0.24565-0.845326 0.050575-0.151725 0.093925-0.310675 0.151725-0.455175 0.093925-0.281775 0.209525-0.53465 0.3179-0.794751 0.07225-0.15895 0.13005-0.3179 0.195075-0.4624 0.1156-0.238425 0.24565-0.469625 0.3757-0.708051 0.0867-0.15895 0.166175-0.3179 0.2601-0.47685 0.13005-0.209525 0.267325-0.41905 0.4046-0.614125 0.1156-0.15895 0.21675-0.325125 0.339575-0.484075 0.137275-0.195075 0.296225-0.3757 0.44795-0.556325 0.122825-0.151725 0.24565-0.30345 0.382925-0.455175 0.166175-0.18785 0.3468-0.354025 0.527425-0.53465 0.13005-0.13005 0.252875-0.267325 0.39015-0.39015 0.2023-0.180625 0.426275-0.354025 0.6358-0.53465 0.122825-0.0867 0.2312-0.18785 0.354025-0.281775 0.24565-0.18785 0.498525-0.354025 0.751401-0.527425 0.108375-0.07225 0.209525-0.137275 0.310675-0.209525 0.27455-0.15895 0.556325-0.3179 0.845326-0.4624 0.10115-0.050575 0.195075-0.108375 0.30345-0.15895 0.27455-0.1445 0.570775-0.2601 0.859776-0.3757 0.1156-0.04335 0.2312-0.10115 0.354025-0.1445 0.267325-0.10115 0.53465-0.18785 0.801976-0.267325 0.15895-0.050575 0.310675-0.10115 0.469625-0.137275 0.2312-0.07225 0.4624-0.108375 0.700826-0.15895 0.21675-0.04335 0.426275-0.093925 0.6358-0.122825 0.18785-0.036125 0.382925-0.050575 0.578-0.079475 0.267325-0.0289 0.5202-0.0578 0.787526-0.065025 0.15895-0.007225 0.33235-0.007225 0.50575-0.007225 0.289-0.007225 0.578-0.007225 0.867001 0 0.050575 0 0.10115 0 0.1445 0 1.575051 0.0867 3.121202 0.13005 4.587878 0.13005 44.925083 0 81.46916-36.536852 81.46916-81.45471 0-16.118987-4.703478-31.703323-13.59746-45.062358-0.0289-0.050575-0.050575-0.10115-0.079475-0.137275-0.151725-0.238425-0.296225-0.484075-0.4335-0.729726-0.079475-0.15895-0.1734-0.30345-0.252875-0.455175-0.13005-0.238425-0.238425-0.484075-0.339575-0.729726-0.079475-0.180625-0.15895-0.3468-0.2312-0.527425-0.0867-0.209525-0.151725-0.440725-0.2312-0.657475-0.07225-0.209525-0.1445-0.41905-0.2023-0.62135-0.0578-0.18785-0.093925-0.39015-0.1445-0.578-0.0578-0.238425-0.1156-0.47685-0.15895-0.715276-0.0289-0.180625-0.050575-0.36125-0.07225-0.53465-0.036125-0.2601-0.07225-0.5202-0.093925-0.765851-0.007225-0.18785-0.007225-0.368475-0.01445-0.5491-0.007225-0.2601-0.021675-0.50575-0.021675-0.751401 0.007225-0.209525 0.021675-0.4046 0.036125-0.6069 0.01445-0.223975 0.021675-0.455175 0.050575-0.671925 0.021675-0.238425 0.07225-0.4624 0.108375-0.693601 0.0289-0.195075 0.050575-0.39015 0.10115-0.585225 0.050575-0.252875 0.122825-0.498525 0.180625-0.736951 0.04335-0.1734 0.0867-0.3468 0.137275-0.512975 0.079475-0.24565 0.1734-0.498525 0.267325-0.736951 0.0578-0.166175 0.122825-0.339575 0.180625-0.50575 0.10115-0.21675 0.209525-0.44795 0.3179-0.6647 0.0867-0.180625 0.166175-0.36125 0.2601-0.541875 0.108375-0.18785 0.223975-0.3757 0.339575-0.56355 0.122825-0.195075 0.238425-0.397375 0.368475-0.585225 0.108375-0.15895 0.223975-0.30345 0.339575-0.455175 0.15895-0.21675 0.310675-0.426275 0.484075-0.6358 0.1156-0.13005 0.2312-0.2601 0.3468-0.39015 0.18785-0.209525 0.382925-0.41905 0.585225-0.614125 0.036125-0.036125 0.065025-0.079475 0.108375-0.122825 35.416976-33.798575 78.788683-59.071643 125.433317-73.095379 0.108375-0.036125 0.209525-0.050575 0.310675-0.079475 0.252875-0.065025 0.512975-0.137275 0.765851-0.18785 0.195075-0.036125 0.3757-0.079475 0.570775-0.108375 0.252875-0.036125 0.50575-0.079475 0.758626-0.108375 0.2023-0.021675 0.4046-0.036125 0.599675-0.050575 0.238425-0.021675 0.469625-0.0289 0.708051-0.0289 0.21675 0 0.440725 0 0.657475 0.007225 0.209525 0 0.426275 0.021675 0.643025 0.0289 0.223975 0.01445 0.455175 0.050575 0.686376 0.079475 0.2023 0.021675 0.4046 0.0578 0.599675 0.0867 0.2312 0.04335 0.455175 0.093925 0.686376 0.1445 0.195075 0.050575 0.39015 0.10115 0.585225 0.15895 0.223975 0.0578 0.44795 0.13005 0.6647 0.195075 0.195075 0.07225 0.397375 0.1445 0.59245 0.21675 0.2023 0.079475 0.4046 0.15895 0.599675 0.252875 0.209525 0.10115 0.4046 0.18785 0.6069 0.289 0.180625 0.10115 0.36125 0.18785 0.53465 0.289 0.209525 0.122825 0.411825 0.24565 0.6069 0.368475 0.15895 0.108375 0.325125 0.21675 0.484075 0.325125 0.195075 0.137275 0.39015 0.281775 0.585225 0.426275 0.151725 0.122825 0.30345 0.24565 0.455175 0.368475 0.180625 0.15895 0.36125 0.3179 0.53465 0.484075 0.151725 0.1445 0.296225 0.289 0.44795 0.440725 0.151725 0.15895 0.310675 0.325125 0.455175 0.498525 0.151725 0.166175 0.296225 0.3468 0.440725 0.527425 0.122825 0.166175 0.24565 0.325125 0.368475 0.498525 0.151725 0.195075 0.289 0.41905 0.426275 0.62135 0.10115 0.166175 0.195075 0.325125 0.30345 0.498525 0.13005 0.2312 0.252875 0.4624 0.368475 0.708051 0.04335 0.0867 0.108375 0.1734 0.151725 0.289 6.502505 13.79976 16.711437 25.475369 29.550272 33.79135 13.156735 8.518281 28.444846 13.01946 44.195357 13.01946 15.764962 0 31.053073-4.501178 44.209807-13.01946 12.831609-8.315981 23.040542-19.99159 29.543047-33.79135 0.050575-0.108375 0.108375-0.195075 0.151725-0.296225 0.122825-0.2312 0.238425-0.4624 0.368475-0.693601 0.10115-0.166175 0.209525-0.339575 0.310675-0.498525 0.13005-0.209525 0.267325-0.41905 0.41905-0.62135 0.122825-0.166175 0.238425-0.339575 0.3757-0.498525 0.1445-0.180625 0.281775-0.354025 0.440725-0.527425 0.1445-0.166175 0.30345-0.339575 0.455175-0.50575 0.1445-0.151725 0.281775-0.289 0.440725-0.426275 0.1734-0.166175 0.36125-0.325125 0.53465-0.484075 0.1445-0.13005 0.296225-0.24565 0.440725-0.354025 0.195075-0.15895 0.397375-0.30345 0.599675-0.44795 0.151725-0.10115 0.3179-0.209525 0.469625-0.30345 0.209525-0.13005 0.41905-0.2601 0.628575-0.3757 0.166175-0.10115 0.3468-0.18785 0.5202-0.281775 0.2023-0.108375 0.41905-0.195075 0.62135-0.296225 0.195075-0.093925 0.397375-0.166175 0.59245-0.252875 0.195075-0.079475 0.397375-0.151725 0.6069-0.21675 0.209525-0.065025 0.426275-0.137275 0.643025-0.195075 0.2023-0.0578 0.4046-0.108375 0.599675-0.15895 0.223975-0.050575 0.455175-0.10115 0.693601-0.1445 0.2023-0.0289 0.4046-0.065025 0.599675-0.0867 0.223975-0.036125 0.455175-0.0578 0.693601-0.079475 0.209525-0.007225 0.426275-0.0289 0.643025-0.04335 0.209525 0 0.4335-0.007225 0.65025 0 0.238425 0 0.47685 0.007225 0.700826 0.0289 0.209525 0.007225 0.41905 0.0289 0.614125 0.050575 0.24565 0.0289 0.498525 0.07225 0.751401 0.108375 0.18785 0.0289 0.382925 0.07225 0.56355 0.108375 0.2601 0.050575 0.5202 0.122825 0.765851 0.18785 0.108375 0.021675 0.21675 0.04335 0.3179 0.079475 47.020334 14.13211 90.688266 39.686954 126.271417 73.911804 0.01445 0.007225 0.021675 0.0289 0.04335 0.036125 0.2601 0.252875 0.484075 0.50575 0.715276 0.765851 0.07225 0.079475 0.15895 0.15895 0.21675 0.238425 0.21675 0.24565 0.4046 0.50575 0.599675 0.758626 0.079475 0.108375 0.151725 0.21675 0.238425 0.325125 0.137275 0.209525 0.27455 0.440725 0.4046 0.657475 0.10115 0.166175 0.209525 0.325125 0.30345 0.498525 0.0867 0.15895 0.151725 0.3179 0.223975 0.484075 0.122825 0.223975 0.238425 0.4624 0.3468 0.715276 0.050575 0.10115 0.07225 0.2023 0.1156 0.30345 0.122825 0.30345 0.2312 0.614125 0.3468 0.924801 0.021675 0.0867 0.0289 0.166175 0.07225 0.2601 0.0867 0.325125 0.1734 0.6647 0.252875 1.004276 0.04335 0.166175 0.065025 0.339575 0.0867 0.50575 0.036125 0.2601 0.10115 0.50575 0.122825 0.765851 0.036125 0.325125 0.0578 0.65025 0.065025 0.982601 0.01445 0.10115 0.021675 0.209525 0.036125 0.310675 0 0.4046-0.01445 0.801976-0.04335 1.206576 0 0.0289 0 0.0578 0 0.0867-0.0289 0.368475-0.079475 0.736951-0.1445 1.105426-0.007225 0.0578-0.021675 0.13005-0.0289 0.195075-0.050575 0.289-0.122825 0.578-0.18785 0.852551-0.036125 0.151725-0.0578 0.30345-0.10115 0.44795-0.0578 0.195075-0.137275 0.4046-0.195075 0.6069-0.079475 0.223975-0.1445 0.455175-0.223975 0.671925-0.050575 0.1445-0.137275 0.281775-0.18785 0.41905-0.122825 0.281775-0.238425 0.556325-0.382925 0.838101-0.0578 0.108375-0.1156 0.21675-0.1734 0.325125-0.151725 0.289-0.3179 0.578-0.4913 0.852551-0.021675 0.021675-0.021675 0.036125-0.04335 0.0578-8.604981 13.20731-13.156735 28.560446-13.156735 44.404883 0 44.917858 36.544077 81.45471 81.45471 81.45471 1.062076 0 2.196402-0.01445 3.475228-0.079475 0.0289 0 0.050575 0 0.07225 0 0.289-0.007225 0.56355 0 0.845326 0.007225 0.180625 0 0.3757 0 0.56355 0.007225 0.1734 0.007225 0.3468 0.036125 0.512975 0.0578 0.296225 0.0289 0.578 0.0578 0.859776 0.10115 0.01445 0 0.021675 0.007225 0.036125 0.007225 3.995428 0.686376 7.39118 3.113977 9.392507 6.49528 0.21675 0.382925 0.440725 0.773076 0.62135 1.184901 0.01445 0.036125 0.01445 0.065025 0.036125 0.10115 0.166175 0.3757 0.33235 0.765851 0.4624 1.163226 0.021675 0.0578 0.04335 0.13005 0.065025 0.18785 0.122825 0.368475 0.223975 0.736951 0.3179 1.112651 0.007225 0.021675 0.007225 0.036125 0.007225 0.0578 5.462104 23.278967 8.229281 47.31656 8.229281 71.419177C827.226981 535.698017 824.459804 559.728385 818.9977 583.014577z" /></svg>