<?xml version="1.0" encoding="UTF-8"?>
<svg width="34px" height="34px" viewBox="0 0 34 34" version="1.1" xmlns="http://www.w3.org/2000/svg" xmlns:xlink="http://www.w3.org/1999/xlink">
    <!-- Generator: Sketch 53.1 (72631) - https://sketchapp.com -->
    <title>分组</title>
    <desc>Created with Sketch.</desc>
    <g id="Page-1" stroke="none" stroke-width="1" fill="none" fill-rule="evenodd">
        <g id="备份育成" transform="translate(-222.000000, -153.000000)">
            <g id="分组" transform="translate(222.000000, 153.000000)">
                <circle id="椭圆形" fill="#FFFFFF" fill-rule="nonzero" cx="17" cy="17" r="17"></circle>
                <path d="M16.9975094,1.66249494 C25.4505464,1.66249494 32.3424862,8.55343856 32.3424862,17.0024906 C32.3424862,25.4505464 25.4505464,32.3424862 16.9975094,32.3424862 C8.54945363,32.3424862 1.65751378,25.4505464 1.65751378,17.0024906 C1.65751378,8.55343856 8.54945363,1.66249494 16.9975094,1.66249494 Z M16.6826998,8.49964198 L24.0876996,11.5152393 L9.76685035,11.5152393 L16.6826998,8.49964198 Z M13.9819121,22.7188755 L14.2309704,22.7856231 C14.1921173,22.8981974 14.1253697,22.9798885 14.0396937,23.0346814 C13.9510289,23.0884779 13.8374584,23.1163725 13.7019707,23.1163725 C13.5306186,23.1163725 13.3901497,23.0695495 13.2855453,22.9759036 C13.1759597,22.8822577 13.1221631,22.7537437 13.1221631,22.5943464 C13.1221631,22.4229943 13.1759597,22.2914915 13.2855453,22.1938607 C13.3941347,22.1002148 13.5375922,22.0533919 13.7169142,22.0533919 C13.8723265,22.0533919 13.9968556,22.08826 14.0944865,22.1629775 C14.1532642,22.2088042 14.1961022,22.2715669 14.2269855,22.353258 L13.9699573,22.4040659 C13.9580026,22.3492731 13.9231344,22.306435 13.8763114,22.2755518 C13.8294885,22.2446686 13.771707,22.2287289 13.7019707,22.2287289 C13.6083248,22.2287289 13.5306186,22.2556272 13.4718409,22.31042 C13.4140593,22.3691977 13.3861648,22.4548738 13.3861648,22.5794029 C13.3861648,22.7069207 13.4140593,22.8005666 13.4718409,22.8553594 C13.5306186,22.9101522 13.6043398,22.9370505 13.6979857,22.9370505 C13.7677221,22.9370505 13.8264998,22.9211108 13.8723265,22.8862426 C13.9231344,22.8513745 13.9580026,22.7965817 13.9819121,22.7188755 Z M14.4640889,23.0964478 L14.4640889,22.0693316 L14.725102,22.0693316 L14.725102,22.4738022 L15.2272034,22.4738022 L15.2272034,22.0693316 L15.4842315,22.0693316 L15.4842315,23.0964478 L15.2272034,23.0964478 L15.2272034,22.6491392 L14.725102,22.6491392 L14.725102,23.0964478 L14.4640889,23.0964478 Z M15.7562031,23.0964478 L16.0132312,23.0964478 L16.0132312,22.0693316 L15.7562031,22.0693316 L15.7562031,23.0964478 Z M16.277233,23.0964478 L16.277233,22.0693316 L16.5262912,22.0693316 L17.0483173,22.7577286 L17.0483173,22.0693316 L17.2894057,22.0693316 L17.2894057,23.0964478 L17.0283926,23.0964478 L16.5153326,22.4269792 L16.5153326,23.0964478 L16.277233,23.0964478 Z M17.5733321,23.0964478 L17.5733321,22.0693316 L18.5187572,22.0693316 L18.5187572,22.2446686 L17.8343451,22.2446686 L17.8343451,22.4738022 L18.4729305,22.4738022 L18.4729305,22.6451543 L17.8343451,22.6451543 L17.8343451,22.9250957 L18.5426668,22.9250957 L18.5426668,23.0964478 L17.5733321,23.0964478 Z M18.7140189,22.7656985 L18.9630771,22.7427851 C18.9780206,22.8125214 19.0099001,22.8633293 19.0527381,22.8942125 C19.099561,22.9250957 19.1613275,22.9410355 19.2390337,22.9410355 C19.3247097,22.9410355 19.3874724,22.9250957 19.4263255,22.8981974 C19.4691635,22.8712992 19.4920768,22.8354348 19.4920768,22.8005666 C19.4920768,22.7736683 19.480122,22.7537437 19.4651785,22.7388002 C19.4452539,22.7188755 19.4143707,22.703932 19.3715326,22.6919772 C19.3406494,22.6840073 19.2739018,22.6680676 19.1653124,22.6491392 C19.0288285,22.6222409 18.9321939,22.5863765 18.8774011,22.5475234 C18.79571,22.4897419 18.7568569,22.4190094 18.7568569,22.3413032 C18.7568569,22.2875066 18.7757853,22.2366987 18.8146384,22.1938607 C18.8505028,22.1470378 18.9042994,22.1121696 18.971047,22.08826 C19.0407833,22.0653467 19.1264593,22.0533919 19.2240902,22.0533919 C19.3834874,22.0533919 19.5040316,22.0812864 19.5857227,22.1390679 C19.6634289,22.1938607 19.7062669,22.2715669 19.7102519,22.3652128 L19.4532237,22.3731827 C19.441269,22.3223748 19.4183556,22.2835217 19.3834874,22.2596121 C19.3486193,22.2366987 19.2938265,22.2247439 19.2201052,22.2247439 C19.1453878,22.2247439 19.0876062,22.2366987 19.0447682,22.263597 C19.0168737,22.2795368 19.0059151,22.2984652 19.0059151,22.3263597 C19.0059151,22.3492731 19.0168737,22.3731827 19.0407833,22.3881261 C19.0756514,22.4120357 19.1533576,22.4309642 19.2778867,22.4578625 C19.4024159,22.481772 19.4960618,22.5046854 19.5548395,22.5325799 C19.616606,22.5554933 19.6634289,22.5903614 19.6982971,22.6331995 C19.7291803,22.6800224 19.7491049,22.7348152 19.7491049,22.7965817 C19.7491049,22.8593444 19.7251954,22.9141372 19.6863423,22.9639488 C19.6474892,23.0147567 19.5897077,23.0536098 19.5149902,23.0775194 C19.441269,23.1044177 19.3486193,23.1163725 19.2390337,23.1163725 C19.0756514,23.1163725 18.9511223,23.084493 18.8654463,23.0267115 C18.7797702,22.9679338 18.7289624,22.8782728 18.7140189,22.7656985 Z M19.9782385,23.0964478 L19.9782385,22.0693316 L20.9246599,22.0693316 L20.9246599,22.2446686 L20.2352666,22.2446686 L20.2352666,22.4738022 L20.8778369,22.4738022 L20.8778369,22.6451543 L20.2352666,22.6451543 L20.2352666,22.9250957 L20.9475732,22.9250957 L20.9475732,23.0964478 L19.9782385,23.0964478 Z M12.3391239,24.5718689 L12.0591825,24.5718689 L11.9466081,24.3377541 L11.4365368,24.3377541 L11.3319324,24.5718689 L11.0589645,24.5718689 L11.557081,23.5437564 L11.8300489,23.5437564 L12.3391239,24.5718689 Z M11.864917,24.166402 L11.68958,23.785841 L11.518228,24.166402 L11.864917,24.166402 Z M13.3044737,24.1942966 L13.553532,24.2600479 C13.5146789,24.3686373 13.4529124,24.4543134 13.3632515,24.5091062 C13.2735905,24.563899 13.1610162,24.5907973 13.0245322,24.5907973 C12.8571651,24.5907973 12.7166962,24.5439743 12.6081068,24.4503284 C12.4995174,24.3576788 12.4447246,24.2291647 12.4447246,24.0697674 C12.4447246,23.8984154 12.4995174,23.7659164 12.6081068,23.6682855 C12.7166962,23.5756359 12.86115,23.5288129 13.0394757,23.5288129 C13.1958843,23.5288129 13.3243984,23.5636811 13.421033,23.6374023 C13.4798107,23.6842253 13.5226487,23.7459917 13.549547,23.8286791 L13.2965038,23.8784907 C13.2815603,23.8246941 13.2496809,23.7818561 13.2038542,23.7499767 C13.1530463,23.7190934 13.0942685,23.7031537 13.0285172,23.7031537 C12.9348713,23.7031537 12.8571651,23.7310482 12.7983873,23.7888297 C12.7406058,23.8396376 12.7087264,23.9292986 12.7087264,24.0538277 C12.7087264,24.1823418 12.7406058,24.2759877 12.7983873,24.3297843 C12.8531802,24.3845771 12.9308863,24.4114754 13.0245322,24.4114754 C13.0902836,24.4114754 13.1490614,24.3965319 13.1998692,24.3616637 C13.2496809,24.3267956 13.2855453,24.2720027 13.3044737,24.1942966 Z M14.9392921,24.5718689 L14.6593506,24.5718689 L14.54578,24.3377541 L14.0396937,24.3377541 L13.9350892,24.5718689 L13.6631176,24.5718689 L14.1572492,23.5437564 L14.4292208,23.5437564 L14.9392921,24.5718689 Z M14.4640889,24.166402 L14.2887519,23.785841 L14.1183961,24.166402 L14.4640889,24.166402 Z M15.0907195,23.5437564 L15.5579527,23.5437564 C15.6665421,23.5437564 15.7442483,23.5517263 15.8030261,23.5636811 C15.8767473,23.5826095 15.93951,23.614489 15.9933066,23.6613119 C16.0480994,23.7031537 16.0869525,23.7619314 16.1138508,23.8246941 C16.1417453,23.8904455 16.1566888,23.9721366 16.1566888,24.0697674 C16.1566888,24.1554435 16.1457302,24.2251798 16.1178357,24.2869462 C16.0869525,24.3616637 16.0401295,24.4234302 15.982348,24.4702531 C15.935525,24.5051213 15.8767473,24.5330158 15.8030261,24.5519442 C15.7442483,24.5678839 15.6665421,24.5718689 15.5728962,24.5718689 L15.0907195,24.5718689 L15.0907195,23.5437564 Z M15.3477476,23.7190934 L15.3477476,24.4005168 L15.5380281,24.4005168 C15.6087606,24.4005168 15.6625572,24.3965319 15.6944367,24.388562 C15.7372747,24.3805921 15.7721428,24.3686373 15.7990411,24.345724 C15.8259394,24.3267956 15.849849,24.2949161 15.8647925,24.2480931 C15.8807322,24.2012702 15.892687,24.1395038 15.892687,24.0578126 C15.892687,23.9801065 15.8807322,23.9173438 15.8647925,23.8784907 C15.849849,23.8356527 15.8219545,23.8007845 15.7910713,23.7778712 C15.760188,23.7539616 15.721335,23.7390181 15.674512,23.7310482 C15.6356589,23.7230784 15.5659226,23.7190934 15.4603219,23.7190934 L15.3477476,23.7190934 Z M16.3908035,24.5718689 L16.3908035,23.5437564 L17.3362286,23.5437564 L17.3362286,23.7190934 L16.6478316,23.7190934 L16.6478316,23.9492232 L17.2854208,23.9492232 L17.2854208,24.1195791 L16.6478316,24.1195791 L16.6478316,24.4005168 L17.359142,24.4005168 L17.359142,24.5718689 L16.3908035,24.5718689 Z M17.5892718,24.5718689 L17.5892718,23.5437564 L17.974814,23.5437564 L18.2039476,24.2441082 L18.4340774,23.5437564 L18.8186233,23.5437564 L18.8186233,24.5718689 L18.5815199,24.5718689 L18.5815199,23.7659164 L18.3284767,24.5718689 L18.0794184,24.5718689 L17.8263753,23.7659164 L17.8263753,24.5718689 L17.5892718,24.5718689 Z M19.4263255,24.5718689 L19.4263255,24.1395038 L18.9590922,23.5437564 L19.2589583,23.5437564 L19.5578282,23.9522119 L19.8537094,23.5437564 L20.1495906,23.5437564 L19.6793686,24.1434887 L19.6793686,24.5718689 L19.4263255,24.5718689 Z M20.6048691,24.0657825 C20.6048691,23.9601818 20.6208088,23.8705208 20.6596619,23.8007845 C20.6905451,23.7499767 20.7293982,23.7031537 20.7802061,23.6613119 C20.831014,23.6184739 20.8858068,23.5865944 20.9435883,23.567666 C21.0252794,23.5397715 21.1149404,23.5288129 21.2195448,23.5288129 C21.4068366,23.5288129 21.5582641,23.5756359 21.6678497,23.6682855 C21.780424,23.7619314 21.8392018,23.8944304 21.8392018,24.0617976 C21.8392018,24.2251798 21.784409,24.3576788 21.6718346,24.4503284 C21.5582641,24.5439743 21.4108216,24.5907973 21.2235298,24.5907973 C21.0332493,24.5907973 20.8818219,24.5439743 20.7722362,24.4503284 C20.6596619,24.3576788 20.6048691,24.2291647 20.6048691,24.0657825 Z M20.8698671,24.0578126 C20.8698671,24.1743719 20.9007503,24.2640329 20.9674979,24.3228106 C21.0332493,24.3845771 21.1189253,24.4114754 21.2195448,24.4114754 C21.3251455,24.4114754 21.4068366,24.3845771 21.472588,24.3228106 C21.5393356,24.2640329 21.5742038,24.1743719 21.5742038,24.0538277 C21.5742038,23.9372685 21.5393356,23.8515924 21.476573,23.7928147 C21.4148065,23.7350332 21.3291305,23.7031537 21.2195448,23.7031537 C21.1149404,23.7031537 21.0292643,23.7350332 20.9674979,23.7928147 C20.9007503,23.8515924 20.8698671,23.9412534 20.8698671,24.0578126 Z M22.0563806,24.5718689 L22.0563806,23.5437564 L22.9280844,23.5437564 L22.9280844,23.7190934 L22.3134087,23.7190934 L22.3134087,23.9641667 L22.8463933,23.9641667 L22.8463933,24.1355188 L22.3134087,24.1355188 L22.3134087,24.5718689 L22.0563806,24.5718689 Z M12.4995174,25.7155443 L12.7485757,25.692631 C12.7635192,25.7623673 12.7944024,25.8131752 12.8412254,25.8440584 C12.8880483,25.8749416 12.950811,25.8908814 13.0285172,25.8908814 C13.1102083,25.8908814 13.1719747,25.8749416 13.2148127,25.8480433 C13.2576508,25.821145 13.2775754,25.7852807 13.2775754,25.7504125 C13.2775754,25.7235142 13.2696056,25.7035896 13.2496809,25.6886461 C13.2347374,25.6687214 13.2038542,25.6537779 13.1570312,25.6418231 C13.1291367,25.6338532 13.0594004,25.6179135 12.9547959,25.5989851 C12.8143271,25.5720868 12.7166962,25.5362224 12.6628997,25.4973693 C12.5841973,25.4395878 12.5453442,25.3688553 12.5453442,25.2911491 C12.5453442,25.2373525 12.5652688,25.1865446 12.600137,25.1437066 C12.6350051,25.0968837 12.689798,25.0620155 12.7595343,25.0381059 C12.8302668,25.0151926 12.9119579,25.0032378 13.0085925,25.0032378 C13.1679898,25.0032378 13.288534,25.0311323 13.3712213,25.0889138 C13.4529124,25.1437066 13.4957504,25.2214128 13.4987391,25.3150587 L13.2427073,25.3230285 C13.2307525,25.2722207 13.2068429,25.2333676 13.1679898,25.209458 C13.1331216,25.1865446 13.0793251,25.1745898 13.0085925,25.1745898 C12.9308863,25.1745898 12.8731048,25.1865446 12.8332555,25.2134429 C12.8063572,25.2293826 12.7904175,25.2483111 12.7904175,25.2762056 C12.7904175,25.299119 12.8023723,25.3230285 12.8302668,25.337972 C12.86115,25.3618816 12.9388562,25.3808101 13.0673703,25.4077084 C13.1918994,25.4316179 13.2855453,25.4545313 13.3433268,25.4824258 C13.4021045,25.5053392 13.4489275,25.5402073 13.4837956,25.5830454 C13.5186638,25.6298683 13.5346035,25.6846611 13.5346035,25.7504125 C13.5346035,25.8091902 13.5146789,25.8629868 13.4718409,25.9137947 C13.4329878,25.9646026 13.37421,26.0034557 13.3004888,26.0273653 C13.2267675,26.0542636 13.1331216,26.0662184 13.0245322,26.0662184 C12.865135,26.0662184 12.7406058,26.0343389 12.6549298,25.9765574 C12.5692538,25.9177796 12.5144609,25.8281187 12.4995174,25.7155443 Z M14.5806482,25.6687214 L14.8297064,25.735469 C14.7908533,25.8480433 14.7290869,25.9297344 14.6394259,25.9845273 C14.549765,26.0383238 14.4371906,26.0662184 14.3007067,26.0662184 C14.1333396,26.0662184 13.9938669,26.0193954 13.8842813,25.9257495 C13.7756919,25.8321036 13.7208991,25.7035896 13.7208991,25.5441923 C13.7208991,25.3728402 13.7756919,25.2403412 13.8842813,25.1437066 C13.9938669,25.0500607 14.1373245,25.0032378 14.3166464,25.0032378 C14.4720588,25.0032378 14.6005728,25.0381059 14.6982037,25.1128234 C14.7559852,25.1586501 14.7988232,25.2214128 14.8257215,25.3031039 L14.5736745,25.3539118 C14.5577348,25.299119 14.5268516,25.2562809 14.4800286,25.2253977 C14.4292208,25.1945145 14.370443,25.1785748 14.3046916,25.1785748 C14.2110457,25.1785748 14.1333396,25.2054731 14.075558,25.2602659 C14.0167803,25.3190436 13.9858971,25.4047197 13.9858971,25.5292488 C13.9858971,25.6567666 14.0127954,25.7504125 14.0715731,25.8052053 C14.1293546,25.8599981 14.2070608,25.8868964 14.2967218,25.8868964 C14.3674543,25.8868964 14.4252358,25.8709567 14.4760437,25.8360885 C14.5228667,25.8012204 14.5577348,25.7464276 14.5806482,25.6687214 Z M15.0598362,26.0462937 L15.3168644,26.0462937 L15.3168644,25.0191775 L15.0598362,25.0191775 L15.0598362,26.0462937 Z M15.5768812,26.0462937 L15.5768812,25.0191775 L16.5193176,25.0191775 L16.5193176,25.1945145 L15.8339093,25.1945145 L15.8339093,25.4236481 L16.4724946,25.4236481 L16.4724946,25.5950002 L15.8339093,25.5950002 L15.8339093,25.8749416 L16.5462159,25.8749416 L16.5462159,26.0462937 L15.5768812,26.0462937 Z M16.7793344,26.0462937 L16.7793344,25.0191775 L17.0323776,25.0191775 L17.5504187,25.7075745 L17.5504187,25.0191775 L17.7915071,25.0191775 L17.7915071,26.0462937 L17.5304941,26.0462937 L17.021419,25.3768251 L17.021419,26.0462937 L16.7793344,26.0462937 Z M18.8933408,25.6687214 L19.1423991,25.735469 C19.1025497,25.8480433 19.0407833,25.9297344 18.9511223,25.9845273 C18.8614613,26.0383238 18.748887,26.0662184 18.6124031,26.0662184 C18.445036,26.0662184 18.3055633,26.0193954 18.1959777,25.9257495 C18.0873883,25.8321036 18.0325955,25.7035896 18.0325955,25.5441923 C18.0325955,25.3728402 18.0873883,25.2403412 18.1959777,25.1437066 C18.3055633,25.0500607 18.4490209,25.0032378 18.6283428,25.0032378 C18.7837552,25.0032378 18.9122692,25.0381059 19.0099001,25.1128234 C19.0676816,25.1586501 19.1105196,25.2214128 19.1384141,25.3031039 L18.8853709,25.3539118 C18.8694312,25.299119 18.838548,25.2562809 18.7877401,25.2253977 C18.7409172,25.1945145 18.6831356,25.1785748 18.616388,25.1785748 C18.5227421,25.1785748 18.445036,25.2054731 18.3872544,25.2602659 C18.3284767,25.3190436 18.2975935,25.4047197 18.2975935,25.5292488 C18.2975935,25.6567666 18.3244918,25.7504125 18.3832695,25.8052053 C18.441051,25.8599981 18.5187572,25.8868964 18.6084182,25.8868964 C18.6791507,25.8868964 18.7369322,25.8709567 18.7877401,25.8360885 C18.8345631,25.8012204 18.8694312,25.7464276 18.8933408,25.6687214 Z M19.3795025,26.0462937 L19.3795025,25.0191775 L20.3209427,25.0191775 L20.3209427,25.1945145 L19.6365306,25.1945145 L19.6365306,25.4236481 L20.2741197,25.4236481 L20.2741197,25.5950002 L19.6365306,25.5950002 L19.6365306,25.8749416 L20.347841,25.8749416 L20.347841,26.0462937 L19.3795025,26.0462937 Z M20.5152081,25.7155443 L20.7642664,25.692631 C20.7802061,25.7623673 20.8110893,25.8131752 20.8579123,25.8440584 C20.9047352,25.8749416 20.963513,25.8908814 21.0452041,25.8908814 C21.1268952,25.8908814 21.1886616,25.8749416 21.2314996,25.8480433 C21.2703527,25.821145 21.2942623,25.7852807 21.2942623,25.7504125 C21.2942623,25.7235142 21.2862925,25.7035896 21.2663678,25.6886461 C21.2514243,25.6687214 21.2195448,25.6537779 21.1737181,25.6418231 C21.1458236,25.6338532 21.0760873,25.6179135 20.9674979,25.5989851 C20.831014,25.5720868 20.7333831,25.5362224 20.6785903,25.4973693 C20.6008842,25.4395878 20.5620311,25.3688553 20.5620311,25.2911491 C20.5620311,25.2373525 20.5779708,25.1865446 20.6168239,25.1437066 C20.651692,25.0968837 20.7064849,25.0620155 20.7762212,25.0381059 C20.8429688,25.0151926 20.9276486,25.0032378 21.0252794,25.0032378 C21.1846767,25.0032378 21.3052209,25.0311323 21.386912,25.0889138 C21.4686031,25.1437066 21.5074562,25.2214128 21.515426,25.3150587 L21.2583979,25.3230285 C21.2474394,25.2722207 21.2235298,25.2333676 21.1846767,25.209458 C21.1498085,25.1865446 21.0950157,25.1745898 21.0212945,25.1745898 C20.9475732,25.1745898 20.8887955,25.1865446 20.8459575,25.2134429 C20.8190592,25.2293826 20.8071044,25.2483111 20.8071044,25.2762056 C20.8071044,25.299119 20.8190592,25.3230285 20.8459575,25.337972 C20.8778369,25.3618816 20.9555431,25.3808101 21.0800722,25.4077084 C21.2085863,25.4316179 21.2982473,25.4545313 21.3600137,25.4824258 C21.4187914,25.5053392 21.4656144,25.5402073 21.5004826,25.5830454 C21.5353507,25.6298683 21.5502942,25.6846611 21.5502942,25.7504125 C21.5502942,25.8091902 21.5313658,25.8629868 21.4885278,25.9137947 C21.4496747,25.9646026 21.3908969,26.0034557 21.3171757,26.0273653 C21.2434544,26.0542636 21.1498085,26.0662184 21.0412191,26.0662184 C20.8818219,26.0662184 20.7572927,26.0343389 20.6716167,25.9765574 C20.5819557,25.9177796 20.5311478,25.8281187 20.5152081,25.7155443 Z M9.63534759,14.2319666 C9.63534759,13.8424395 9.8136733,13.5385885 10.1763021,13.3214097 C10.5339498,13.1072196 11.0400361,12.9976339 11.6855951,12.9976339 C12.335139,12.9976339 12.8372404,13.1072196 13.1879144,13.3253946 C13.5415772,13.5385885 13.7208991,13.8543943 13.7208991,14.25488 L13.7208991,15.2550979 L11.9774914,15.2550979 L11.9774914,14.1692039 C11.9774914,14.0566296 11.954578,13.9829084 11.91174,13.9360854 C11.868902,13.8932474 11.7911958,13.8733227 11.6855951,13.8733227 C11.5730208,13.8733227 11.4913297,13.8972323 11.4484916,13.9400704 C11.4016687,13.9868933 11.3787553,14.0645995 11.3787553,14.1692039 L11.3787553,14.7141434 C11.3787553,14.8038044 11.3936988,14.8854955 11.428567,14.9512468 C11.4634351,15.0179945 11.518228,15.0837458 11.5959341,15.1504934 L13.2775754,16.4386227 C13.4369727,16.5591669 13.549547,16.683696 13.6162946,16.8191837 C13.6860309,16.9516827 13.7208991,17.1618879 13.7208991,17.4537841 L13.7208991,18.1660907 C13.7208991,18.5586065 13.5415772,18.8624576 13.1879144,19.0726627 C12.8302668,19.2868528 12.3281654,19.3914573 11.6706516,19.3914573 C11.001183,19.3914573 10.4950967,19.278883 10.1484076,19.0607079 C9.80570343,18.8395442 9.63534759,18.5127798 9.63534759,18.0804147 L9.63534759,16.9327543 L11.3787553,16.9327543 L11.3787553,18.1660907 C11.3787553,18.2706952 11.4016687,18.3493976 11.4484916,18.3952243 C11.4913297,18.4420473 11.5730208,18.4659569 11.6855951,18.4659569 C11.7872109,18.4659569 11.8609321,18.4420473 11.9077551,18.3992092 C11.954578,18.3523863 11.9774914,18.2746801 11.9774914,18.1660907 L11.9774914,17.5195355 C11.9774914,17.4308708 11.954578,17.3491797 11.9077551,17.2744622 C11.8609321,17.196756 11.7832259,17.1150649 11.6706516,17.0254039 L10.0906261,15.7761278 C9.92724386,15.6486099 9.80968837,15.5200959 9.73995206,15.3915818 C9.67021575,15.2630678 9.63534759,15.0917157 9.63534759,14.8735407 L9.63534759,14.2319666 Z M14.0357087,19.2599545 L15.7910713,19.2599545 L15.7910713,13.1301329 L14.0357087,13.1301329 L14.0357087,19.2599545 Z M17.9897575,16.8311385 L18.8076648,16.8311385 L18.483889,15.0100246 L18.2975935,15.0100246 L17.9897575,16.8311385 Z M16.0441144,19.2599545 L17.0951403,13.1301329 L19.6903272,13.1301329 L20.7961458,19.2599545 L19.2390337,19.2599545 L18.9630771,17.8004732 L17.842315,17.8004732 L17.581302,19.2599545 L16.0441144,19.2599545 Z M21.4337349,19.2559696 L21.4337349,14.340556 L20.3209427,14.340556 L20.3209427,13.1112045 L24.1693907,13.1112045 L24.1693907,14.340556 L23.1731577,14.340556 L23.1731577,19.2559696 L21.4337349,19.2559696 Z M9.49089381,12.5582952 L24.3795959,12.5582952 L24.3795959,11.9197098 L9.49089381,11.9197098 L9.49089381,12.5582952 Z M9.05454376,19.7072632 L24.9205504,19.7072632 L24.9205504,20.3059992 L9.05155506,20.3059992 L9.05454376,19.7072632 Z M25.3997385,20.7144547 L25.4465614,21.3380966 L8.55343856,21.3380966 L8.55343856,20.7144547 L25.3997385,20.7144547 Z M16.9975094,1 C21.4068366,1 25.4077084,2.79820055 28.3067464,5.69723857 C31.2017994,8.59627658 33,12.5971483 33,17.0024906 C33,21.4118178 31.2017994,25.4116933 28.3067464,28.3077426 C25.4077084,31.2067806 21.4068366,33.0039849 16.9975094,33.0039849 C12.5921671,33.0039849 8.59229165,31.2067806 5.69325363,28.3077426 C2.79321939,25.4116933 1,21.4118178 1,17.0024906 C1,12.5971483 2.79321939,8.59627658 5.69325363,5.69723857 C8.59229165,2.79820055 12.5921671,1 16.9975094,1 Z M28.1393792,5.86062078 C25.2831792,3.00442078 21.3410853,1.23411475 16.9975094,1.23411475 C12.6589147,1.23411475 8.71682077,3.00442078 5.85962454,5.86062078 C3.00342455,8.717817 1.22913359,12.659911 1.22913359,17.0024906 C1.22913359,21.3450702 3.00342455,25.2871642 5.85962454,28.1443604 C8.71682077,31.0005604 12.6589147,32.7708664 16.9975094,32.7708664 C21.3410853,32.7708664 25.2831792,31.0005604 28.1393792,28.1443604 C30.9955792,25.2871642 32.7658852,21.3450702 32.7658852,17.0024906 C32.7658852,12.659911 30.9955792,8.717817 28.1393792,5.86062078 Z M29.5480527,19.8507207 L29.5091996,20.5630273 L28.8198064,20.7303944 L29.4813051,20.9834376 L29.4314934,21.6917593 L29.878802,21.1428349 L30.5363158,21.4118178 L30.1467887,20.8160705 L30.6060521,20.271131 L29.92164,20.4584228 L29.5480527,19.8507207 Z M4.34634663,19.8507207 L4.38519971,20.5630273 L5.07359671,20.7303944 L4.40811307,20.9834376 L4.46290589,21.6917593 L4.01559727,21.1428349 L3.3580835,21.4118178 L3.74262943,20.8160705 L3.28735095,20.271131 L3.97275925,20.4584228 L4.34634663,19.8507207 Z M5.97319511,23.3455061 C5.98415367,23.25983 5.98415367,23.1392858 5.98116497,22.9878584 C5.97718004,22.9599639 5.97718004,22.9410355 5.97718004,22.9330656 L5.78988824,22.8942125 C5.80184303,23.0227266 5.79387317,23.1552256 5.76298994,23.2877245 L5.97319511,23.3455061 Z M6.22225335,23.4232122 C6.16347561,23.3265776 6.13259239,23.2757697 6.13259239,23.2757697 C6.13259239,23.2757697 6.12860745,23.2797547 6.12063759,23.2837396 C6.08576943,23.3146228 6.05090128,23.3375362 6.01603312,23.3614458 L5.94231188,23.4122537 C5.89548893,23.439152 5.84866598,23.4620653 5.80184303,23.48199 L5.93035709,23.6762554 C5.93035709,23.6762554 5.97319511,23.6493571 6.05488621,23.5865944 L6.10868279,23.5517263 L6.61078422,24.3297843 L6.55300271,24.3686373 C6.46334174,24.4234302 6.42050372,24.4503284 6.41651879,24.4473397 L6.54503284,24.6416052 C6.58388593,24.6027521 6.62672395,24.5718689 6.66557704,24.5439743 L6.73531335,24.4971514 C6.77416643,24.474238 6.82098938,24.4473397 6.86781233,24.4234302 C6.87179727,24.4194452 6.8757822,24.4154603 6.8757822,24.4154603 C6.84091404,24.3766072 6.81003082,24.3297843 6.77416643,24.2799726 L6.22225335,23.4232122 Z M6.12462252,23.7579465 C5.94928551,23.7699013 5.76298994,23.7230784 5.56473958,23.614489 C5.57171321,23.6961801 5.57171321,23.7619314 5.56473958,23.8167243 C5.66934404,23.8515924 5.79387317,23.8904455 5.94231188,23.9292986 C6.0000934,23.9412534 6.05090128,23.9641667 6.0937393,23.99505 C6.10868279,24.0070048 6.12063759,24.0109897 6.12860745,24.0030198 C6.14454718,24.0030198 6.14454718,23.9372685 6.12462252,23.8127393 C6.12462252,23.7888297 6.12462252,23.7738862 6.12462252,23.7579465 Z M6.29198966,24.6884281 C6.33881261,24.4433548 6.36571091,24.2720027 6.38165063,24.1743719 L6.20631363,24.1046356 C6.19834376,24.2331497 6.15550574,24.4005168 6.0817845,24.5987672 L6.29198966,24.6884281 Z M5.5019769,23.5009184 C5.52190156,23.4002989 5.52588649,23.25983 5.50994676,23.084493 L5.30372653,23.0655646 C5.32265496,23.2130071 5.31867003,23.349491 5.30372653,23.478005 L5.5019769,23.5009184 Z M5.75900501,24.3536938 C5.83272625,24.3068709 5.89548893,24.2759877 5.95327045,24.2680178 C5.96921017,24.2680178 5.97718004,24.2640329 5.98415367,24.2600479 C6.00407833,24.2480931 5.97319511,24.1743719 5.88751907,24.0418729 C5.85962454,24.0737524 5.81678653,24.1086205 5.75103515,24.1514585 L5.66535911,24.2052551 L5.5139317,23.9721366 C5.45116902,23.8745058 5.40434607,23.7888297 5.36947791,23.7151085 L5.21008063,23.8207092 C5.27682824,23.8984154 5.33460976,23.9801065 5.38541764,24.0538277 L5.44419539,24.1474736 C5.12838953,24.1743719 4.85641792,24.1165904 4.6262881,23.9721366 C4.63824289,24.0657825 4.64222783,24.1434887 4.64222783,24.1982815 C4.87933128,24.298901 5.17919741,24.3297843 5.53684505,24.2909312 L5.1244046,24.5599141 C5.02776999,24.6216805 4.93412409,24.6764733 4.84047819,24.7193114 L4.95703745,24.8946484 C5.02378506,24.8358706 5.1124498,24.7741042 5.2180505,24.7033716 L5.63049096,24.435385 C5.42028579,24.6455901 5.33062482,24.9215467 5.35851935,25.2642508 C5.408331,25.2642508 5.5019769,25.295134 5.63447589,25.3539118 C5.5139317,25.0849289 5.54082999,24.8169422 5.7042122,24.5479593 L5.82475639,24.7312661 C5.91840229,24.8787086 5.97319511,24.9763395 5.9881386,25.0151926 L6.14853211,24.9135768 C6.10868279,24.8787086 6.04691635,24.7890477 5.95327045,24.649575 L5.75900501,24.3536938 Z M5.17919741,23.5049033 C4.88331621,23.6413873 4.6143333,23.7111236 4.37722985,23.7230784 C4.40811307,23.8047695 4.4240528,23.8944304 4.4240528,23.99505 C4.46290589,23.9641667 4.58743501,23.9173438 4.79764017,23.8515924 C4.96500732,23.8007845 5.10149124,23.7539616 5.19812584,23.7190934 L5.17919741,23.5049033 Z M7.87201519,25.8560132 C7.93776657,25.7852807 8.00052925,25.7464276 8.05133713,25.7384577 C8.05831076,25.7384577 8.06229569,25.7384577 8.06229569,25.7384577 C8.05831076,25.7075745 8.00451418,25.6378382 7.89891348,25.5292488 C7.86404533,25.5910152 7.81323745,25.6567666 7.7395162,25.7314841 L7.52532611,25.9526478 C7.43267644,25.8599981 7.36592883,25.7892656 7.33903054,25.7424426 L7.19856169,25.8868964 C7.23741478,25.9098098 7.30814732,25.9685875 7.41275178,26.0702033 L6.94153358,26.5603499 C6.79409109,26.4627191 6.70044519,26.3929828 6.6615921,26.3541297 L6.54901778,26.5872482 C6.68151676,26.6071729 6.90666542,26.7157623 7.22247128,26.9100277 L7.38186856,26.7705551 C7.3619439,26.7625852 7.33106068,26.7506304 7.28423773,26.7277171 C7.19856169,26.6958376 7.13679524,26.6689393 7.10192709,26.6529996 L7.53728091,26.201706 C7.6458703,26.3073067 7.71261791,26.3770431 7.7395162,26.4119112 L7.87998506,26.2684537 C7.82519224,26.2335855 7.75545593,26.1708228 7.6578251,26.0771769 L7.87201519,25.8560132 Z M8.30438031,25.9566327 C8.28844058,25.9765574 8.28445565,25.9805423 8.29242552,25.9725725 C8.19877961,26.0931167 8.12107344,26.1907475 8.05133713,26.2604838 C7.72457271,26.6071729 7.47551446,26.8323215 7.30017745,26.9339373 C7.12085552,27.0385418 6.93057501,27.0734099 6.72833972,27.0385418 C6.7821363,27.1441425 6.81301952,27.2258336 6.81700445,27.2876 C7.05908907,27.2607017 7.28822266,27.1670558 7.50639768,27.0076585 C7.61100215,26.9409109 7.8451169,26.731702 8.20276455,26.3770431 C8.24161763,26.33819 8.26851592,26.3112917 8.28445565,26.295352 C8.34721833,26.2296006 8.40499984,26.1867626 8.45580773,26.1668379 C8.45979266,26.162853 8.46377759,26.162853 8.46377759,26.162853 C8.47473615,26.158868 8.42093957,26.0891317 8.30438031,25.9606177 L8.30438031,25.9566327 Z M8.923041,26.8871143 C8.97683758,26.8283366 9.03561533,26.7934684 9.09738178,26.77454 C9.10535164,26.77454 9.10933657,26.7705551 9.1133215,26.7665702 C9.10535164,26.7426606 9.04757013,26.6769092 8.9379845,26.5713085 C8.91905607,26.6101616 8.86824819,26.6729243 8.78655708,26.7546154 L7.80227888,27.7737617 C7.66579496,27.9182155 7.57613399,27.9999066 7.53728091,28.02282 L7.70066312,28.1792285 C7.73553127,28.1284207 7.80925251,28.0387597 7.93477787,27.9102456 L8.923041,26.8871143 Z M8.46377759,26.6808941 C8.52554404,26.6221164 8.58432178,26.5832633 8.6421033,26.5643349 C8.65405809,26.5603499 8.66202796,26.556365 8.66202796,26.556365 C8.6421033,26.513527 8.58830672,26.4467794 8.49864575,26.3611033 C8.47174745,26.4039413 8.40898478,26.4786588 8.30438031,26.5872482 L7.60303228,27.3154945 C7.48248809,27.4360387 7.39681205,27.5137449 7.34301547,27.5446281 L7.51436755,27.7080103 C7.53728091,27.6572025 7.61100215,27.5645528 7.7395162,27.4360387 L8.46377759,26.6808941 Z M11.0589645,28.151334 C11.0828741,28.1164659 11.1097724,28.0895676 11.1446406,28.065658 C11.1565954,28.0586843 11.1645652,28.0546994 11.1685502,28.0467296 C11.1725351,28.02282 11.1137574,27.9730083 10.9812584,27.8953021 C10.9503751,27.9730083 10.9234769,28.0307898 10.8995673,28.065658 L10.7790231,28.2688895 L10.4134056,28.0507145 C10.5259799,27.9570686 10.6156409,27.9102456 10.6813922,27.9182155 C10.697332,27.8953021 10.6465241,27.8245696 10.5339498,27.7080103 C10.3197597,27.9062607 10.1215093,28.0307898 9.93820242,28.0815977 C9.97705551,28.1204508 10.0159086,28.1712587 10.0477881,28.2330251 C10.0507768,28.2489649 10.0547617,28.2609196 10.0627315,28.2649046 C10.1254942,28.2290402 10.1952305,28.194172 10.2729367,28.1593039 L10.693347,28.4083621 L10.521995,28.7002584 L10.0398182,28.4083621 C9.9073192,28.330656 9.79075994,28.2529498 9.68117431,28.1712587 L9.57258491,28.3505806 C9.60745307,28.3655241 9.65427602,28.3854488 9.70906883,28.4123471 C9.75589178,28.4392454 9.83359796,28.4860683 9.95015722,28.5568008 L10.1603624,28.68133 C10.008935,28.9104636 9.86846611,29.0509324 9.73995206,29.0977554 C9.60346814,29.1515519 9.41318763,29.1366084 9.17209925,29.0549173 C9.19501261,29.1087139 9.2069674,29.1794465 9.2069674,29.2651225 C9.20298247,29.2760811 9.2069674,29.2880359 9.2069674,29.2960057 C9.51081847,29.3308739 9.72401233,29.3189191 9.84455652,29.2571526 C9.97705551,29.2023598 10.1364528,29.0429625 10.3237446,28.7819495 L10.5568631,28.9224184 L10.1643473,29.5759472 C10.1015846,29.6656082 10.1444227,29.7592541 10.2928614,29.8519037 C10.2968463,29.8558887 10.3038199,29.8638585 10.3157747,29.8678435 C10.5528782,30.0122973 10.7053018,30.0820336 10.7630833,30.0740637 C10.829831,30.0700788 10.9234769,30.015286 11.0470097,29.9066966 C10.9971981,29.8558887 10.9543601,29.7781825 10.9194919,29.677563 C10.8607142,29.7702126 10.8059214,29.8409452 10.7561097,29.8797983 C10.7013169,29.8947418 10.5917313,29.8519037 10.432334,29.7472993 C10.3546278,29.6964914 10.3317145,29.6536534 10.3546278,29.6267551 L10.7202453,29.019053 L10.9932132,29.1824352 C11.1605803,29.2920208 11.2811245,29.369727 11.3508608,29.4205349 L11.4524766,29.2491828 C11.4016687,29.2252732 11.2771396,29.1555369 11.0828741,29.0349927 L10.6853772,28.7978892 L10.8567292,28.5099779 L11.0978176,28.6534354 C11.2542262,28.7470813 11.3588307,28.8168177 11.4176084,28.8636406 L11.518228,28.6922885 C11.428567,28.6454656 11.3199776,28.5876841 11.1914635,28.5179478 L10.9344354,28.3655241 L11.0589645,28.151334 Z M13.9121758,29.587902 C13.9311043,29.5211544 13.9540176,29.455403 13.9819121,29.3816818 C13.989882,29.3577722 13.9938669,29.3428287 13.9938669,29.3348588 C14.0088104,29.3039756 14.0287351,29.2760811 14.0516485,29.2611376 C14.0636033,29.2491828 14.0675882,29.2451978 14.0675882,29.2451978 C14.0785467,29.2412129 14.0008406,29.2103297 13.8294885,29.147567 C13.8065751,29.2999907 13.7756919,29.4285047 13.7368388,29.5370941 L13.6940008,29.5251393 C13.6780611,29.5171695 13.6352231,29.502226 13.5654868,29.4783164 C13.4917655,29.4514181 13.4449426,29.4354783 13.4290028,29.4285047 L13.3821799,29.5958719 C13.3981196,29.5988606 13.4449426,29.6108154 13.5226487,29.6267551 C13.59637,29.6496684 13.6431929,29.6616232 13.6631176,29.6656082 L13.6979857,29.677563 C13.639208,29.8797983 13.6043398,29.9963575 13.5884001,30.0232558 L13.5346035,30.0083123 C13.4060895,29.9654743 13.3044737,29.9296099 13.2347374,29.9027116 L13.1839295,30.0780486 C13.2068429,30.0860185 13.2656206,30.0969771 13.3552816,30.1169017 C13.4290028,30.1398151 13.4758258,30.1517699 13.4957504,30.1557548 L13.5375922,30.1677096 C13.4329878,30.4167678 13.2735905,30.5681953 13.0594004,30.6190031 C13.1410915,30.6658261 13.2038542,30.7196227 13.2496809,30.7784004 C13.463871,30.669811 13.6202796,30.4825192 13.7208991,30.2215062 L14.0167803,30.3071822 L13.9390741,30.5881199 C13.8802964,30.7903552 13.8414433,30.9108994 13.8225149,30.9497525 L14.03272,31.0115189 C14.0396937,30.9925905 14.0516485,30.9417826 14.0715731,30.8521217 C14.0944865,30.7435323 14.1104262,30.6767847 14.1183961,30.6459014 L14.2000872,30.3579901 L14.2817783,30.3818997 C14.413281,30.4277264 14.5109119,30.4635908 14.5806482,30.4865042 L14.6314561,30.3041935 C14.5657047,30.2922387 14.4640889,30.2683291 14.3206314,30.233461 L14.2429252,30.2105476 L14.3435447,29.8598736 L14.413281,29.8837832 C14.5537499,29.9226363 14.6434109,29.9495346 14.6822639,29.9694592 L14.7290869,29.8020921 C14.7051773,29.7941222 14.6473958,29.7821674 14.5537499,29.763239 C14.4919834,29.7512842 14.456119,29.7433143 14.4451605,29.7393294 L14.3823978,29.7233897 L14.4252358,29.5719623 C14.4332057,29.5490489 14.4451605,29.5251393 14.456119,29.498241 C14.4640889,29.4783164 14.4640889,29.4673578 14.4680738,29.4633729 C14.4800286,29.4394633 14.4989571,29.4205349 14.5228667,29.4045951 C14.5308365,29.3966253 14.5338252,29.3926403 14.5378102,29.3896516 C14.5268516,29.3737119 14.4491454,29.3388437 14.3007067,29.2840509 C14.3007067,29.2840509 14.3007067,29.2880359 14.2967218,29.2999907 C14.284767,29.3617571 14.2698235,29.4314934 14.2459139,29.5141808 L14.2000872,29.6695931 L13.9121758,29.587902 Z M13.288534,29.4823013 C13.2735905,29.3149342 13.2466922,29.1674917 13.2038542,29.0349927 L12.9856792,29.0589023 C13.0285172,29.19439 13.0514305,29.3388437 13.0514305,29.4902712 L13.288534,29.4823013 Z M13.771707,30.0740637 C13.8334734,29.8678435 13.8653529,29.7512842 13.8723265,29.7273746 L14.1612341,29.8090657 L14.0596183,30.1597397 L13.771707,30.0740637 Z M13.0554155,30.0312257 C13.1022384,29.8678435 13.1371066,29.763239 13.1570312,29.7124311 C13.0474456,29.6964914 12.907973,29.6576383 12.728651,29.587902 L12.6738582,29.7781825 C12.728651,29.7901373 12.8103421,29.8090657 12.9159428,29.8409452 L12.7127113,30.537312 C12.6509449,30.5532518 12.5413592,30.5801501 12.377977,30.6229881 L12.4955325,30.8331932 C12.6200616,30.7315775 12.7057377,30.6847545 12.7515644,30.7006942 C12.7834439,30.7046792 12.8302668,30.7315775 12.8960182,30.7903552 C12.9657545,30.8521217 13.0245322,30.9029295 13.0713552,30.9338128 C13.1570312,30.9886056 13.2815603,31.0473833 13.4489275,31.1091498 C13.5266337,31.1360481 13.6272532,31.1679275 13.7408238,31.2027957 C13.8294885,31.225709 13.9968556,31.272532 14.2429252,31.3352947 C14.2927368,31.2416488 14.3515146,31.1788861 14.4102923,31.1480029 C14.0516485,31.09321 13.7408238,31.0194888 13.4718409,30.9258429 C13.2148127,30.8331932 13.0245322,30.716634 12.9000031,30.5801501 L13.0554155,30.0312257 Z M17.3362286,29.7353445 C17.3322437,29.6616232 17.3441985,29.6028455 17.3631269,29.5600075 C17.3710968,29.5490489 17.3750817,29.541079 17.3750817,29.5331092 C17.3561533,29.5171695 17.2704773,29.5062109 17.1180536,29.498241 C17.1260235,29.5331092 17.1339933,29.5958719 17.1419632,29.6885215 L17.1499331,29.8409452 L16.9666262,29.8479188 C16.9038635,29.8519037 16.8221724,29.8519037 16.7215529,29.8479188 C16.7016282,29.8479188 16.6906697,29.8479188 16.6826998,29.8479188 L16.6906697,30.0511503 C16.6976433,30.0511503 16.713583,30.0511503 16.7364964,30.0471654 C16.8221724,30.0312257 16.9008748,30.0232558 16.9706111,30.0192709 L17.1529218,30.015286 L17.1648766,30.3430466 L17.0562872,30.3460353 C16.978581,30.3500202 16.8968899,30.3460353 16.8112138,30.3350767 C16.7912892,30.3350767 16.7793344,30.3350767 16.7723608,30.3390617 L16.7793344,30.537312 C16.7793344,30.537312 16.7912892,30.537312 16.8072289,30.537312 C16.8809502,30.5213723 16.9626413,30.5134024 17.0523022,30.5104137 L17.5623735,30.4904891 C17.5544037,30.5064288 17.5464338,30.5253572 17.534479,30.5562405 C17.4408331,30.7823854 17.359142,30.9417826 17.2894057,31.0274587 C17.1569067,30.8840011 17.0792005,30.7355624 17.0562872,30.5921049 L16.8650104,30.6419165 C16.9397279,30.8172535 17.0363625,30.9846207 17.1648766,31.1519878 C16.935743,31.3034152 16.7335077,31.401046 16.5581707,31.4359142 C16.6199371,31.4747673 16.6826998,31.533545 16.7444662,31.6112512 C16.9706111,31.4946919 17.1569067,31.3781327 17.3053454,31.2645621 C17.4527879,31.3661779 17.6629931,31.4598238 17.931976,31.533545 C17.9668441,31.447869 18.0096821,31.3781327 18.0634787,31.3273248 C17.8184054,31.3113851 17.6082002,31.2496186 17.4298745,31.1330594 C17.5733321,30.9577224 17.7018461,30.6807696 17.8074468,30.3002086 C17.6938763,30.319137 17.5424489,30.3310918 17.3561533,30.3350767 L17.3441985,30.0083123 L17.6709629,29.9963575 C17.7486691,29.9923726 17.8303602,29.9963575 17.9160362,30.0083123 C17.9359609,30.0083123 17.9469195,30.0083123 17.9509044,30.0043274 L17.9469195,29.7981072 C17.9389496,29.7981072 17.9200212,29.8020921 17.8931229,29.806077 C17.795492,29.8170356 17.7138009,29.8210205 17.6480496,29.8250054 L17.3362286,29.8369602 L17.3362286,29.7353445 Z M16.4256717,29.7472993 C16.4256717,29.6885215 16.4336415,29.6387099 16.4565549,29.6028455 C16.4645248,29.5958719 16.4645248,29.5918869 16.4645248,29.5839171 C16.4645248,29.5600075 16.3868186,29.545064 16.2274213,29.5370941 C16.2274213,29.545064 16.2274213,29.5600075 16.2314062,29.5918869 C16.2383799,29.6656082 16.2423648,29.720401 16.2463497,29.7552691 L16.2543196,30.0471654 L16.1297905,30.0511503 C16.068024,30.0511503 16.0052614,30.0511503 15.935525,30.0391955 C15.9195853,30.0391955 15.9076305,30.0391955 15.9006569,30.0391955 L15.9076305,30.2414308 C15.9116155,30.2374459 15.9275552,30.2374459 15.9434949,30.2374459 C16.0172162,30.229476 16.0829675,30.2254911 16.1417453,30.2215062 L16.2622895,30.2185175 L16.2742443,30.6070483 L15.9046418,30.712649 L15.9584384,30.9108994 L16.2812179,30.7903552 L16.3011426,31.3352947 C16.3011426,31.3781327 16.2891878,31.3970611 16.2662744,31.401046 C16.2353912,31.4130008 16.1726285,31.4169858 16.0749977,31.4169858 C16.1258055,31.4747673 16.1566888,31.5454998 16.1726285,31.6311759 C16.4027583,31.5992964 16.5073628,31.5215902 16.4844494,31.401046 L16.4605398,30.7275925 L16.7295227,30.6379316 L16.713583,30.4556209 L16.45257,30.5492668 L16.4416114,30.2105476 C16.5033779,30.2105476 16.5661405,30.2105476 16.6318919,30.2145325 C16.6478316,30.2145325 16.6548053,30.2145325 16.6587902,30.2145325 L16.6548053,30.0122973 C16.6478316,30.0122973 16.6318919,30.015286 16.6089785,30.0232558 C16.5422309,30.0312257 16.4844494,30.0391955 16.4376265,30.0391955 L16.4256717,29.7472993 Z M20.2352666,29.4045951 C20.2083684,29.2999907 20.2003985,29.2103297 20.2163382,29.1366084 C20.2203232,29.1246537 20.2203232,29.1126989 20.2163382,29.1087139 C20.1456057,29.104729 20.0559447,29.1126989 19.9433704,29.1405934 C19.9433704,29.1435821 19.9473553,29.1555369 19.9513402,29.1754615 C19.9901933,29.2651225 20.0210766,29.3428287 20.0370163,29.4045951 L20.1067526,29.6496684 L19.6285608,29.7861524 C19.5349149,29.8130507 19.4303104,29.8369602 19.3167398,29.8558887 C19.2938265,29.8598736 19.2778867,29.8598736 19.2699169,29.8598736 L19.3326796,30.0820336 C19.3406494,30.0780486 19.351608,30.0700788 19.3755176,30.058124 C19.480122,30.015286 19.5817378,29.9804178 19.6753837,29.9535195 L20.0170916,29.8558887 C19.9822235,30.3310918 19.8068865,30.7315775 19.4920768,31.054357 C19.6006662,31.0742816 19.6863423,31.1011799 19.7411351,31.1440179 C20.0798543,30.626973 20.2163382,30.186638 20.1575605,29.8250054 L20.4494567,30.8481367 C20.4693814,30.9029295 20.4883098,30.9806357 20.5082345,31.0742816 C20.5112232,31.1171196 20.5191931,31.1440179 20.5191931,31.1559727 L20.741353,31.09321 C20.7373681,31.0902214 20.7333831,31.0742816 20.7254133,31.0513683 C20.6865602,30.9617073 20.6596619,30.8760313 20.6367485,30.7943402 L20.3408673,29.763239 C20.5899256,30.2414308 20.9396034,30.5333271 21.386912,30.6459014 C21.4148065,30.5492668 21.4616295,30.4556209 21.5233959,30.3699449 C21.1109554,30.3739298 20.7642664,30.1597397 20.4883098,29.720401 L20.873852,29.6108154 C20.9674979,29.5839171 21.0641325,29.5639924 21.1767068,29.5530338 C21.1926466,29.545064 21.2046014,29.545064 21.2046014,29.545064 L21.1378537,29.326889 C21.134865,29.326889 21.1189253,29.3348588 21.0990007,29.3468136 C20.9983811,29.3896516 20.9007503,29.4245198 20.8071044,29.4514181 L20.2900595,29.5988606 L20.2352666,29.4045951 Z M20.8967654,29.2720961 C20.8349989,29.2252732 20.7214283,29.1595218 20.5540612,29.0658759 L20.4066187,29.233243 C20.5042496,29.2681112 20.612839,29.3388437 20.7293982,29.4434482 L20.8967654,29.2720961 Z M23.127331,28.0118614 C23.1113913,28.0198313 23.0765231,28.0427446 23.0257153,28.0736278 C22.9599639,28.1045111 22.9171259,28.1284207 22.8972012,28.1403755 L22.9828772,28.2878179 C23.0057906,28.2758631 23.041655,28.2489649 23.0954516,28.2101118 C23.1382896,28.1862022 23.1661841,28.1672737 23.1811276,28.1593039 L23.1970673,28.1473491 C23.3604496,28.4203169 23.465054,28.6026276 23.5158619,28.7002584 L23.4770088,28.724168 C23.4580804,28.7351266 23.422216,28.7510663 23.3724043,28.7739796 C23.3215965,28.8058591 23.2867283,28.8287725 23.2628187,28.8407273 L23.3564646,28.9961396 C23.3833629,28.9801999 23.4182311,28.9572865 23.4610691,28.9224184 C23.5039071,28.8985088 23.5357866,28.8795803 23.5626848,28.8636406 L23.5935681,28.8447122 C23.7031537,29.0389776 23.7609352,29.2023598 23.7609352,29.3348588 C23.7649201,29.4823013 23.7180972,29.6416986 23.6174777,29.8170356 C23.687214,29.7941222 23.7649201,29.7901373 23.8505962,29.8020921 C24.0060085,29.498241 23.9671554,29.147567 23.7340369,28.7590361 L23.9830952,28.6105974 L24.2979048,29.1326235 C24.3955356,29.2999907 24.4543134,29.3966253 24.4652719,29.4314934 L24.6445939,29.322904 C24.636624,29.3079605 24.6057408,29.2611376 24.5589178,29.1754615 C24.504125,29.1007441 24.4732418,29.0589023 24.4652719,29.0429625 L24.1464774,28.5099779 L24.1693907,28.4980231 C24.1853305,28.4860683 24.2241836,28.4671399 24.2789764,28.4322717 C24.3566825,28.3934186 24.4035055,28.369509 24.4224339,28.3535693 L24.3297843,28.198157 C24.2590517,28.2489649 24.1813455,28.2997727 24.0876996,28.3575542 L24.0608013,28.373494 L23.7340369,27.8245696 L23.7489804,27.8165997 C23.8077582,27.7817316 23.8774945,27.7468634 23.9561969,27.7159802 L23.862551,27.5605679 C23.8236979,27.5914511 23.7380219,27.6462439 23.6095078,27.7239501 L23.127331,28.0118614 Z M23.6643006,28.6225522 C23.640391,28.5876841 23.6095078,28.5289063 23.5706547,28.4551851 C23.4540955,28.2489649 23.379378,28.1164659 23.3445098,28.0626693 L23.5706547,27.9261854 L23.905389,28.4780984 L23.6643006,28.6225522 Z M23.041655,28.9453317 L23.3335513,29.4354783 L23.1074064,29.5719623 L22.8155101,29.0818156 L23.041655,28.9453317 Z M22.3253635,28.548831 C22.2546309,28.5876841 22.2008343,28.6145824 22.1579963,28.6265372 L22.2626008,28.7978892 C22.2865104,28.767006 22.3373183,28.7311416 22.4070546,28.6883036 L22.515644,28.6225522 C22.6172597,28.9762149 22.6322032,29.2531677 22.5624669,29.4394633 C22.6252296,29.4713427 22.6830111,29.5101958 22.7417889,29.5570188 C22.7497587,29.4823013 22.7567324,29.3896516 22.7567324,29.2840509 L23.1113913,29.8758133 C23.1502444,29.9375798 23.1731577,29.9844027 23.1851125,30.0122973 L23.3335513,29.9226363 C23.3176115,29.9106815 23.2867283,29.8678435 23.2438903,29.7981072 L23.1771427,29.6885215 L23.4032876,29.5530338 C23.4421407,29.5988606 23.465054,29.6496684 23.4730239,29.7004763 L23.644376,29.5988606 C23.6174777,29.5799321 23.5855982,29.5331092 23.5427602,29.4673578 L23.1851125,28.8676255 C23.1502444,28.809844 23.127331,28.7590361 23.1153762,28.7161981 C23.0685533,28.7590361 23.0257153,28.7939043 22.9749074,28.8208026 L22.7567324,28.9533016 C22.7457738,28.8367423 22.7138943,28.6922885 22.6710563,28.5289063 L22.7726721,28.4671399 C22.8463933,28.4243019 22.9051711,28.3964073 22.9480091,28.3854488 L22.8424084,28.2140967 C22.7886118,28.2609196 22.7378039,28.2997727 22.690981,28.326671 L22.3253635,28.548831 Z M25.6408269,26.6649544 C25.6209022,26.8592198 25.5631207,27.0813798 25.4615049,27.330438 C25.5352262,27.2995548 25.6139286,27.2995548 25.6876498,27.3264531 C25.7812957,27.0544815 25.8430622,26.8243517 25.8819153,26.6380561 L25.6408269,26.6649544 Z M26.7496342,26.1010865 C26.5354441,26.1399396 26.3063105,26.1977211 26.0652221,26.2794122 L26.0801656,26.4786588 C26.2943557,26.4009526 26.5205006,26.3461598 26.761589,26.3192615 L26.7496342,26.1010865 Z M26.2674574,26.9060428 C26.2246194,26.8632048 26.1897513,26.817378 26.1618567,26.7705551 C26.1429283,26.7426606 26.1349584,26.7157623 26.1309735,26.6848791 C26.1230036,26.6689393 26.11603,26.6569845 26.1120451,26.6529996 C26.0961054,26.6380561 26.026369,26.6848791 25.9018399,26.8054232 C25.9755612,26.8522462 26.0532673,26.9299524 26.1389434,27.0345568 L25.9675913,27.197939 C25.8739454,27.2836151 25.7842844,27.3613213 25.6996046,27.4320538 L25.8311074,27.5675415 C25.8699605,27.5217148 25.9556365,27.4360387 26.0801656,27.3154945 L26.2365742,27.1630709 C26.40693,27.4280689 26.3411787,27.7428785 26.0413125,28.1124809 C26.1120451,28.0935525 26.1857663,28.1015224 26.2674574,28.1324056 C26.5473989,27.6920706 26.5782821,27.330438 26.3611033,27.0425267 L26.6211201,26.7894835 C26.6988263,26.8950842 26.8084119,27.0235983 26.9518695,27.1710408 C27.0146322,27.2328072 27.0763986,27.2487469 27.1431462,27.2098938 C27.1969428,27.1829955 27.2676754,27.1321877 27.3493665,27.0624514 C27.4350425,26.9807603 27.492824,26.9100277 27.5276922,26.8522462 C27.5595716,26.7974534 27.5316771,26.6958376 27.4430124,26.556365 C27.3882195,26.6031879 27.3105134,26.6261013 27.2168675,26.6340712 C27.2985586,26.7346907 27.3334267,26.8014383 27.3214719,26.8363065 C27.2945736,26.8871143 27.2437658,26.9379222 27.1740295,26.9917188 C27.1192366,27.026587 27.0763986,27.0235983 27.0455154,26.9767753 C26.8432801,26.7705551 26.7107811,26.6181314 26.6490147,26.5284705 C26.6251051,26.556365 26.5593537,26.6261013 26.4497681,26.731702 L26.2674574,26.9060428 Z M25.8042091,26.1399396 C25.7384577,26.1050714 25.6567666,26.0582485 25.5631207,25.9954858 L25.4266368,26.1787927 C25.5123128,26.205691 25.590019,26.2405591 25.6597553,26.2794122 L25.1775785,26.7466455 C25.1347405,26.7894835 25.076959,26.8363065 25.0102114,26.8831294 C25.0689891,26.9299524 25.1158121,26.9688055 25.1546652,27.0116435 L25.1855484,27.0425267 C25.2403412,27.0973195 25.2752094,27.1441425 25.2861679,27.1710408 L25.4505464,27.0156284 C25.4106971,26.9917188 25.3688553,26.9568507 25.3220323,26.9100277 L25.2861679,26.8711746 L26.3102954,25.8789266 L26.3491485,25.9177796 C26.3959715,25.9685875 26.4308396,26.0114255 26.4497681,26.0502786 L26.6251051,25.8789266 C26.586252,25.8560132 26.5473989,25.821145 26.5005759,25.7743221 L26.453753,25.7274991 C26.4188848,25.6886461 26.3800318,25.6418231 26.3491485,25.5910152 C26.2903708,25.6607515 26.2435478,25.7195293 26.2046947,25.7543974 L25.8042091,26.1399396 Z M28.1931758,23.7778712 C28.1822172,23.7967996 28.1473491,23.8436226 28.0925563,23.9173438 C28.0457333,23.99505 28.0148501,24.0418729 28.0028953,24.0657825 L28.1503378,24.1554435 C28.1742474,24.1086205 28.2320289,24.0070048 28.3256748,23.8595623 L28.4741135,23.6184739 C28.5637745,23.4740201 28.6175711,23.392329 28.6414807,23.3694156 L28.4930419,23.2797547 C28.4850721,23.2946982 28.4661436,23.3265776 28.4352604,23.3724043 C28.3964073,23.4471218 28.3645279,23.5009184 28.3416145,23.5367828 L28.1931758,23.7778712 Z M28.3804676,24.1624171 C28.3147162,24.2680178 28.2678933,24.341739 28.2360138,24.3726223 L28.3924224,24.4702531 C28.403381,24.4473397 28.4312755,24.4005168 28.4701286,24.3267956 C28.4970269,24.2839575 28.5129666,24.2600479 28.5129666,24.256063 L28.53588,24.2251798 C28.8785841,24.4393699 28.9483204,24.7153264 28.7460851,25.0540456 C28.8128327,25.0231624 28.8945238,25.0072227 28.9831886,24.9992528 C28.9911584,24.9952679 28.9951434,24.9952679 28.9951434,24.9952679 C29.0459512,24.7661343 29.0459512,24.5828274 28.9951434,24.4473397 C28.9333769,24.3297843 28.8088478,24.2052551 28.6175711,24.0737524 L28.7191868,23.9133589 L29.2521715,24.2441082 C29.3069643,24.2799726 29.3498023,24.2909312 29.3846705,24.2720027 C29.4155537,24.2640329 29.4583917,24.2211949 29.5091996,24.1395038 L29.5948756,23.9990349 C29.6915102,23.8824756 29.6526571,23.7459917 29.48529,23.5985492 C29.442452,23.6374023 29.3727157,23.6722705 29.2710999,23.700165 C29.4235236,23.8167243 29.4703465,23.9133589 29.4075838,23.9920613 C29.3647458,24.0617976 29.3179229,24.0847109 29.2710999,24.0538277 L28.8198064,23.7699013 L28.8516858,23.7151085 C28.9523053,23.5596961 29.015068,23.4620653 29.0419663,23.4311821 L28.8905389,23.3335513 C28.8666293,23.3763893 28.8088478,23.478005 28.707232,23.6374023 L28.3804676,24.1624171 Z M27.2009277,24.2680178 C27.1431462,24.3576788 27.1003082,24.4234302 27.0614551,24.474238 C27.1082781,24.4901778 27.1700445,24.5170761 27.2397808,24.563899 L27.5247035,24.7422247 L28.5209365,25.3618816 C28.6484543,25.4435727 28.711217,25.4864108 28.707232,25.4893995 L28.8128327,25.3230285 C28.754055,25.2911491 28.6883036,25.252296 28.6175711,25.209458 L27.6133682,24.5828274 L27.2985586,24.3845771 L27.4460011,24.1474736 C27.6293079,24.3686373 27.7618069,24.5290309 27.843498,24.6296504 C28.0068802,24.5828274 28.1583076,24.5987672 28.2947916,24.6764733 C28.4073659,24.739236 28.403381,24.8318857 28.2947916,24.9524299 C28.2828368,24.9683696 28.2788518,24.9803244 28.2748669,24.9843093 C28.3605429,24.9524299 28.4422341,24.9643847 28.5209365,25.0191775 C28.6255409,24.8049874 28.5986426,24.649575 28.4422341,24.5439743 C28.3107313,24.4662682 28.1353943,24.435385 27.9132343,24.4473397 C27.8315432,24.3497089 27.7458672,24.2441082 27.6562062,24.1395038 C27.5675415,24.037888 27.4968089,23.9492232 27.4430124,23.8635472 C27.4151178,23.9173438 27.3722798,23.9920613 27.3144983,24.0847109 L27.2009277,24.2680178 Z M27.6880857,23.2478752 L27.5745151,23.478005 C27.6841007,23.4740201 27.7767504,23.4859749 27.8554528,23.5128732 L27.6761309,23.7967996 C27.6412627,23.8515924 27.5984247,23.9103702 27.5516018,23.9641667 C27.5984247,23.9880763 27.6562062,24.0229445 27.7269388,24.0617976 C27.7767504,24.0966657 27.8235734,24.127549 27.8664114,24.1624171 L27.9720121,23.9920613 C27.9680271,23.9880763 27.9092494,23.9561969 27.7966751,23.8944304 L28.2748669,23.131316 C28.3296597,23.1661841 28.3884375,23.2050372 28.446219,23.2478752 L28.5667632,23.0575947 C28.4741135,23.0107718 28.4153358,22.9838735 28.3964073,22.9719187 C28.3495844,22.9410355 28.2987765,22.9101522 28.2479686,22.8673142 C28.2250553,22.9171259 28.1931758,22.9719187 28.1543227,23.0346814 L27.9720121,23.3265776 L27.6880857,23.2478752 Z M5.48304847,9.09837801 C5.41630086,9.05952492 5.36947791,9.0286417 5.35054948,9.0166869 C5.31568133,8.99377354 5.27284331,8.96289032 5.22203543,8.92403723 C5.19115221,8.90411257 5.16724261,8.87721428 5.14432926,8.8383612 C5.13635939,8.8264064 5.12838953,8.81843654 5.1244046,8.8144516 C5.1124498,8.80648174 5.05068335,8.88119922 4.93810903,9.03661156 C5.01183027,9.06749479 5.15528782,9.14918589 5.36549298,9.28566981 L5.17521248,9.58553594 C5.04271349,9.7957411 4.94906759,9.93122879 4.89527101,9.99000654 C4.98792067,10.0368295 5.1244046,10.1105507 5.29575667,10.2081816 L5.52190156,10.3516391 C5.69325363,10.4721833 5.81379783,10.5578593 5.87157934,10.6086672 L6.00806326,10.3944771 C5.94530058,10.359609 5.891504,10.3327107 5.85265091,10.3048162 L6.1754304,9.7957411 L6.56097257,10.0408144 C6.72833972,10.1454189 6.82895925,10.2151552 6.87179727,10.2510196 L7.00429625,10.0408144 C6.93854488,10.00495 6.82895925,9.94716852 6.67753183,9.85750755 L6.29198966,9.61243423 L6.61078422,9.1103328 C6.64963731,9.13723109 6.69247533,9.16911055 6.73929828,9.20397871 L6.87976713,8.98181875 C6.81700445,8.95492046 6.69646026,8.89215778 6.52211949,8.78755331 L6.2959746,8.64309953 C6.17941534,8.56140842 6.05090128,8.47174745 5.91840229,8.37112792 C5.84866598,8.50761184 5.76298994,8.65903926 5.65738925,8.8264064 L5.48304847,9.09837801 Z M6.14056225,9.51878833 L5.63447589,9.19600884 L5.94928551,8.69390741 L6.45935681,9.0166869 L6.14056225,9.51878833 Z M5.51791663,9.37931571 L6.02699169,9.7020952 L5.7042122,10.2121665 L5.19513714,9.88839077 L5.51791663,9.37931571 Z M10.9503751,4.02057844 L11.7095047,5.47607484 L10.3277295,6.19934 L9.56461505,4.74384359 L10.9503751,4.02057844 Z M10.1792908,4.68207715 C10.1603624,4.69004701 10.1135394,4.71296037 10.0398182,4.75579839 C9.93820242,4.79863641 9.87245104,4.82951963 9.84156782,4.84545936 L9.93023256,5.0128265 C9.99698017,4.96998848 10.1095545,4.9072258 10.2649668,4.8255347 L10.3546278,4.77871175 L10.4831419,5.02378506 L10.3934809,5.07060801 C10.2500233,5.14532549 10.1484076,5.19513714 10.0906261,5.21904673 L10.1832757,5.3903988 C10.2071853,5.37844401 10.2649668,5.34357585 10.3625977,5.28878304 C10.4283491,5.25391488 10.4642134,5.23399022 10.475172,5.22701659 L10.564833,5.18019364 L10.7481398,5.52987142 L10.607671,5.6045889 C10.4711871,5.67034028 10.3506429,5.72513309 10.2500233,5.77095981 L10.342673,5.95426668 C10.4283491,5.9034588 10.5459045,5.83372249 10.693347,5.74804645 L11.1605803,5.50695806 C11.2113882,5.48005977 11.3279474,5.42925189 11.514243,5.35553065 L11.4136235,5.16026898 C11.3588307,5.203107 11.2502413,5.26985461 11.0828741,5.35851935 L10.9234769,5.44021045 L10.74017,5.09053267 L10.8607142,5.02378506 C11.001183,4.95404875 11.1018026,4.90324087 11.1645652,4.87634258 L11.0669344,4.69303571 C10.9653186,4.75579839 10.868684,4.81457613 10.7710532,4.87235765 L10.6584789,4.93113539 L10.5299648,4.68606208 L10.6425391,4.62728433 C10.8218611,4.53363843 10.9424053,4.47585692 10.9971981,4.45194732 L10.9115221,4.28458018 C10.8527443,4.32343327 10.74017,4.38619595 10.564833,4.47984185 L10.1792908,4.68207715 Z M11.2502413,5.10248747 C11.2382865,5.09850254 11.2183618,5.09053267 11.1914635,5.07459295 C11.0898478,5.02378506 11.0240964,4.99688677 10.9892282,4.99290184 L10.8806388,5.16026898 C10.9384203,5.18019364 11.0201115,5.22303166 11.1257122,5.28878304 L11.2502413,5.10248747 Z M9.5177921,4.56850658 C9.43211606,4.61532954 9.34644002,4.65119392 9.27271878,4.67410728 C9.33149653,4.75579839 9.37433455,4.8255347 9.40123284,4.87634258 L10.2221288,6.44441331 C10.2500233,6.49522119 10.2649668,6.54204415 10.2729367,6.58488216 L10.4911117,6.4683229 C10.4642134,6.44042838 10.432334,6.39759036 10.4054357,6.34777871 L11.7872109,5.62351733 C11.822079,5.68628 11.8449924,5.73609165 11.8529622,5.76797111 L12.0711373,5.65041562 C12.0472277,5.63547212 12.0163444,5.58864917 11.9774914,5.51492793 L11.1645652,3.96180069 C11.1217272,3.88010959 11.0898478,3.80638834 11.0669344,3.73665203 C10.9932132,3.79044862 10.915507,3.83727157 10.8407895,3.87612465 L9.5177921,4.56850658 Z M17.6629931,2.59995019 C17.6629931,2.51427415 17.6789328,2.44852277 17.709816,2.40169982 C17.7177859,2.39372996 17.7217708,2.38576009 17.7217708,2.38177516 C17.6749479,2.36284674 17.577317,2.35487687 17.4338595,2.35487687 C17.4338595,2.3588618 17.4338595,2.36982037 17.4338595,2.38576009 C17.448803,2.46346627 17.4567728,2.54515737 17.4567728,2.63083341 L17.4687276,3.70875751 C17.0951403,3.75956539 16.846082,3.78646368 16.7295227,3.79443355 L16.7404813,4.00463871 C16.8769652,3.97375549 17.1220385,3.93888733 17.4727126,3.89604931 L17.4766975,4.28059525 C17.4766975,4.39416581 17.4687276,4.49080041 17.448803,4.57647645 C17.448803,4.59241618 17.448803,4.59640111 17.448803,4.59640111 L17.7058311,4.59640111 C17.7058311,4.58843124 17.7058311,4.57647645 17.7058311,4.56551789 C17.6898913,4.48681548 17.6829177,4.39018088 17.6829177,4.27661032 L17.6789328,3.86416986 C17.8034619,3.85719623 17.9120513,3.84922636 18.0056972,3.8412565 L17.9817876,3.63503627 C17.8891379,3.65496093 17.7875222,3.66990442 17.6749479,3.68584415 L17.6629931,2.59995019 Z M16.3908035,2.64278821 C16.5193176,2.61588992 16.6438467,2.59995019 16.7524361,2.59995019 C16.7952741,2.59995019 16.8151988,2.59596526 16.8151988,2.58799539 C16.8072289,2.54117244 16.7643909,2.47542106 16.6936584,2.39372996 C16.4177018,2.48339093 16.1218206,2.53320258 15.8030261,2.54914231 C15.8578189,2.61190498 15.896672,2.67367143 15.9156004,2.74739267 C16.0281747,2.72049438 16.1258055,2.69758102 16.2114816,2.67367143 L16.2154665,3.07116839 L16.0172162,3.07116839 C15.9464836,3.07415709 15.8647925,3.06718346 15.7791165,3.05522867 C15.760188,3.05522867 15.7482332,3.05522867 15.7402634,3.05522867 L15.7442483,3.2614489 C15.7482332,3.2614489 15.7681579,3.2614489 15.7910713,3.2614489 C15.8847172,3.2494941 15.9624233,3.24152424 16.0281747,3.24152424 L16.1766134,3.23853554 C16.0560692,3.54936023 15.892687,3.79044862 15.6944367,3.95383083 C15.7442483,3.99268391 15.7910713,4.05544659 15.8339093,4.14112263 C15.9743781,3.96977056 16.1068771,3.75558046 16.2194514,3.50652221 L16.2274213,4.12916783 C16.2274213,4.28059525 16.2234364,4.42903397 16.2035117,4.57249152 L16.4216867,4.56850658 C16.4137169,4.49080041 16.405747,4.34335793 16.405747,4.1251829 L16.3947885,3.23853554 L16.5033779,3.23455061 C16.581084,3.23455061 16.6548053,3.24152424 16.7215529,3.25347903 C16.7404813,3.25347903 16.756421,3.25347903 16.760406,3.25347903 L16.760406,3.03530401 C16.7524361,3.03530401 16.7404813,3.03530401 16.7295227,3.03530401 C16.6518166,3.0472588 16.5731142,3.05522867 16.5033779,3.05522867 L16.3947885,3.0592136 L16.3908035,2.64278821 Z M17.3322437,2.96955263 C17.2894057,2.89583139 17.2037296,2.77927213 17.0712307,2.61588992 L16.892905,2.71650945 C16.9745961,2.79421562 17.0562872,2.91475981 17.1459481,3.07814203 L17.3322437,2.96955263 Z M17.2894057,3.51449208 C17.2077146,3.38996295 17.1220385,3.28037732 17.0283926,3.18772765 L16.8610255,3.28834719 C16.9666262,3.40889138 17.0483173,3.51847701 17.1031101,3.62308147 L17.2894057,3.51449208 Z M16.409732,3.48360885 C16.4874381,3.58024345 16.5541857,3.68185922 16.6089785,3.78646368 L16.7873043,3.66591949 C16.7056132,3.54139037 16.627907,3.44475577 16.5541857,3.37402322 L16.409732,3.48360885 Z M23.8037732,4.69004701 C23.9362722,4.6083559 24.0608013,4.53762336 24.1813455,4.48382678 C24.2052551,4.46390212 24.2361384,4.45593226 24.2829613,4.45593226 C24.2979048,4.45593226 24.3058747,4.45194732 24.3098596,4.44796239 C24.3098596,4.41707917 24.2510818,4.34335793 24.1345226,4.22679867 C23.9711404,4.38619595 23.7997883,4.50674014 23.6214626,4.59241618 L22.6212447,4.07437502 C22.511659,4.01260857 22.4419227,3.96578562 22.4070546,3.93091747 C22.3911148,3.96977056 22.3562467,4.04747673 22.2974689,4.16403599 C22.2665857,4.22281374 22.2277326,4.28059525 22.1848946,4.339373 C22.1729398,4.35929766 22.1699511,4.37025622 22.1659662,4.37424115 L22.3761714,4.48382678 C22.3721864,4.47585692 22.3801563,4.45194732 22.3990847,4.41707917 C22.4110395,4.39416581 22.4459077,4.3274182 22.5036892,4.21484387 L24.0219483,5.0008717 C23.9751253,5.09451761 23.9442421,5.15229912 23.9322873,5.17620871 C23.9133589,5.21107687 23.8974191,5.23797516 23.8814794,5.24992995 L24.0837147,5.35553065 C24.0876996,5.35154572 24.0956695,5.33162106 24.1116092,5.30472277 C24.1424925,5.23100153 24.1654058,5.17620871 24.1853305,5.14134056 C24.2470969,5.01681143 24.2899349,4.94607889 24.3058747,4.92715046 C24.2670216,4.9191806 24.1813455,4.88431244 24.0528315,4.81457613 L23.8037732,4.69004701 Z M23.5746396,4.35929766 C23.6134927,4.15606612 23.6284362,4.02755207 23.6214626,3.96977056 L23.4152424,3.89604931 C23.3953177,4.06341646 23.3724043,4.19890414 23.3524797,4.29653498 L23.5746396,4.35929766 Z M23.0805081,4.15606612 C23.0645684,3.96977056 23.041655,3.83727157 23.0097755,3.75558046 L22.7925967,3.74362567 C22.8314498,3.85321129 22.8543632,3.98172535 22.8583481,4.13315277 L23.0805081,4.15606612 Z M22.8583481,4.69004701 C22.7607173,4.63923913 22.6640827,4.58046138 22.5704368,4.51869493 C22.5505121,4.50674014 22.5395536,4.50275521 22.5355686,4.49877027 L22.4379378,4.68207715 C22.4379378,4.68207715 22.4498926,4.69004701 22.4648361,4.69702064 C22.5784066,4.73985866 22.6830111,4.78668161 22.7846269,4.83748949 L23.379378,5.14931042 C23.2159958,5.1214159 23.0685533,5.1064724 22.9360543,5.09850254 L22.8543632,5.25391488 L22.2516422,4.94209396 C22.1928645,4.91121073 22.1071884,4.86040285 21.9946141,4.78668161 C21.959746,4.77173812 21.9398213,4.75978332 21.9358364,4.75579839 L21.8312319,4.95803369 C21.8352168,4.96201862 21.8541453,4.96998848 21.8820398,4.98493198 C22.002584,5.03175493 22.0952336,5.07060801 22.1659662,5.1094611 L22.7686872,5.42128203 L22.6252296,5.7012235 C22.6092899,5.73210672 22.5823916,5.74007659 22.5435385,5.72911802 C22.5076741,5.72513309 22.4379378,5.68628 22.3253635,5.61554746 C22.3442919,5.6892687 22.340307,5.77892967 22.3134087,5.87656051 C22.4618474,5.94629682 22.5664519,5.98116497 22.6252296,5.98116497 C22.686996,5.97817627 22.7378039,5.93533825 22.776657,5.86062078 L22.955979,5.51891286 L23.465054,5.77892967 C23.5706547,5.83372249 23.6712742,5.89648517 23.7689051,5.96223654 C23.7888297,5.97020641 23.7997883,5.97817627 23.8037732,5.98116497 L23.9093739,5.77892967 C23.905389,5.77494474 23.8934342,5.76797111 23.8745058,5.76000125 C23.7649201,5.71716323 23.6483609,5.66635534 23.5318016,5.6045889 L23.0486286,5.35553065 L23.0954516,5.26586968 C23.1153762,5.26985461 23.1502444,5.27284331 23.2010523,5.27682824 C23.4262009,5.2967529 23.5855982,5.32365119 23.6712742,5.35553065 L23.7768749,5.15229912 C23.77289,5.14931042 23.7529653,5.14134056 23.7260671,5.12540083 C23.6563307,5.09850254 23.6055229,5.07459295 23.5706547,5.05566452 L22.8583481,4.69004701 Z M28.2788518,9.27371502 C28.2639083,9.25478659 28.2320289,9.19999377 28.1822172,9.11431774 C28.1234395,9.03262663 28.0885713,8.98181875 28.0726316,8.95890539 L27.9212042,9.06749479 C27.9600573,9.1103328 28.0337785,9.21194857 28.1433642,9.37134585 L28.3147162,9.62438903 C28.4193207,9.77581644 28.4810871,9.86547741 28.4930419,9.89636064 L28.6484543,9.79175617 C28.6374957,9.77183151 28.6135861,9.74094829 28.578718,9.69014041 C28.5239252,9.6204041 28.4810871,9.56561128 28.4541888,9.5267582 L28.2788518,9.27371502 Z M27.8165997,9.29762461 C27.7339124,9.18405405 27.6841007,9.10634787 27.6641761,9.06350985 L27.5007939,9.17608418 C27.5167336,9.19600884 27.5516018,9.24283179 27.6103795,9.31655303 C27.6412627,9.35939105 27.6562062,9.38330064 27.6601912,9.39027428 L27.6841007,9.42215373 C27.3214719,9.67420068 27.0146322,9.62438903 26.7655739,9.27371502 C26.7655739,9.35540612 26.7496342,9.44506709 26.718751,9.53871299 C26.718751,9.54668286 26.714766,9.54967155 26.714766,9.54967155 C26.9249712,9.7020952 27.1082781,9.77980138 27.2636904,9.78777124 C27.407148,9.77183151 27.5864699,9.7020952 27.80066,9.56959621 L27.9172193,9.74094829 L27.3573363,10.1304754 C27.2985586,10.1693285 27.2676754,10.2121665 27.2716603,10.2510196 C27.2636904,10.2858877 27.2905887,10.3476542 27.3493665,10.4333302 L27.449986,10.5817689 C27.5276922,10.7252265 27.6801158,10.7491361 27.9012795,10.6395504 C27.8783662,10.5857539 27.8743812,10.5000778 27.8943059,10.3825223 C27.7070141,10.488123 27.5904548,10.492108 27.5436319,10.3984621 C27.4888391,10.3207559 27.4888391,10.2659631 27.535662,10.2350799 L28.0148501,9.90034557 L28.0576881,9.95912331 C28.1702624,10.1264905 28.2399988,10.2310949 28.2599234,10.2739329 L28.4233056,10.1613586 C28.3884375,10.1225055 28.3147162,10.0169048 28.1971607,9.84953769 L27.8165997,9.29762461 Z M28.2170854,8.07126179 C28.1503378,7.97761589 28.1045111,7.89990972 28.0726316,7.84611313 C28.0377635,7.88496622 27.9799819,7.93079294 27.9052645,7.98558575 L27.6024096,8.19180598 L26.5553688,8.91606737 C26.4188848,9.00871704 26.3491485,9.05553999 26.3451636,9.04856636 L26.4696927,9.22689206 C26.5244855,9.18006911 26.5902369,9.1342424 26.6679431,9.07944958 L27.7229538,8.34721833 L28.0576881,8.11808474 L28.2320289,8.37112792 C27.933159,8.45680396 27.714984,8.51857041 27.5785,8.55742349 C27.5555867,8.74073036 27.4738956,8.88817285 27.3374117,8.98978861 C27.2288223,9.07147972 27.1351764,9.03262663 27.0614551,8.86924442 C27.0495003,8.84931976 27.0415305,8.84234613 27.0375455,8.83437626 C27.0335606,8.9349958 26.9867376,9.00871704 26.8980729,9.06350985 C27.0654401,9.26176022 27.2357959,9.30459824 27.407148,9.19202391 C27.539647,9.09439308 27.6452477,8.93101087 27.7309237,8.70586221 C27.8624264,8.66700912 28.0028953,8.62815603 28.1503378,8.58531802 C28.2868217,8.53849507 28.4073659,8.50362691 28.5169515,8.48768718 C28.4741135,8.4368793 28.4193207,8.36315806 28.3495844,8.26552723 L28.2170854,8.07126179 Z M29.0260266,8.99775848 L28.8437159,8.78755331 C28.8008779,8.90012764 28.75007,8.98580368 28.6912923,9.05155506 L28.4810871,8.75268516 C28.4422341,8.68992248 28.403381,8.6241711 28.3685128,8.55343856 C28.3216899,8.59328788 28.2678933,8.6361259 28.1971607,8.68195262 C28.1433642,8.7208057 28.0885713,8.75667009 28.0337785,8.78356838 L28.1583076,8.96289032 C28.1662775,8.95890539 28.2210703,8.91208244 28.3336447,8.83039133 L28.8905389,9.63534759 C28.8277762,9.67420068 28.7660098,9.7170387 28.6952772,9.75589178 L28.8357461,9.95912331 C28.9214221,9.88440584 28.9762149,9.83857912 28.9951434,9.82662433 C29.0459512,9.79175617 29.1007441,9.75589178 29.1664954,9.72102363 C29.1236574,9.67420068 29.0848043,9.6204041 29.0379814,9.55365649 L28.8237913,9.24681672 L29.0260266,8.99775848 Z M16.9975094,5.24594502 C23.4730239,5.24594502 28.754055,10.5269761 28.754055,17.0024906 C28.754055,23.478005 23.4730239,28.7590361 16.9975094,28.7590361 C10.5259799,28.7590361 5.24096386,23.478005 5.24096386,17.0024906 C5.24096386,10.5269761 10.5259799,5.24594502 16.9975094,5.24594502 Z" id="Fill-72" fill="#003C8E"></path>
            </g>
        </g>
    </g>
</svg>